<svg version="1.1" viewBox="0.0 0.0 131.24146981627297 113.77165354330708" fill="none" stroke="none" stroke-linecap="square" stroke-miterlimit="10" xmlns:xlink="http://www.w3.org/1999/xlink" xmlns="http://www.w3.org/2000/svg"><clipPath id="p.0"><path d="m0 0l131.24147 0l0 113.77165l-131.24147 0l0 -113.77165z" clip-rule="nonzero"/></clipPath><g clip-path="url(#p.0)"><path fill="#000000" fill-opacity="0.0" d="m0 0l131.24147 0l0 113.77165l-131.24147 0z" fill-rule="evenodd"/><path fill="#000000" fill-opacity="0.0" d="m32.03281 23.20257l-0.3149624 84.125984" fill-rule="evenodd"/><path stroke="#000000" stroke-width="1.0" stroke-linejoin="round" stroke-linecap="butt" d="m32.03281 23.20257l-0.3149624 84.125984" fill-rule="evenodd"/><path fill="#000000" fill-opacity="0.0" d="m20.350393 34.17323l90.20472 0.062992096" fill-rule="evenodd"/><path stroke="#000000" stroke-width="1.0" stroke-linejoin="round" stroke-linecap="butt" d="m20.350393 34.17323l90.20472 0.062992096" fill-rule="evenodd"/><path fill="#000000" fill-opacity="0.0" d="m20.350393 49.081364l90.20472 -0.09448624" fill-rule="evenodd"/><path stroke="#000000" stroke-width="1.0" stroke-linejoin="round" stroke-linecap="butt" d="m20.350393 49.081364l90.20472 -0.09448624" fill-rule="evenodd"/><path fill="#000000" fill-opacity="0.0" d="m47.68635 23.20257l-0.25196838 84.125984" fill-rule="evenodd"/><path stroke="#000000" stroke-width="1.0" stroke-linejoin="round" stroke-linecap="butt" d="m47.68635 23.20257l-0.25196838 84.125984" fill-rule="evenodd"/><path fill="#000000" fill-opacity="0.0" d="m63.339893 22.88189l-0.37795258 84.44095" fill-rule="evenodd"/><path stroke="#000000" stroke-width="1.0" stroke-linejoin="round" stroke-linecap="butt" d="m63.339893 22.88189l-0.37795258 84.44095" fill-rule="evenodd"/><path fill="#000000" fill-opacity="0.0" d="m78.99344 22.88189l-0.28346252 84.25197" fill-rule="evenodd"/><path stroke="#000000" stroke-width="1.0" stroke-linejoin="round" stroke-linecap="butt" d="m78.99344 22.88189l-0.28346252 84.25197" fill-rule="evenodd"/><path fill="#000000" fill-opacity="0.0" d="m94.64698 22.88189l-0.40944672 84.062996" fill-rule="evenodd"/><path stroke="#000000" stroke-width="1.0" stroke-linejoin="round" stroke-linecap="butt" d="m94.64698 22.88189l-0.40944672 84.062996" fill-rule="evenodd"/><path fill="#000000" fill-opacity="0.0" d="m110.30052 22.88189l-0.3464508 84.25197" fill-rule="evenodd"/><path stroke="#000000" stroke-width="1.0" stroke-linejoin="round" stroke-linecap="butt" d="m110.30052 22.88189l-0.3464508 84.25197" fill-rule="evenodd"/><path fill="#000000" fill-opacity="0.0" d="m20.350393 63.076115l89.79527 0.031497955" fill-rule="evenodd"/><path stroke="#000000" stroke-width="1.0" stroke-linejoin="round" stroke-linecap="butt" d="m20.350393 63.076115l89.79527 0.031497955" fill-rule="evenodd"/><path fill="#000000" fill-opacity="0.0" d="m20.350393 77.98425l89.79527 0.06298828" fill-rule="evenodd"/><path stroke="#000000" stroke-width="1.0" stroke-linejoin="round" stroke-linecap="butt" d="m20.350393 77.98425l89.79527 0.06298828" fill-rule="evenodd"/><path fill="#000000" fill-opacity="0.0" d="m20.350393 91.979004l89.79527 0.03149414" fill-rule="evenodd"/><path stroke="#000000" stroke-width="1.0" stroke-linejoin="round" stroke-linecap="butt" d="m20.350393 91.979004l89.79527 0.03149414" fill-rule="evenodd"/><path fill="#000000" fill-opacity="0.0" d="m20.350393 106.88714l90.01575 -0.15747833" fill-rule="evenodd"/><path stroke="#000000" stroke-width="1.0" stroke-linejoin="round" stroke-linecap="butt" d="m20.350393 106.88714l90.01575 -0.15747833" fill-rule="evenodd"/><path fill="#000000" fill-opacity="0.0" d="m27.875328 13.619423l19.811024 0l0 29.070866l-19.811024 0z" fill-rule="evenodd"/><path fill="#38761d" d="m40.031578 30.299423l-1.109375 0l0 -4.140625q-0.59375 0.5625 -1.40625 0.828125l0 -0.984375q0.421875 -0.140625 0.921875 -0.53125q0.515625 -0.40625 0.703125 -0.921875l0.890625 0l0 5.75z" fill-rule="nonzero"/><path fill="#000000" fill-opacity="0.0" d="m43.52887 13.620735l19.811024 0l0 29.070866l-19.811024 0z" fill-rule="evenodd"/><path fill="#38761d" d="m56.575745 29.28511l0 1.015625l-3.84375 0q0.0625 -0.578125 0.375 -1.09375q0.3125 -0.515625 1.234375 -1.375q0.734375 -0.6875 0.90625 -0.9375q0.234375 -0.34375 0.234375 -0.671875q0 -0.375 -0.203125 -0.5625q-0.203125 -0.203125 -0.546875 -0.203125q-0.34375 0 -0.546875 0.21875q-0.203125 0.203125 -0.234375 0.671875l-1.09375 -0.109375q0.09375 -0.90625 0.609375 -1.296875q0.515625 -0.390625 1.296875 -0.390625q0.84375 0 1.328125 0.453125q0.484375 0.453125 0.484375 1.140625q0 0.390625 -0.140625 0.734375q-0.140625 0.34375 -0.4375 0.734375q-0.203125 0.25 -0.71875 0.734375q-0.515625 0.46875 -0.65625 0.625q-0.140625 0.15625 -0.21875 0.3125l2.171875 0z" fill-rule="nonzero"/><path fill="#000000" fill-opacity="0.0" d="m58.835957 13.619423l19.811024 0l0 29.070866l-19.811024 0z" fill-rule="evenodd"/><path fill="#38761d" d="m68.132835 28.783798l1.0625 -0.140625q0.0625 0.40625 0.28125 0.625q0.21875 0.21875 0.53125 0.21875q0.34375 0 0.578125 -0.25q0.234375 -0.265625 0.234375 -0.703125q0 -0.421875 -0.234375 -0.65625q-0.21875 -0.25 -0.53125 -0.25q-0.21875 0 -0.5 0.09375l0.109375 -0.90625q0.453125 0.015625 0.6875 -0.1875q0.234375 -0.203125 0.234375 -0.546875q0 -0.28125 -0.171875 -0.453125q-0.171875 -0.171875 -0.453125 -0.171875q-0.28125 0 -0.484375 0.203125q-0.203125 0.1875 -0.25 0.5625l-1.0 -0.171875q0.09375 -0.53125 0.3125 -0.828125q0.21875 -0.3125 0.59375 -0.484375q0.375 -0.1875 0.859375 -0.1875q0.796875 0 1.296875 0.515625q0.390625 0.421875 0.390625 0.953125q0 0.75 -0.8125 1.203125q0.484375 0.109375 0.78125 0.484375q0.296875 0.359375 0.296875 0.875q0 0.75 -0.5625 1.28125q-0.546875 0.53125 -1.359375 0.53125q-0.78125 0 -1.296875 -0.4375q-0.5 -0.453125 -0.59375 -1.171875z" fill-rule="nonzero"/><path fill="#000000" fill-opacity="0.0" d="m74.4895 13.620735l19.81102 0l0 29.070866l-19.81102 0z" fill-rule="evenodd"/><path fill="#38761d" d="m85.9895 30.300735l0 -1.15625l-2.34375 0l0 -0.953125l2.484375 -3.640625l0.921875 0l0 3.625l0.703125 0l0 0.96875l-0.703125 0l0 1.15625l-1.0625 0zm0 -2.125l0 -1.953125l-1.328125 1.953125l1.328125 0z" fill-rule="nonzero"/><path fill="#000000" fill-opacity="0.0" d="m90.4895 13.620735l19.81102 0l0 29.070866l-19.81102 0z" fill-rule="evenodd"/><path fill="#38761d" d="m99.84888 28.831985l1.09375 -0.125q0.046875 0.375 0.265625 0.59375q0.234375 0.21875 0.546875 0.21875q0.34375 0 0.578125 -0.28125q0.234375 -0.28125 0.234375 -0.84375q0 -0.53125 -0.234375 -0.78125q-0.234375 -0.265625 -0.609375 -0.265625q-0.484375 0 -0.859375 0.40625l-0.890625 -0.125l0.5625 -2.984375l2.90625 0l0 1.03125l-2.0625 0l-0.171875 0.96875q0.359375 -0.171875 0.75 -0.171875q0.71875 0 1.21875 0.53125q0.515625 0.53125 0.515625 1.375q0 0.703125 -0.40625 1.265625q-0.5625 0.75 -1.546875 0.75q-0.796875 0 -1.296875 -0.421875q-0.5 -0.421875 -0.59375 -1.140625z" fill-rule="nonzero"/><path fill="#000000" fill-opacity="0.0" d="m13.864829 28.070866l19.811024 0l0 29.070866l-19.811024 0z" fill-rule="evenodd"/><path fill="#0b5394" d="m26.02108 44.750866l-1.109375 0l0 -4.140625q-0.59375 0.5625 -1.40625 0.828125l0 -0.984375q0.421875 -0.140625 0.921875 -0.53125q0.515625 -0.40625 0.703125 -0.921875l0.890625 0l0 5.75z" fill-rule="nonzero"/><path fill="#000000" fill-opacity="0.0" d="m13.863517 41.541996l19.811024 0l0 29.070866l-19.811024 0z" fill-rule="evenodd"/><path fill="#0b5394" d="m26.910393 57.20637l0 1.015625l-3.84375 0q0.0625 -0.578125 0.375 -1.09375q0.3125 -0.515625 1.234375 -1.375q0.734375 -0.6875 0.90625 -0.9375q0.234375 -0.34375 0.234375 -0.671875q0 -0.375 -0.203125 -0.5625q-0.203125 -0.203125 -0.546875 -0.203125q-0.34375 0 -0.546875 0.21875q-0.203125 0.203125 -0.234375 0.671875l-1.09375 -0.109375q0.09375 -0.90625 0.609375 -1.296875q0.515625 -0.390625 1.296875 -0.390625q0.84375 0 1.328125 0.453125q0.484375 0.453125 0.484375 1.140625q0 0.390625 -0.140625 0.734375q-0.140625 0.34375 -0.4375 0.734375q-0.203125 0.25 -0.71875 0.734375q-0.515625 0.46875 -0.65625 0.625q-0.140625 0.15625 -0.21875 0.3125l2.171875 0z" fill-rule="nonzero"/><path fill="#000000" fill-opacity="0.0" d="m13.863517 55.99475l19.811024 0l0 29.07087l-19.811024 0z" fill-rule="evenodd"/><path fill="#0b5394" d="m23.160393 71.15913l1.0625 -0.140625q0.0625 0.40625 0.28125 0.625q0.21875 0.21875 0.53125 0.21875q0.34375 0 0.578125 -0.25q0.234375 -0.265625 0.234375 -0.703125q0 -0.421875 -0.234375 -0.65625q-0.21875 -0.25 -0.53125 -0.25q-0.21875 0 -0.5 0.09375l0.109375 -0.90625q0.453125 0.015625 0.6875 -0.1875q0.234375 -0.203125 0.234375 -0.546875q0 -0.28125 -0.171875 -0.453125q-0.171875 -0.171875 -0.453125 -0.171875q-0.28125 0 -0.484375 0.203125q-0.203125 0.1875 -0.25 0.5625l-1.0 -0.171875q0.09375 -0.53125 0.3125 -0.828125q0.21875 -0.3125 0.59375 -0.484375q0.375 -0.1875 0.859375 -0.1875q0.796875 0 1.296875 0.515625q0.390625 0.421875 0.390625 0.953125q0 0.75 -0.8125 1.203125q0.484375 0.109375 0.78125 0.484375q0.296875 0.359375 0.296875 0.875q0 0.75 -0.5625 1.28125q-0.546875 0.53125 -1.359375 0.53125q-0.78125 0 -1.296875 -0.4375q-0.5 -0.453125 -0.59375 -1.171875z" fill-rule="nonzero"/><path fill="#000000" fill-opacity="0.0" d="m13.863517 70.61286l19.811024 0l0 29.070862l-19.811024 0z" fill-rule="evenodd"/><path fill="#0b5394" d="m25.363518 87.29286l0 -1.15625l-2.34375 0l0 -0.953125l2.484375 -3.640625l0.921875 0l0 3.625l0.703125 0l0 0.96875l-0.703125 0l0 1.15625l-1.0625 0zm0 -2.125l0 -1.953125l-1.328125 1.953125l1.328125 0z" fill-rule="nonzero"/><path fill="#000000" fill-opacity="0.0" d="m13.863517 85.06562l19.811024 0l0 29.070862l-19.811024 0z" fill-rule="evenodd"/><path fill="#0b5394" d="m23.222893 100.27687l1.09375 -0.125q0.046875 0.375 0.265625 0.59375q0.234375 0.21875 0.546875 0.21875q0.34375 0 0.578125 -0.28125q0.234375 -0.28125 0.234375 -0.84375q0 -0.53125 -0.234375 -0.78125q-0.234375 -0.265625 -0.609375 -0.265625q-0.484375 0 -0.859375 0.40625l-0.890625 -0.125l0.5625 -2.984375l2.90625 0l0 1.03125l-2.0625 0l-0.171875 0.96875q0.359375 -0.171875 0.75 -0.171875q0.71875 0 1.21875 0.53125q0.515625 0.53125 0.515625 1.375q0 0.703125 -0.40625 1.265625q-0.5625 0.75 -1.546875 0.75q-0.796875 0 -1.296875 -0.421875q-0.5 -0.421875 -0.59375 -1.140625z" fill-rule="nonzero"/><path fill="#000000" fill-opacity="0.0" d="m27.875328 28.060368l19.811024 0l0 29.070866l-19.811024 0z" fill-rule="evenodd"/><path fill="#000000" d="m37.203453 41.912243q0 -1.015625 0.203125 -1.625q0.21875 -0.625 0.625 -0.953125q0.421875 -0.34375 1.046875 -0.34375q0.453125 0 0.796875 0.1875q0.359375 0.1875 0.578125 0.53125q0.234375 0.34375 0.359375 0.859375q0.125 0.5 0.125 1.34375q0 1.015625 -0.203125 1.640625q-0.203125 0.609375 -0.625 0.953125q-0.40625 0.328125 -1.03125 0.328125q-0.828125 0 -1.296875 -0.59375q-0.578125 -0.71875 -0.578125 -2.328125zm0.734375 0q0 1.40625 0.328125 1.875q0.328125 0.46875 0.8125 0.46875q0.484375 0 0.8125 -0.46875q0.328125 -0.46875 0.328125 -1.875q0 -1.40625 -0.328125 -1.875q-0.328125 -0.46875 -0.828125 -0.46875q-0.484375 0 -0.765625 0.40625q-0.359375 0.53125 -0.359375 1.9375z" fill-rule="nonzero"/><path fill="#000000" fill-opacity="0.0" d="m43.355644 28.060368l19.811024 0l0 29.070866l-19.811024 0z" fill-rule="evenodd"/><path fill="#000000" d="m55.34002 44.740368l-0.703125 0l0 -4.484375q-0.25 0.25 -0.671875 0.5q-0.40625 0.234375 -0.734375 0.34375l0 -0.671875q0.59375 -0.28125 1.03125 -0.671875q0.4375 -0.390625 0.625 -0.765625l0.453125 0l0 5.75z" fill-rule="nonzero"/><path fill="#000000" fill-opacity="0.0" d="m58.835957 28.070866l19.811024 0l0 29.070866l-19.811024 0z" fill-rule="evenodd"/><path fill="#000000" d="m71.86721 44.07899l0 0.671875l-3.78125 0q-0.015625 -0.25 0.078125 -0.484375q0.140625 -0.390625 0.453125 -0.765625q0.328125 -0.375 0.921875 -0.875q0.9375 -0.765625 1.265625 -1.203125q0.328125 -0.453125 0.328125 -0.84375q0 -0.421875 -0.296875 -0.703125q-0.296875 -0.296875 -0.78125 -0.296875q-0.5 0 -0.8125 0.3125q-0.296875 0.296875 -0.3125 0.84375l-0.71875 -0.078125q0.078125 -0.8125 0.5625 -1.234375q0.484375 -0.421875 1.296875 -0.421875q0.828125 0 1.296875 0.453125q0.484375 0.453125 0.484375 1.140625q0 0.34375 -0.140625 0.671875q-0.140625 0.328125 -0.46875 0.703125q-0.3125 0.359375 -1.078125 1.0q-0.625 0.53125 -0.8125 0.71875q-0.171875 0.1875 -0.296875 0.390625l2.8125 0z" fill-rule="nonzero"/><path fill="#000000" fill-opacity="0.0" d="m74.31628 28.070866l19.81102 0l0 29.070866l-19.81102 0z" fill-rule="evenodd"/><path fill="#000000" d="m83.66003 43.23524l0.703125 -0.09375q0.109375 0.59375 0.40625 0.859375q0.296875 0.265625 0.703125 0.265625q0.5 0 0.84375 -0.34375q0.34375 -0.34375 0.34375 -0.84375q0 -0.484375 -0.328125 -0.796875q-0.3125 -0.328125 -0.796875 -0.328125q-0.203125 0 -0.5 0.078125l0.078125 -0.609375q0.078125 0 0.125 0q0.4375 0 0.796875 -0.234375q0.359375 -0.234375 0.359375 -0.71875q0 -0.390625 -0.265625 -0.640625q-0.25 -0.25 -0.671875 -0.25q-0.40625 0 -0.6875 0.265625q-0.265625 0.25 -0.34375 0.765625l-0.703125 -0.125q0.125 -0.703125 0.578125 -1.09375q0.46875 -0.390625 1.140625 -0.390625q0.46875 0 0.859375 0.203125q0.40625 0.203125 0.609375 0.546875q0.21875 0.34375 0.21875 0.734375q0 0.375 -0.203125 0.6875q-0.203125 0.296875 -0.59375 0.46875q0.515625 0.125 0.796875 0.5q0.28125 0.359375 0.28125 0.921875q0 0.75 -0.546875 1.28125q-0.546875 0.515625 -1.390625 0.515625q-0.75 0 -1.25 -0.453125q-0.5 -0.453125 -0.5625 -1.171875z" fill-rule="nonzero"/><path fill="#000000" fill-opacity="0.0" d="m89.796585 28.070866l19.811028 0l0 29.070866l-19.811028 0z" fill-rule="evenodd"/><path fill="#000000" d="m101.390335 44.750866l0 -1.375l-2.484375 0l0 -0.640625l2.609375 -3.71875l0.578125 0l0 3.71875l0.765625 0l0 0.640625l-0.765625 0l0 1.375l-0.703125 0zm0 -2.015625l0 -2.578125l-1.796875 2.578125l1.796875 0z" fill-rule="nonzero"/><path fill="#000000" fill-opacity="0.0" d="m27.875328 41.53806l19.811024 0l0 29.070866l-19.811024 0z" fill-rule="evenodd"/><path fill="#000000" d="m39.859703 58.21806l-0.703125 0l0 -4.484375q-0.25 0.25 -0.671875 0.5q-0.40625 0.234375 -0.734375 0.34375l0 -0.671875q0.59375 -0.28125 1.03125 -0.671875q0.4375 -0.390625 0.625 -0.765625l0.453125 0l0 5.75z" fill-rule="nonzero"/><path fill="#000000" fill-opacity="0.0" d="m43.355644 41.53806l19.811024 0l0 29.070866l-19.811024 0z" fill-rule="evenodd"/><path fill="#000000" d="m52.68377 55.389935q0 -1.015625 0.203125 -1.625q0.21875 -0.625 0.625 -0.953125q0.421875 -0.34375 1.046875 -0.34375q0.453125 0 0.796875 0.1875q0.359375 0.1875 0.578125 0.53125q0.234375 0.34375 0.359375 0.859375q0.125 0.5 0.125 1.34375q0 1.015625 -0.203125 1.640625q-0.203125 0.609375 -0.625 0.953125q-0.40625 0.328125 -1.03125 0.328125q-0.828125 0 -1.296875 -0.59375q-0.578125 -0.71875 -0.578125 -2.328125zm0.734375 0q0 1.40625 0.328125 1.875q0.328125 0.46875 0.8125 0.46875q0.484375 0 0.8125 -0.46875q0.328125 -0.46875 0.328125 -1.875q0 -1.40625 -0.328125 -1.875q-0.328125 -0.46875 -0.828125 -0.46875q-0.484375 0 -0.765625 0.40625q-0.359375 0.53125 -0.359375 1.9375z" fill-rule="nonzero"/><path fill="#000000" fill-opacity="0.0" d="m58.835957 41.548557l19.811024 0l0 29.070866l-19.811024 0z" fill-rule="evenodd"/><path fill="#000000" d="m70.820335 58.228558l-0.703125 0l0 -4.484375q-0.25 0.25 -0.671875 0.5q-0.40625 0.234375 -0.734375 0.34375l0 -0.671875q0.59375 -0.28125 1.03125 -0.671875q0.4375 -0.390625 0.625 -0.765625l0.453125 0l0 5.75z" fill-rule="nonzero"/><path fill="#000000" fill-opacity="0.0" d="m74.31628 41.548557l19.81102 0l0 29.070866l-19.81102 0z" fill-rule="evenodd"/><path fill="#000000" d="m87.34753 57.556683l0 0.671875l-3.78125 0q-0.015625 -0.25 0.078125 -0.484375q0.140625 -0.390625 0.453125 -0.765625q0.328125 -0.375 0.921875 -0.875q0.9375 -0.765625 1.265625 -1.203125q0.328125 -0.453125 0.328125 -0.84375q0 -0.421875 -0.296875 -0.703125q-0.296875 -0.296875 -0.78125 -0.296875q-0.5 0 -0.8125 0.3125q-0.296875 0.296875 -0.3125 0.84375l-0.71875 -0.078125q0.078125 -0.8125 0.5625 -1.234375q0.484375 -0.421875 1.296875 -0.421875q0.828125 0 1.296875 0.453125q0.484375 0.453125 0.484375 1.140625q0 0.34375 -0.140625 0.671875q-0.140625 0.328125 -0.46875 0.703125q-0.3125 0.359375 -1.078125 1.0q-0.625 0.53125 -0.8125 0.71875q-0.171875 0.1875 -0.296875 0.390625l2.8125 0z" fill-rule="nonzero"/><path fill="#000000" fill-opacity="0.0" d="m89.796585 41.548557l19.811028 0l0 29.070866l-19.811028 0z" fill-rule="evenodd"/><path fill="#000000" d="m99.140335 56.712933l0.703125 -0.09375q0.109375 0.59375 0.40625 0.859375q0.296875 0.265625 0.703125 0.265625q0.5 0 0.84375 -0.34375q0.34375 -0.34375 0.34375 -0.84375q0 -0.484375 -0.328125 -0.796875q-0.3125 -0.328125 -0.796875 -0.328125q-0.203125 0 -0.5 0.078125l0.078125 -0.609375q0.078125 0 0.125 0q0.4375 0 0.796875 -0.234375q0.359375 -0.234375 0.359375 -0.71875q0 -0.390625 -0.265625 -0.640625q-0.25 -0.25 -0.671875 -0.25q-0.40625 0 -0.6875 0.265625q-0.265625 0.25 -0.34375 0.765625l-0.703125 -0.125q0.125 -0.703125 0.578125 -1.09375q0.46875 -0.390625 1.140625 -0.390625q0.46875 0 0.859375 0.203125q0.40625 0.203125 0.609375 0.546875q0.21875 0.34375 0.21875 0.734375q0 0.375 -0.203125 0.6875q-0.203125 0.296875 -0.59375 0.46875q0.515625 0.125 0.796875 0.5q0.28125 0.359375 0.28125 0.921875q0 0.75 -0.546875 1.28125q-0.546875 0.515625 -1.390625 0.515625q-0.75 0 -1.25 -0.453125q-0.5 -0.453125 -0.5625 -1.171875z" fill-rule="nonzero"/><path fill="#000000" fill-opacity="0.0" d="m27.875328 55.989502l19.811024 0l0 29.070862l-19.811024 0z" fill-rule="evenodd"/><path fill="#000000" d="m40.906578 71.99763l0 0.671875l-3.78125 0q-0.015625 -0.25 0.078125 -0.484375q0.140625 -0.390625 0.453125 -0.765625q0.328125 -0.375 0.921875 -0.875q0.9375 -0.765625 1.265625 -1.203125q0.328125 -0.453125 0.328125 -0.84375q0 -0.421875 -0.296875 -0.703125q-0.296875 -0.296875 -0.78125 -0.296875q-0.5 0 -0.8125 0.3125q-0.296875 0.296875 -0.3125 0.84375l-0.71875 -0.078125q0.078125 -0.8125 0.5625 -1.234375q0.484375 -0.421875 1.296875 -0.421875q0.828125 0 1.296875 0.453125q0.484375 0.453125 0.484375 1.140625q0 0.34375 -0.140625 0.671875q-0.140625 0.328125 -0.46875 0.703125q-0.3125 0.359375 -1.078125 1.0q-0.625 0.53125 -0.8125 0.71875q-0.171875 0.1875 -0.296875 0.390625l2.8125 0z" fill-rule="nonzero"/><path fill="#000000" fill-opacity="0.0" d="m43.355644 55.989502l19.811024 0l0 29.070862l-19.811024 0z" fill-rule="evenodd"/><path fill="#000000" d="m55.34002 72.6695l-0.703125 0l0 -4.484375q-0.25 0.25 -0.671875 0.5q-0.40625 0.234375 -0.734375 0.34375l0 -0.671875q0.59375 -0.28125 1.03125 -0.671875q0.4375 -0.390625 0.625 -0.765625l0.453125 0l0 5.75z" fill-rule="nonzero"/><path fill="#000000" fill-opacity="0.0" d="m58.835957 56.0l19.811024 0l0 29.07087l-19.811024 0z" fill-rule="evenodd"/><path fill="#000000" d="m68.164085 69.851875q0 -1.015625 0.203125 -1.625q0.21875 -0.625 0.625 -0.953125q0.421875 -0.34375 1.046875 -0.34375q0.453125 0 0.796875 0.1875q0.359375 0.1875 0.578125 0.53125q0.234375 0.34375 0.359375 0.859375q0.125 0.5 0.125 1.34375q0 1.015625 -0.203125 1.640625q-0.203125 0.609375 -0.625 0.953125q-0.40625 0.328125 -1.03125 0.328125q-0.828125 0 -1.296875 -0.59375q-0.578125 -0.71875 -0.578125 -2.328125zm0.734375 0q0 1.40625 0.328125 1.875q0.328125 0.46875 0.8125 0.46875q0.484375 0 0.8125 -0.46875q0.328125 -0.46875 0.328125 -1.875q0 -1.40625 -0.328125 -1.875q-0.328125 -0.46875 -0.828125 -0.46875q-0.484375 0 -0.765625 0.40625q-0.359375 0.53125 -0.359375 1.9375z" fill-rule="nonzero"/><path fill="#000000" fill-opacity="0.0" d="m74.31628 56.0l19.81102 0l0 29.07087l-19.81102 0z" fill-rule="evenodd"/><path fill="#000000" d="m86.30065 72.68l-0.703125 0l0 -4.484375q-0.25 0.25 -0.671875 0.5q-0.40625 0.234375 -0.734375 0.34375l0 -0.671875q0.59375 -0.28125 1.03125 -0.671875q0.4375 -0.390625 0.625 -0.765625l0.453125 0l0 5.75z" fill-rule="nonzero"/><path fill="#000000" fill-opacity="0.0" d="m89.796585 56.0l19.811028 0l0 29.07087l-19.811028 0z" fill-rule="evenodd"/><path fill="#000000" d="m102.827835 72.008125l0 0.671875l-3.78125 0q-0.015625 -0.25 0.078125 -0.484375q0.140625 -0.390625 0.453125 -0.765625q0.328125 -0.375 0.921875 -0.875q0.9375 -0.765625 1.265625 -1.203125q0.328125 -0.453125 0.328125 -0.84375q0 -0.421875 -0.296875 -0.703125q-0.296875 -0.296875 -0.78125 -0.296875q-0.5 0 -0.8125 0.3125q-0.296875 0.296875 -0.3125 0.84375l-0.71875 -0.078125q0.078125 -0.8125 0.5625 -1.234375q0.484375 -0.421875 1.296875 -0.421875q0.828125 0 1.296875 0.453125q0.484375 0.453125 0.484375 1.140625q0 0.34375 -0.140625 0.671875q-0.140625 0.328125 -0.46875 0.703125q-0.3125 0.359375 -1.078125 1.0q-0.625 0.53125 -0.8125 0.71875q-0.171875 0.1875 -0.296875 0.390625l2.8125 0z" fill-rule="nonzero"/><path fill="#000000" fill-opacity="0.0" d="m27.875328 70.44095l19.811024 0l0 29.070862l-19.811024 0z" fill-rule="evenodd"/><path fill="#000000" d="m37.219078 85.60532l0.703125 -0.09375q0.109375 0.59375 0.40625 0.859375q0.296875 0.265625 0.703125 0.265625q0.5 0 0.84375 -0.34375q0.34375 -0.34375 0.34375 -0.84375q0 -0.484375 -0.328125 -0.796875q-0.3125 -0.328125 -0.796875 -0.328125q-0.203125 0 -0.5 0.078125l0.078125 -0.609375q0.078125 0 0.125 0q0.4375 0 0.796875 -0.234375q0.359375 -0.234375 0.359375 -0.71875q0 -0.390625 -0.265625 -0.640625q-0.25 -0.25 -0.671875 -0.25q-0.40625 0 -0.6875 0.265625q-0.265625 0.25 -0.34375 0.765625l-0.703125 -0.125q0.125 -0.703125 0.578125 -1.09375q0.46875 -0.390625 1.140625 -0.390625q0.46875 0 0.859375 0.203125q0.40625 0.203125 0.609375 0.546875q0.21875 0.34375 0.21875 0.734375q0 0.375 -0.203125 0.6875q-0.203125 0.296875 -0.59375 0.46875q0.515625 0.125 0.796875 0.5q0.28125 0.359375 0.28125 0.921875q0 0.75 -0.546875 1.28125q-0.546875 0.515625 -1.390625 0.515625q-0.75 0 -1.25 -0.453125q-0.5 -0.453125 -0.5625 -1.171875z" fill-rule="nonzero"/><path fill="#000000" fill-opacity="0.0" d="m43.355644 70.44095l19.811024 0l0 29.070862l-19.811024 0z" fill-rule="evenodd"/><path fill="#000000" d="m56.386894 86.44907l0 0.671875l-3.78125 0q-0.015625 -0.25 0.078125 -0.484375q0.140625 -0.390625 0.453125 -0.765625q0.328125 -0.375 0.921875 -0.875q0.9375 -0.765625 1.265625 -1.203125q0.328125 -0.453125 0.328125 -0.84375q0 -0.421875 -0.296875 -0.703125q-0.296875 -0.296875 -0.78125 -0.296875q-0.5 0 -0.8125 0.3125q-0.296875 0.296875 -0.3125 0.84375l-0.71875 -0.078125q0.078125 -0.8125 0.5625 -1.234375q0.484375 -0.421875 1.296875 -0.421875q0.828125 0 1.296875 0.453125q0.484375 0.453125 0.484375 1.140625q0 0.34375 -0.140625 0.671875q-0.140625 0.328125 -0.46875 0.703125q-0.3125 0.359375 -1.078125 1.0q-0.625 0.53125 -0.8125 0.71875q-0.171875 0.1875 -0.296875 0.390625l2.8125 0z" fill-rule="nonzero"/><path fill="#000000" fill-opacity="0.0" d="m58.835957 70.45145l19.811024 0l0 29.070862l-19.811024 0z" fill-rule="evenodd"/><path fill="#000000" d="m70.820335 87.13145l-0.703125 0l0 -4.484375q-0.25 0.25 -0.671875 0.5q-0.40625 0.234375 -0.734375 0.34375l0 -0.671875q0.59375 -0.28125 1.03125 -0.671875q0.4375 -0.390625 0.625 -0.765625l0.453125 0l0 5.75z" fill-rule="nonzero"/><path fill="#000000" fill-opacity="0.0" d="m74.31628 70.45145l19.81102 0l0 29.070862l-19.81102 0z" fill-rule="evenodd"/><path fill="#000000" d="m83.6444 84.30332q0 -1.015625 0.203125 -1.625q0.21875 -0.625 0.625 -0.953125q0.421875 -0.34375 1.046875 -0.34375q0.453125 0 0.796875 0.1875q0.359375 0.1875 0.578125 0.53125q0.234375 0.34375 0.359375 0.859375q0.125 0.5 0.125 1.34375q0 1.015625 -0.203125 1.640625q-0.203125 0.609375 -0.625 0.953125q-0.40625 0.328125 -1.03125 0.328125q-0.828125 0 -1.296875 -0.59375q-0.578125 -0.71875 -0.578125 -2.328125zm0.734375 0q0 1.40625 0.328125 1.875q0.328125 0.46875 0.8125 0.46875q0.484375 0 0.8125 -0.46875q0.328125 -0.46875 0.328125 -1.875q0 -1.40625 -0.328125 -1.875q-0.328125 -0.46875 -0.828125 -0.46875q-0.484375 0 -0.765625 0.40625q-0.359375 0.53125 -0.359375 1.9375z" fill-rule="nonzero"/><path fill="#000000" fill-opacity="0.0" d="m89.796585 70.45145l19.811028 0l0 29.070862l-19.811028 0z" fill-rule="evenodd"/><path fill="#000000" d="m101.78096 87.13145l-0.703125 0l0 -4.484375q-0.25 0.25 -0.671875 0.5q-0.40625 0.234375 -0.734375 0.34375l0 -0.671875q0.59375 -0.28125 1.03125 -0.671875q0.4375 -0.390625 0.625 -0.765625l0.453125 0l0 5.75z" fill-rule="nonzero"/><path fill="#000000" fill-opacity="0.0" d="m27.875328 85.34908l19.811024 0l0 29.070862l-19.811024 0z" fill-rule="evenodd"/><path fill="#000000" d="m39.469078 102.02908l0 -1.375l-2.484375 0l0 -0.640625l2.609375 -3.71875l0.578125 0l0 3.71875l0.765625 0l0 0.640625l-0.765625 0l0 1.375l-0.703125 0zm0 -2.015625l0 -2.578125l-1.796875 2.578125l1.796875 0z" fill-rule="nonzero"/><path fill="#000000" fill-opacity="0.0" d="m43.355644 85.34908l19.811024 0l0 29.070862l-19.811024 0z" fill-rule="evenodd"/><path fill="#000000" d="m52.699394 100.51346l0.703125 -0.09375q0.109375 0.59375 0.40625 0.859375q0.296875 0.265625 0.703125 0.265625q0.5 0 0.84375 -0.34375q0.34375 -0.34375 0.34375 -0.84375q0 -0.484375 -0.328125 -0.796875q-0.3125 -0.328125 -0.796875 -0.328125q-0.203125 0 -0.5 0.078125l0.078125 -0.609375q0.078125 0 0.125 0q0.4375 0 0.796875 -0.234375q0.359375 -0.234375 0.359375 -0.71875q0 -0.390625 -0.265625 -0.640625q-0.25 -0.25 -0.671875 -0.25q-0.40625 0 -0.6875 0.265625q-0.265625 0.25 -0.34375 0.765625l-0.703125 -0.125q0.125 -0.703125 0.578125 -1.09375q0.46875 -0.390625 1.140625 -0.390625q0.46875 0 0.859375 0.203125q0.40625 0.203125 0.609375 0.546875q0.21875 0.34375 0.21875 0.734375q0 0.375 -0.203125 0.6875q-0.203125 0.296875 -0.59375 0.46875q0.515625 0.125 0.796875 0.5q0.28125 0.359375 0.28125 0.921875q0 0.75 -0.546875 1.28125q-0.546875 0.515625 -1.390625 0.515625q-0.75 0 -1.25 -0.453125q-0.5 -0.453125 -0.5625 -1.171875z" fill-rule="nonzero"/><path fill="#000000" fill-opacity="0.0" d="m58.835957 85.35958l19.811024 0l0 29.070862l-19.811024 0z" fill-rule="evenodd"/><path fill="#000000" d="m71.86721 101.36771l0 0.671875l-3.78125 0q-0.015625 -0.25 0.078125 -0.484375q0.140625 -0.390625 0.453125 -0.765625q0.328125 -0.375 0.921875 -0.875q0.9375 -0.765625 1.265625 -1.203125q0.328125 -0.453125 0.328125 -0.84375q0 -0.421875 -0.296875 -0.703125q-0.296875 -0.296875 -0.78125 -0.296875q-0.5 0 -0.8125 0.3125q-0.296875 0.296875 -0.3125 0.84375l-0.71875 -0.078125q0.078125 -0.8125 0.5625 -1.234375q0.484375 -0.421875 1.296875 -0.421875q0.828125 0 1.296875 0.453125q0.484375 0.453125 0.484375 1.140625q0 0.34375 -0.140625 0.671875q-0.140625 0.328125 -0.46875 0.703125q-0.3125 0.359375 -1.078125 1.0q-0.625 0.53125 -0.8125 0.71875q-0.171875 0.1875 -0.296875 0.390625l2.8125 0z" fill-rule="nonzero"/><path fill="#000000" fill-opacity="0.0" d="m74.31628 85.35958l19.81102 0l0 29.070862l-19.81102 0z" fill-rule="evenodd"/><path fill="#000000" d="m86.30065 102.03958l-0.703125 0l0 -4.484375q-0.25 0.25 -0.671875 0.5q-0.40625 0.234375 -0.734375 0.34375l0 -0.671875q0.59375 -0.28125 1.03125 -0.671875q0.4375 -0.390625 0.625 -0.765625l0.453125 0l0 5.75z" fill-rule="nonzero"/><path fill="#000000" fill-opacity="0.0" d="m89.796585 85.35958l19.811028 0l0 29.070862l-19.811028 0z" fill-rule="evenodd"/><path fill="#000000" d="m99.12471 99.21146q0 -1.015625 0.203125 -1.625q0.21875 -0.625 0.625 -0.953125q0.421875 -0.34375 1.046875 -0.34375q0.453125 0 0.796875 0.1875q0.359375 0.1875 0.578125 0.53125q0.234375 0.34375 0.359375 0.859375q0.125 0.5 0.125 1.34375q0 1.015625 -0.203125 1.640625q-0.203125 0.609375 -0.625 0.953125q-0.40625 0.328125 -1.03125 0.328125q-0.828125 0 -1.296875 -0.59375q-0.578125 -0.71875 -0.578125 -2.328125zm0.734375 0q0 1.40625 0.328125 1.875q0.328125 0.46875 0.8125 0.46875q0.484375 0 0.8125 -0.46875q0.328125 -0.46875 0.328125 -1.875q0 -1.40625 -0.328125 -1.875q-0.328125 -0.46875 -0.828125 -0.46875q-0.484375 0 -0.765625 0.40625q-0.359375 0.53125 -0.359375 1.9375z" fill-rule="nonzero"/></g></svg>