<svg version="1.1" viewBox="0.0 0.0 173.86876640419948 158.10761154855643" fill="none" stroke="none" stroke-linecap="square" stroke-miterlimit="10" xmlns:xlink="http://www.w3.org/1999/xlink" xmlns="http://www.w3.org/2000/svg"><clipPath id="p.0"><path d="m0 0l173.86876 0l0 158.1076l-173.86876 0l0 -158.1076z" clip-rule="nonzero"/></clipPath><g clip-path="url(#p.0)"><path fill="#000000" fill-opacity="0.0" d="m0 0l173.86876 0l0 158.1076l-173.86876 0z" fill-rule="evenodd"/><path fill="#000000" fill-opacity="0.0" d="m45.132545 37.9401l-0.34645462 97.13386" fill-rule="evenodd"/><path stroke="#000000" stroke-width="1.0" stroke-linejoin="round" stroke-linecap="butt" d="m45.132545 37.9401l-0.34645462 97.13386" fill-rule="evenodd"/><path fill="#000000" fill-opacity="0.0" d="m33.45013 48.910763l104.53543 0" fill-rule="evenodd"/><path stroke="#000000" stroke-width="1.0" stroke-linejoin="round" stroke-linecap="butt" d="m33.45013 48.910763l104.53543 0" fill-rule="evenodd"/><path fill="#000000" fill-opacity="0.0" d="m33.45013 63.818897l104.53543 0" fill-rule="evenodd"/><path stroke="#000000" stroke-width="1.0" stroke-linejoin="round" stroke-linecap="butt" d="m33.45013 63.818897l104.53543 0" fill-rule="evenodd"/><path fill="#000000" fill-opacity="0.0" d="m60.78609 37.9401l-0.34645844 97.13386" fill-rule="evenodd"/><path stroke="#000000" stroke-width="1.0" stroke-linejoin="round" stroke-linecap="butt" d="m60.78609 37.9401l-0.34645844 97.13386" fill-rule="evenodd"/><path fill="#000000" fill-opacity="0.0" d="m76.43964 37.619423l-0.34645844 97.13386" fill-rule="evenodd"/><path stroke="#000000" stroke-width="1.0" stroke-linejoin="round" stroke-linecap="butt" d="m76.43964 37.619423l-0.34645844 97.13386" fill-rule="evenodd"/><path fill="#000000" fill-opacity="0.0" d="m92.09318 37.619423l-0.34645844 97.13386" fill-rule="evenodd"/><path stroke="#000000" stroke-width="1.0" stroke-linejoin="round" stroke-linecap="butt" d="m92.09318 37.619423l-0.34645844 97.13386" fill-rule="evenodd"/><path fill="#000000" fill-opacity="0.0" d="m107.74672 37.619423l-0.34645844 97.13386" fill-rule="evenodd"/><path stroke="#000000" stroke-width="1.0" stroke-linejoin="round" stroke-linecap="butt" d="m107.74672 37.619423l-0.34645844 97.13386" fill-rule="evenodd"/><path fill="#000000" fill-opacity="0.0" d="m123.40026 37.619423l-0.34645844 97.13386" fill-rule="evenodd"/><path stroke="#000000" stroke-width="1.0" stroke-linejoin="round" stroke-linecap="butt" d="m123.40026 37.619423l-0.34645844 97.13386" fill-rule="evenodd"/><path fill="#000000" fill-opacity="0.0" d="m33.45013 77.81365l104.53543 0" fill-rule="evenodd"/><path stroke="#000000" stroke-width="1.0" stroke-linejoin="round" stroke-linecap="butt" d="m33.45013 77.81365l104.53543 0" fill-rule="evenodd"/><path fill="#000000" fill-opacity="0.0" d="m33.45013 92.72179l104.53543 0" fill-rule="evenodd"/><path stroke="#000000" stroke-width="1.0" stroke-linejoin="round" stroke-linecap="butt" d="m33.45013 92.72179l104.53543 0" fill-rule="evenodd"/><path fill="#000000" fill-opacity="0.0" d="m33.45013 106.71654l104.53543 0" fill-rule="evenodd"/><path stroke="#000000" stroke-width="1.0" stroke-linejoin="round" stroke-linecap="butt" d="m33.45013 106.71654l104.53543 0" fill-rule="evenodd"/><path fill="#000000" fill-opacity="0.0" d="m33.45013 121.62467l104.53543 0" fill-rule="evenodd"/><path stroke="#000000" stroke-width="1.0" stroke-linejoin="round" stroke-linecap="butt" d="m33.45013 121.62467l104.53543 0" fill-rule="evenodd"/><path fill="#000000" fill-opacity="0.0" d="m40.975067 28.356955l19.811024 0l0 29.070868l-19.811024 0z" fill-rule="evenodd"/><path fill="#38761d" d="m53.131317 45.036957l-1.109375 0l0 -4.140625q-0.59375 0.5625 -1.40625 0.828125l0 -0.984375q0.421875 -0.140625 0.921875 -0.53125q0.515625 -0.40625 0.703125 -0.921875l0.890625 0l0 5.75z" fill-rule="nonzero"/><path fill="#000000" fill-opacity="0.0" d="m56.62861 28.358267l19.811028 0l0 29.070868l-19.811028 0z" fill-rule="evenodd"/><path fill="#38761d" d="m69.67548 44.022644l0 1.015625l-3.84375 0q0.0625 -0.578125 0.375 -1.09375q0.3125 -0.515625 1.234375 -1.375q0.734375 -0.6875 0.90625 -0.9375q0.234375 -0.34375 0.234375 -0.671875q0 -0.375 -0.203125 -0.5625q-0.203125 -0.203125 -0.546875 -0.203125q-0.34375 0 -0.546875 0.21875q-0.203125 0.203125 -0.234375 0.671875l-1.09375 -0.109375q0.09375 -0.90625 0.609375 -1.296875q0.515625 -0.390625 1.296875 -0.390625q0.84375 0 1.328125 0.453125q0.484375 0.453125 0.484375 1.140625q0 0.390625 -0.140625 0.734375q-0.140625 0.34375 -0.4375 0.734375q-0.203125 0.25 -0.71875 0.734375q-0.515625 0.46875 -0.65625 0.625q-0.140625 0.15625 -0.21875 0.3125l2.171875 0z" fill-rule="nonzero"/><path fill="#000000" fill-opacity="0.0" d="m71.93569 28.356955l19.811028 0l0 29.070868l-19.811028 0z" fill-rule="evenodd"/><path fill="#38761d" d="m81.23257 43.52133l1.0625 -0.140625q0.0625 0.40625 0.28125 0.625q0.21875 0.21875 0.53125 0.21875q0.34375 0 0.578125 -0.25q0.234375 -0.265625 0.234375 -0.703125q0 -0.421875 -0.234375 -0.65625q-0.21875 -0.25 -0.53125 -0.25q-0.21875 0 -0.5 0.09375l0.109375 -0.90625q0.453125 0.015625 0.6875 -0.1875q0.234375 -0.203125 0.234375 -0.546875q0 -0.28125 -0.171875 -0.453125q-0.171875 -0.171875 -0.453125 -0.171875q-0.28125 0 -0.484375 0.203125q-0.203125 0.1875 -0.25 0.5625l-1.0 -0.171875q0.09375 -0.53125 0.3125 -0.828125q0.21875 -0.3125 0.59375 -0.484375q0.375 -0.1875 0.859375 -0.1875q0.796875 0 1.296875 0.515625q0.390625 0.421875 0.390625 0.953125q0 0.75 -0.8125 1.203125q0.484375 0.109375 0.78125 0.484375q0.296875 0.359375 0.296875 0.875q0 0.75 -0.5625 1.28125q-0.546875 0.53125 -1.359375 0.53125q-0.78125 0 -1.296875 -0.4375q-0.5 -0.453125 -0.59375 -1.171875z" fill-rule="nonzero"/><path fill="#000000" fill-opacity="0.0" d="m87.58924 28.358267l19.81102 0l0 29.070868l-19.81102 0z" fill-rule="evenodd"/><path fill="#38761d" d="m99.08924 45.03827l0 -1.15625l-2.34375 0l0 -0.953125l2.484375 -3.640625l0.921875 0l0 3.625l0.703125 0l0 0.96875l-0.703125 0l0 1.15625l-1.0625 0zm0 -2.125l0 -1.953125l-1.328125 1.953125l1.328125 0z" fill-rule="nonzero"/><path fill="#000000" fill-opacity="0.0" d="m103.58924 28.358267l19.81102 0l0 29.070868l-19.81102 0z" fill-rule="evenodd"/><path fill="#38761d" d="m112.948616 43.56952l1.09375 -0.125q0.046875 0.375 0.265625 0.59375q0.234375 0.21875 0.546875 0.21875q0.34375 0 0.578125 -0.28125q0.234375 -0.28125 0.234375 -0.84375q0 -0.53125 -0.234375 -0.78125q-0.234375 -0.265625 -0.609375 -0.265625q-0.484375 0 -0.859375 0.40625l-0.890625 -0.125l0.5625 -2.984375l2.90625 0l0 1.03125l-2.0625 0l-0.171875 0.96875q0.359375 -0.171875 0.75 -0.171875q0.71875 0 1.21875 0.53125q0.515625 0.53125 0.515625 1.375q0 0.703125 -0.40625 1.265625q-0.5625 0.75 -1.546875 0.75q-0.796875 0 -1.296875 -0.421875q-0.5 -0.421875 -0.59375 -1.140625z" fill-rule="nonzero"/><path fill="#000000" fill-opacity="0.0" d="m26.964567 42.8084l19.811022 0l0 29.070866l-19.811022 0z" fill-rule="evenodd"/><path fill="#0b5394" d="m39.120815 59.4884l-1.109375 0l0 -4.140625q-0.59375 0.5625 -1.40625 0.828125l0 -0.984375q0.421875 -0.140625 0.921875 -0.53125q0.515625 -0.40625 0.703125 -0.921875l0.890625 0l0 5.75z" fill-rule="nonzero"/><path fill="#000000" fill-opacity="0.0" d="m26.963255 56.279526l19.811022 0l0 29.07087l-19.811022 0z" fill-rule="evenodd"/><path fill="#0b5394" d="m40.010128 71.9439l0 1.015625l-3.84375 0q0.0625 -0.578125 0.375 -1.09375q0.3125 -0.515625 1.234375 -1.375q0.734375 -0.6875 0.90625 -0.9375q0.234375 -0.34375 0.234375 -0.671875q0 -0.375 -0.203125 -0.5625q-0.203125 -0.203125 -0.546875 -0.203125q-0.34375 0 -0.546875 0.21875q-0.203125 0.203125 -0.234375 0.671875l-1.09375 -0.109375q0.09375 -0.90625 0.609375 -1.296875q0.515625 -0.390625 1.296875 -0.390625q0.84375 0 1.328125 0.453125q0.484375 0.453125 0.484375 1.140625q0 0.390625 -0.140625 0.734375q-0.140625 0.34375 -0.4375 0.734375q-0.203125 0.25 -0.71875 0.734375q-0.515625 0.46875 -0.65625 0.625q-0.140625 0.15625 -0.21875 0.3125l2.171875 0z" fill-rule="nonzero"/><path fill="#000000" fill-opacity="0.0" d="m26.963255 70.732285l19.811022 0l0 29.070862l-19.811022 0z" fill-rule="evenodd"/><path fill="#0b5394" d="m36.260128 85.89666l1.0625 -0.140625q0.0625 0.40625 0.28125 0.625q0.21875 0.21875 0.53125 0.21875q0.34375 0 0.578125 -0.25q0.234375 -0.265625 0.234375 -0.703125q0 -0.421875 -0.234375 -0.65625q-0.21875 -0.25 -0.53125 -0.25q-0.21875 0 -0.5 0.09375l0.109375 -0.90625q0.453125 0.015625 0.6875 -0.1875q0.234375 -0.203125 0.234375 -0.546875q0 -0.28125 -0.171875 -0.453125q-0.171875 -0.171875 -0.453125 -0.171875q-0.28125 0 -0.484375 0.203125q-0.203125 0.1875 -0.25 0.5625l-1.0 -0.171875q0.09375 -0.53125 0.3125 -0.828125q0.21875 -0.3125 0.59375 -0.484375q0.375 -0.1875 0.859375 -0.1875q0.796875 0 1.296875 0.515625q0.390625 0.421875 0.390625 0.953125q0 0.75 -0.8125 1.203125q0.484375 0.109375 0.78125 0.484375q0.296875 0.359375 0.296875 0.875q0 0.75 -0.5625 1.28125q-0.546875 0.53125 -1.359375 0.53125q-0.78125 0 -1.296875 -0.4375q-0.5 -0.453125 -0.59375 -1.171875z" fill-rule="nonzero"/><path fill="#000000" fill-opacity="0.0" d="m26.963255 85.350395l19.811022 0l0 29.070862l-19.811022 0z" fill-rule="evenodd"/><path fill="#0b5394" d="m38.463253 102.030396l0 -1.15625l-2.34375 0l0 -0.953125l2.484375 -3.640625l0.921875 0l0 3.625l0.703125 0l0 0.96875l-0.703125 0l0 1.15625l-1.0625 0zm0 -2.125l0 -1.953125l-1.328125 1.953125l1.328125 0z" fill-rule="nonzero"/><path fill="#000000" fill-opacity="0.0" d="m26.963255 99.80315l19.811022 0l0 29.070862l-19.811022 0z" fill-rule="evenodd"/><path fill="#0b5394" d="m36.322628 115.0144l1.09375 -0.125q0.046875 0.375 0.265625 0.59375q0.234375 0.21875 0.546875 0.21875q0.34375 0 0.578125 -0.28125q0.234375 -0.28125 0.234375 -0.84375q0 -0.53125 -0.234375 -0.78125q-0.234375 -0.265625 -0.609375 -0.265625q-0.484375 0 -0.859375 0.40625l-0.890625 -0.125l0.5625 -2.984375l2.90625 0l0 1.03125l-2.0625 0l-0.171875 0.96875q0.359375 -0.171875 0.75 -0.171875q0.71875 0 1.21875 0.53125q0.515625 0.53125 0.515625 1.375q0 0.703125 -0.40625 1.265625q-0.5625 0.75 -1.546875 0.75q-0.796875 0 -1.296875 -0.421875q-0.5 -0.421875 -0.59375 -1.140625z" fill-rule="nonzero"/><path fill="#000000" fill-opacity="0.0" d="m40.975067 42.7979l19.811024 0l0 29.070866l-19.811024 0z" fill-rule="evenodd"/><path fill="#000000" d="m54.006317 58.806026l0 0.671875l-3.78125 0q-0.015625 -0.25 0.078125 -0.484375q0.140625 -0.390625 0.453125 -0.765625q0.328125 -0.375 0.921875 -0.875q0.9375 -0.765625 1.265625 -1.203125q0.328125 -0.453125 0.328125 -0.84375q0 -0.421875 -0.296875 -0.703125q-0.296875 -0.296875 -0.78125 -0.296875q-0.5 0 -0.8125 0.3125q-0.296875 0.296875 -0.3125 0.84375l-0.71875 -0.078125q0.078125 -0.8125 0.5625 -1.234375q0.484375 -0.421875 1.296875 -0.421875q0.828125 0 1.296875 0.453125q0.484375 0.453125 0.484375 1.140625q0 0.34375 -0.140625 0.671875q-0.140625 0.328125 -0.46875 0.703125q-0.3125 0.359375 -1.078125 1.0q-0.625 0.53125 -0.8125 0.71875q-0.171875 0.1875 -0.296875 0.390625l2.8125 0z" fill-rule="nonzero"/><path fill="#000000" fill-opacity="0.0" d="m56.45538 42.7979l19.811024 0l0 29.070866l-19.811024 0z" fill-rule="evenodd"/><path fill="#000000" d="m65.78351 56.649776q0 -1.015625 0.203125 -1.625q0.21875 -0.625 0.625 -0.953125q0.421875 -0.34375 1.046875 -0.34375q0.453125 0 0.796875 0.1875q0.359375 0.1875 0.578125 0.53125q0.234375 0.34375 0.359375 0.859375q0.125 0.5 0.125 1.34375q0 1.015625 -0.203125 1.640625q-0.203125 0.609375 -0.625 0.953125q-0.40625 0.328125 -1.03125 0.328125q-0.828125 0 -1.296875 -0.59375q-0.578125 -0.71875 -0.578125 -2.328125zm0.734375 0q0 1.40625 0.328125 1.875q0.328125 0.46875 0.8125 0.46875q0.484375 0 0.8125 -0.46875q0.328125 -0.46875 0.328125 -1.875q0 -1.40625 -0.328125 -1.875q-0.328125 -0.46875 -0.828125 -0.46875q-0.484375 0 -0.765625 0.40625q-0.359375 0.53125 -0.359375 1.9375z" fill-rule="nonzero"/><path fill="#000000" fill-opacity="0.0" d="m71.93569 42.8084l19.811028 0l0 29.070866l-19.811028 0z" fill-rule="evenodd"/><path fill="#000000" d="m83.92007 59.4884l-0.703125 0l0 -4.484375q-0.25 0.25 -0.671875 0.5q-0.40625 0.234375 -0.734375 0.34375l0 -0.671875q0.59375 -0.28125 1.03125 -0.671875q0.4375 -0.390625 0.625 -0.765625l0.453125 0l0 5.75z" fill-rule="nonzero"/><path fill="#000000" fill-opacity="0.0" d="m87.41601 42.8084l19.811028 0l0 29.070866l-19.811028 0z" fill-rule="evenodd"/><path fill="#000000" d="m96.74413 56.660275q0 -1.015625 0.203125 -1.625q0.21875 -0.625 0.625 -0.953125q0.421875 -0.34375 1.046875 -0.34375q0.453125 0 0.796875 0.1875q0.359375 0.1875 0.578125 0.53125q0.234375 0.34375 0.359375 0.859375q0.125 0.5 0.125 1.34375q0 1.015625 -0.203125 1.640625q-0.203125 0.609375 -0.625 0.953125q-0.40625 0.328125 -1.03125 0.328125q-0.828125 0 -1.296875 -0.59375q-0.578125 -0.71875 -0.578125 -2.328125zm0.734375 0q0 1.40625 0.328125 1.875q0.328125 0.46875 0.8125 0.46875q0.484375 0 0.8125 -0.46875q0.328125 -0.46875 0.328125 -1.875q0 -1.40625 -0.328125 -1.875q-0.328125 -0.46875 -0.828125 -0.46875q-0.484375 0 -0.765625 0.40625q-0.359375 0.53125 -0.359375 1.9375z" fill-rule="nonzero"/><path fill="#000000" fill-opacity="0.0" d="m102.896324 42.8084l19.811028 0l0 29.070866l-19.811028 0z" fill-rule="evenodd"/><path fill="#000000" d="m112.22445 56.660275q0 -1.015625 0.203125 -1.625q0.21875 -0.625 0.625 -0.953125q0.421875 -0.34375 1.046875 -0.34375q0.453125 0 0.796875 0.1875q0.359375 0.1875 0.578125 0.53125q0.234375 0.34375 0.359375 0.859375q0.125 0.5 0.125 1.34375q0 1.015625 -0.203125 1.640625q-0.203125 0.609375 -0.625 0.953125q-0.40625 0.328125 -1.03125 0.328125q-0.828125 0 -1.296875 -0.59375q-0.578125 -0.71875 -0.578125 -2.328125zm0.734375 0q0 1.40625 0.328125 1.875q0.328125 0.46875 0.8125 0.46875q0.484375 0 0.8125 -0.46875q0.328125 -0.46875 0.328125 -1.875q0 -1.40625 -0.328125 -1.875q-0.328125 -0.46875 -0.828125 -0.46875q-0.484375 0 -0.765625 0.40625q-0.359375 0.53125 -0.359375 1.9375z" fill-rule="nonzero"/><path fill="#000000" fill-opacity="0.0" d="m40.975067 56.27559l19.811024 0l0 29.07087l-19.811024 0z" fill-rule="evenodd"/><path fill="#000000" d="m50.303192 70.127464q0 -1.015625 0.203125 -1.625q0.21875 -0.625 0.625 -0.953125q0.421875 -0.34375 1.046875 -0.34375q0.453125 0 0.796875 0.1875q0.359375 0.1875 0.578125 0.53125q0.234375 0.34375 0.359375 0.859375q0.125 0.5 0.125 1.34375q0 1.015625 -0.203125 1.640625q-0.203125 0.609375 -0.625 0.953125q-0.40625 0.328125 -1.03125 0.328125q-0.828125 0 -1.296875 -0.59375q-0.578125 -0.71875 -0.578125 -2.328125zm0.734375 0q0 1.40625 0.328125 1.875q0.328125 0.46875 0.8125 0.46875q0.484375 0 0.8125 -0.46875q0.328125 -0.46875 0.328125 -1.875q0 -1.40625 -0.328125 -1.875q-0.328125 -0.46875 -0.828125 -0.46875q-0.484375 0 -0.765625 0.40625q-0.359375 0.53125 -0.359375 1.9375z" fill-rule="nonzero"/><path fill="#000000" fill-opacity="0.0" d="m56.45538 56.27559l19.811024 0l0 29.07087l-19.811024 0z" fill-rule="evenodd"/><path fill="#000000" d="m68.43976 72.95559l-0.703125 0l0 -4.484375q-0.25 0.25 -0.671875 0.5q-0.40625 0.234375 -0.734375 0.34375l0 -0.671875q0.59375 -0.28125 1.03125 -0.671875q0.4375 -0.390625 0.625 -0.765625l0.453125 0l0 5.75z" fill-rule="nonzero"/><path fill="#000000" fill-opacity="0.0" d="m71.93569 56.28609l19.811028 0l0 29.070866l-19.811028 0z" fill-rule="evenodd"/><path fill="#000000" d="m81.26382 70.13796q0 -1.015625 0.203125 -1.625q0.21875 -0.625 0.625 -0.953125q0.421875 -0.34375 1.046875 -0.34375q0.453125 0 0.796875 0.1875q0.359375 0.1875 0.578125 0.53125q0.234375 0.34375 0.359375 0.859375q0.125 0.5 0.125 1.34375q0 1.015625 -0.203125 1.640625q-0.203125 0.609375 -0.625 0.953125q-0.40625 0.328125 -1.03125 0.328125q-0.828125 0 -1.296875 -0.59375q-0.578125 -0.71875 -0.578125 -2.328125zm0.734375 0q0 1.40625 0.328125 1.875q0.328125 0.46875 0.8125 0.46875q0.484375 0 0.8125 -0.46875q0.328125 -0.46875 0.328125 -1.875q0 -1.40625 -0.328125 -1.875q-0.328125 -0.46875 -0.828125 -0.46875q-0.484375 0 -0.765625 0.40625q-0.359375 0.53125 -0.359375 1.9375z" fill-rule="nonzero"/><path fill="#000000" fill-opacity="0.0" d="m87.41601 56.28609l19.811028 0l0 29.070866l-19.811028 0z" fill-rule="evenodd"/><path fill="#000000" d="m96.74413 70.13796q0 -1.015625 0.203125 -1.625q0.21875 -0.625 0.625 -0.953125q0.421875 -0.34375 1.046875 -0.34375q0.453125 0 0.796875 0.1875q0.359375 0.1875 0.578125 0.53125q0.234375 0.34375 0.359375 0.859375q0.125 0.5 0.125 1.34375q0 1.015625 -0.203125 1.640625q-0.203125 0.609375 -0.625 0.953125q-0.40625 0.328125 -1.03125 0.328125q-0.828125 0 -1.296875 -0.59375q-0.578125 -0.71875 -0.578125 -2.328125zm0.734375 0q0 1.40625 0.328125 1.875q0.328125 0.46875 0.8125 0.46875q0.484375 0 0.8125 -0.46875q0.328125 -0.46875 0.328125 -1.875q0 -1.40625 -0.328125 -1.875q-0.328125 -0.46875 -0.828125 -0.46875q-0.484375 0 -0.765625 0.40625q-0.359375 0.53125 -0.359375 1.9375z" fill-rule="nonzero"/><path fill="#000000" fill-opacity="0.0" d="m102.896324 56.28609l19.811028 0l0 29.070866l-19.811028 0z" fill-rule="evenodd"/><path fill="#000000" d="m112.22445 70.13796q0 -1.015625 0.203125 -1.625q0.21875 -0.625 0.625 -0.953125q0.421875 -0.34375 1.046875 -0.34375q0.453125 0 0.796875 0.1875q0.359375 0.1875 0.578125 0.53125q0.234375 0.34375 0.359375 0.859375q0.125 0.5 0.125 1.34375q0 1.015625 -0.203125 1.640625q-0.203125 0.609375 -0.625 0.953125q-0.40625 0.328125 -1.03125 0.328125q-0.828125 0 -1.296875 -0.59375q-0.578125 -0.71875 -0.578125 -2.328125zm0.734375 0q0 1.40625 0.328125 1.875q0.328125 0.46875 0.8125 0.46875q0.484375 0 0.8125 -0.46875q0.328125 -0.46875 0.328125 -1.875q0 -1.40625 -0.328125 -1.875q-0.328125 -0.46875 -0.828125 -0.46875q-0.484375 0 -0.765625 0.40625q-0.359375 0.53125 -0.359375 1.9375z" fill-rule="nonzero"/><path fill="#000000" fill-opacity="0.0" d="m40.975067 70.727036l19.811024 0l0 29.070862l-19.811024 0z" fill-rule="evenodd"/><path fill="#000000" d="m50.303192 84.57891q0 -1.015625 0.203125 -1.625q0.21875 -0.625 0.625 -0.953125q0.421875 -0.34375 1.046875 -0.34375q0.453125 0 0.796875 0.1875q0.359375 0.1875 0.578125 0.53125q0.234375 0.34375 0.359375 0.859375q0.125 0.5 0.125 1.34375q0 1.015625 -0.203125 1.640625q-0.203125 0.609375 -0.625 0.953125q-0.40625 0.328125 -1.03125 0.328125q-0.828125 0 -1.296875 -0.59375q-0.578125 -0.71875 -0.578125 -2.328125zm0.734375 0q0 1.40625 0.328125 1.875q0.328125 0.46875 0.8125 0.46875q0.484375 0 0.8125 -0.46875q0.328125 -0.46875 0.328125 -1.875q0 -1.40625 -0.328125 -1.875q-0.328125 -0.46875 -0.828125 -0.46875q-0.484375 0 -0.765625 0.40625q-0.359375 0.53125 -0.359375 1.9375z" fill-rule="nonzero"/><path fill="#000000" fill-opacity="0.0" d="m56.45538 70.727036l19.811024 0l0 29.070862l-19.811024 0z" fill-rule="evenodd"/><path fill="#000000" d="m65.78351 84.57891q0 -1.015625 0.203125 -1.625q0.21875 -0.625 0.625 -0.953125q0.421875 -0.34375 1.046875 -0.34375q0.453125 0 0.796875 0.1875q0.359375 0.1875 0.578125 0.53125q0.234375 0.34375 0.359375 0.859375q0.125 0.5 0.125 1.34375q0 1.015625 -0.203125 1.640625q-0.203125 0.609375 -0.625 0.953125q-0.40625 0.328125 -1.03125 0.328125q-0.828125 0 -1.296875 -0.59375q-0.578125 -0.71875 -0.578125 -2.328125zm0.734375 0q0 1.40625 0.328125 1.875q0.328125 0.46875 0.8125 0.46875q0.484375 0 0.8125 -0.46875q0.328125 -0.46875 0.328125 -1.875q0 -1.40625 -0.328125 -1.875q-0.328125 -0.46875 -0.828125 -0.46875q-0.484375 0 -0.765625 0.40625q-0.359375 0.53125 -0.359375 1.9375z" fill-rule="nonzero"/><path fill="#000000" fill-opacity="0.0" d="m71.93569 70.73753l19.811028 0l0 29.070862l-19.811028 0z" fill-rule="evenodd"/><path fill="#000000" d="m84.96694 86.74566l0 0.671875l-3.78125 0q-0.015625 -0.25 0.078125 -0.484375q0.140625 -0.390625 0.453125 -0.765625q0.328125 -0.375 0.921875 -0.875q0.9375 -0.765625 1.265625 -1.203125q0.328125 -0.453125 0.328125 -0.84375q0 -0.421875 -0.296875 -0.703125q-0.296875 -0.296875 -0.78125 -0.296875q-0.5 0 -0.8125 0.3125q-0.296875 0.296875 -0.3125 0.84375l-0.71875 -0.078125q0.078125 -0.8125 0.5625 -1.234375q0.484375 -0.421875 1.296875 -0.421875q0.828125 0 1.296875 0.453125q0.484375 0.453125 0.484375 1.140625q0 0.34375 -0.140625 0.671875q-0.140625 0.328125 -0.46875 0.703125q-0.3125 0.359375 -1.078125 1.0q-0.625 0.53125 -0.8125 0.71875q-0.171875 0.1875 -0.296875 0.390625l2.8125 0z" fill-rule="nonzero"/><path fill="#000000" fill-opacity="0.0" d="m87.41601 70.73753l19.811028 0l0 29.070862l-19.811028 0z" fill-rule="evenodd"/><path fill="#000000" d="m96.74413 84.58941q0 -1.015625 0.203125 -1.625q0.21875 -0.625 0.625 -0.953125q0.421875 -0.34375 1.046875 -0.34375q0.453125 0 0.796875 0.1875q0.359375 0.1875 0.578125 0.53125q0.234375 0.34375 0.359375 0.859375q0.125 0.5 0.125 1.34375q0 1.015625 -0.203125 1.640625q-0.203125 0.609375 -0.625 0.953125q-0.40625 0.328125 -1.03125 0.328125q-0.828125 0 -1.296875 -0.59375q-0.578125 -0.71875 -0.578125 -2.328125zm0.734375 0q0 1.40625 0.328125 1.875q0.328125 0.46875 0.8125 0.46875q0.484375 0 0.8125 -0.46875q0.328125 -0.46875 0.328125 -1.875q0 -1.40625 -0.328125 -1.875q-0.328125 -0.46875 -0.828125 -0.46875q-0.484375 0 -0.765625 0.40625q-0.359375 0.53125 -0.359375 1.9375z" fill-rule="nonzero"/><path fill="#000000" fill-opacity="0.0" d="m102.896324 70.73753l19.811028 0l0 29.070862l-19.811028 0z" fill-rule="evenodd"/><path fill="#000000" d="m112.22445 84.58941q0 -1.015625 0.203125 -1.625q0.21875 -0.625 0.625 -0.953125q0.421875 -0.34375 1.046875 -0.34375q0.453125 0 0.796875 0.1875q0.359375 0.1875 0.578125 0.53125q0.234375 0.34375 0.359375 0.859375q0.125 0.5 0.125 1.34375q0 1.015625 -0.203125 1.640625q-0.203125 0.609375 -0.625 0.953125q-0.40625 0.328125 -1.03125 0.328125q-0.828125 0 -1.296875 -0.59375q-0.578125 -0.71875 -0.578125 -2.328125zm0.734375 0q0 1.40625 0.328125 1.875q0.328125 0.46875 0.8125 0.46875q0.484375 0 0.8125 -0.46875q0.328125 -0.46875 0.328125 -1.875q0 -1.40625 -0.328125 -1.875q-0.328125 -0.46875 -0.828125 -0.46875q-0.484375 0 -0.765625 0.40625q-0.359375 0.53125 -0.359375 1.9375z" fill-rule="nonzero"/><path fill="#000000" fill-opacity="0.0" d="m40.975067 85.178474l19.811024 0l0 29.07087l-19.811024 0z" fill-rule="evenodd"/><path fill="#000000" d="m50.303192 99.03035q0 -1.015625 0.203125 -1.625q0.21875 -0.625 0.625 -0.953125q0.421875 -0.34375 1.046875 -0.34375q0.453125 0 0.796875 0.1875q0.359375 0.1875 0.578125 0.53125q0.234375 0.34375 0.359375 0.859375q0.125 0.5 0.125 1.34375q0 1.015625 -0.203125 1.640625q-0.203125 0.609375 -0.625 0.953125q-0.40625 0.328125 -1.03125 0.328125q-0.828125 0 -1.296875 -0.59375q-0.578125 -0.71875 -0.578125 -2.328125zm0.734375 0q0 1.40625 0.328125 1.875q0.328125 0.46875 0.8125 0.46875q0.484375 0 0.8125 -0.46875q0.328125 -0.46875 0.328125 -1.875q0 -1.40625 -0.328125 -1.875q-0.328125 -0.46875 -0.828125 -0.46875q-0.484375 0 -0.765625 0.40625q-0.359375 0.53125 -0.359375 1.9375z" fill-rule="nonzero"/><path fill="#000000" fill-opacity="0.0" d="m56.45538 85.178474l19.811024 0l0 29.07087l-19.811024 0z" fill-rule="evenodd"/><path fill="#000000" d="m65.78351 99.03035q0 -1.015625 0.203125 -1.625q0.21875 -0.625 0.625 -0.953125q0.421875 -0.34375 1.046875 -0.34375q0.453125 0 0.796875 0.1875q0.359375 0.1875 0.578125 0.53125q0.234375 0.34375 0.359375 0.859375q0.125 0.5 0.125 1.34375q0 1.015625 -0.203125 1.640625q-0.203125 0.609375 -0.625 0.953125q-0.40625 0.328125 -1.03125 0.328125q-0.828125 0 -1.296875 -0.59375q-0.578125 -0.71875 -0.578125 -2.328125zm0.734375 0q0 1.40625 0.328125 1.875q0.328125 0.46875 0.8125 0.46875q0.484375 0 0.8125 -0.46875q0.328125 -0.46875 0.328125 -1.875q0 -1.40625 -0.328125 -1.875q-0.328125 -0.46875 -0.828125 -0.46875q-0.484375 0 -0.765625 0.40625q-0.359375 0.53125 -0.359375 1.9375z" fill-rule="nonzero"/><path fill="#000000" fill-opacity="0.0" d="m71.93569 85.18898l19.811028 0l0 29.070862l-19.811028 0z" fill-rule="evenodd"/><path fill="#000000" d="m81.26382 99.040855q0 -1.015625 0.203125 -1.625q0.21875 -0.625 0.625 -0.953125q0.421875 -0.34375 1.046875 -0.34375q0.453125 0 0.796875 0.1875q0.359375 0.1875 0.578125 0.53125q0.234375 0.34375 0.359375 0.859375q0.125 0.5 0.125 1.34375q0 1.015625 -0.203125 1.640625q-0.203125 0.609375 -0.625 0.953125q-0.40625 0.328125 -1.03125 0.328125q-0.828125 0 -1.296875 -0.59375q-0.578125 -0.71875 -0.578125 -2.328125zm0.734375 0q0 1.40625 0.328125 1.875q0.328125 0.46875 0.8125 0.46875q0.484375 0 0.8125 -0.46875q0.328125 -0.46875 0.328125 -1.875q0 -1.40625 -0.328125 -1.875q-0.328125 -0.46875 -0.828125 -0.46875q-0.484375 0 -0.765625 0.40625q-0.359375 0.53125 -0.359375 1.9375z" fill-rule="nonzero"/><path fill="#000000" fill-opacity="0.0" d="m87.41601 85.18898l19.811028 0l0 29.070862l-19.811028 0z" fill-rule="evenodd"/><path fill="#000000" d="m100.44726 101.197105l0 0.671875l-3.78125 0q-0.015625 -0.25 0.078125 -0.484375q0.140625 -0.390625 0.453125 -0.765625q0.328125 -0.375 0.921875 -0.875q0.9375 -0.765625 1.265625 -1.203125q0.328125 -0.453125 0.328125 -0.84375q0 -0.421875 -0.296875 -0.703125q-0.296875 -0.296875 -0.78125 -0.296875q-0.5 0 -0.8125 0.3125q-0.296875 0.296875 -0.3125 0.84375l-0.71875 -0.078125q0.078125 -0.8125 0.5625 -1.234375q0.484375 -0.421875 1.296875 -0.421875q0.828125 0 1.296875 0.453125q0.484375 0.453125 0.484375 1.140625q0 0.34375 -0.140625 0.671875q-0.140625 0.328125 -0.46875 0.703125q-0.3125 0.359375 -1.078125 1.0q-0.625 0.53125 -0.8125 0.71875q-0.171875 0.1875 -0.296875 0.390625l2.8125 0z" fill-rule="nonzero"/><path fill="#000000" fill-opacity="0.0" d="m102.896324 85.18898l19.811028 0l0 29.070862l-19.811028 0z" fill-rule="evenodd"/><path fill="#000000" d="m112.22445 99.040855q0 -1.015625 0.203125 -1.625q0.21875 -0.625 0.625 -0.953125q0.421875 -0.34375 1.046875 -0.34375q0.453125 0 0.796875 0.1875q0.359375 0.1875 0.578125 0.53125q0.234375 0.34375 0.359375 0.859375q0.125 0.5 0.125 1.34375q0 1.015625 -0.203125 1.640625q-0.203125 0.609375 -0.625 0.953125q-0.40625 0.328125 -1.03125 0.328125q-0.828125 0 -1.296875 -0.59375q-0.578125 -0.71875 -0.578125 -2.328125zm0.734375 0q0 1.40625 0.328125 1.875q0.328125 0.46875 0.8125 0.46875q0.484375 0 0.8125 -0.46875q0.328125 -0.46875 0.328125 -1.875q0 -1.40625 -0.328125 -1.875q-0.328125 -0.46875 -0.828125 -0.46875q-0.484375 0 -0.765625 0.40625q-0.359375 0.53125 -0.359375 1.9375z" fill-rule="nonzero"/><path fill="#000000" fill-opacity="0.0" d="m40.975067 100.08662l19.811024 0l0 29.07087l-19.811024 0z" fill-rule="evenodd"/><path fill="#000000" d="m50.303192 113.93849q0 -1.015625 0.203125 -1.625q0.21875 -0.625 0.625 -0.953125q0.421875 -0.34375 1.046875 -0.34375q0.453125 0 0.796875 0.1875q0.359375 0.1875 0.578125 0.53125q0.234375 0.34375 0.359375 0.859375q0.125 0.5 0.125 1.34375q0 1.015625 -0.203125 1.640625q-0.203125 0.609375 -0.625 0.953125q-0.40625 0.328125 -1.03125 0.328125q-0.828125 0 -1.296875 -0.59375q-0.578125 -0.71875 -0.578125 -2.328125zm0.734375 0q0 1.40625 0.328125 1.875q0.328125 0.46875 0.8125 0.46875q0.484375 0 0.8125 -0.46875q0.328125 -0.46875 0.328125 -1.875q0 -1.40625 -0.328125 -1.875q-0.328125 -0.46875 -0.828125 -0.46875q-0.484375 0 -0.765625 0.40625q-0.359375 0.53125 -0.359375 1.9375z" fill-rule="nonzero"/><path fill="#000000" fill-opacity="0.0" d="m56.45538 100.08662l19.811024 0l0 29.07087l-19.811024 0z" fill-rule="evenodd"/><path fill="#000000" d="m65.78351 113.93849q0 -1.015625 0.203125 -1.625q0.21875 -0.625 0.625 -0.953125q0.421875 -0.34375 1.046875 -0.34375q0.453125 0 0.796875 0.1875q0.359375 0.1875 0.578125 0.53125q0.234375 0.34375 0.359375 0.859375q0.125 0.5 0.125 1.34375q0 1.015625 -0.203125 1.640625q-0.203125 0.609375 -0.625 0.953125q-0.40625 0.328125 -1.03125 0.328125q-0.828125 0 -1.296875 -0.59375q-0.578125 -0.71875 -0.578125 -2.328125zm0.734375 0q0 1.40625 0.328125 1.875q0.328125 0.46875 0.8125 0.46875q0.484375 0 0.8125 -0.46875q0.328125 -0.46875 0.328125 -1.875q0 -1.40625 -0.328125 -1.875q-0.328125 -0.46875 -0.828125 -0.46875q-0.484375 0 -0.765625 0.40625q-0.359375 0.53125 -0.359375 1.9375z" fill-rule="nonzero"/><path fill="#000000" fill-opacity="0.0" d="m71.93569 100.097115l19.811028 0l0 29.07087l-19.811028 0z" fill-rule="evenodd"/><path fill="#000000" d="m81.26382 113.94899q0 -1.015625 0.203125 -1.625q0.21875 -0.625 0.625 -0.953125q0.421875 -0.34375 1.046875 -0.34375q0.453125 0 0.796875 0.1875q0.359375 0.1875 0.578125 0.53125q0.234375 0.34375 0.359375 0.859375q0.125 0.5 0.125 1.34375q0 1.015625 -0.203125 1.640625q-0.203125 0.609375 -0.625 0.953125q-0.40625 0.328125 -1.03125 0.328125q-0.828125 0 -1.296875 -0.59375q-0.578125 -0.71875 -0.578125 -2.328125zm0.734375 0q0 1.40625 0.328125 1.875q0.328125 0.46875 0.8125 0.46875q0.484375 0 0.8125 -0.46875q0.328125 -0.46875 0.328125 -1.875q0 -1.40625 -0.328125 -1.875q-0.328125 -0.46875 -0.828125 -0.46875q-0.484375 0 -0.765625 0.40625q-0.359375 0.53125 -0.359375 1.9375z" fill-rule="nonzero"/><path fill="#000000" fill-opacity="0.0" d="m87.41601 100.097115l19.811028 0l0 29.07087l-19.811028 0z" fill-rule="evenodd"/><path fill="#000000" d="m100.44726 116.10524l0 0.671875l-3.78125 0q-0.015625 -0.25 0.078125 -0.484375q0.140625 -0.390625 0.453125 -0.765625q0.328125 -0.375 0.921875 -0.875q0.9375 -0.765625 1.265625 -1.203125q0.328125 -0.453125 0.328125 -0.84375q0 -0.421875 -0.296875 -0.703125q-0.296875 -0.296875 -0.78125 -0.296875q-0.5 0 -0.8125 0.3125q-0.296875 0.296875 -0.3125 0.84375l-0.71875 -0.078125q0.078125 -0.8125 0.5625 -1.234375q0.484375 -0.421875 1.296875 -0.421875q0.828125 0 1.296875 0.453125q0.484375 0.453125 0.484375 1.140625q0 0.34375 -0.140625 0.671875q-0.140625 0.328125 -0.46875 0.703125q-0.3125 0.359375 -1.078125 1.0q-0.625 0.53125 -0.8125 0.71875q-0.171875 0.1875 -0.296875 0.390625l2.8125 0z" fill-rule="nonzero"/><path fill="#000000" fill-opacity="0.0" d="m102.896324 100.097115l19.811028 0l0 29.07087l-19.811028 0z" fill-rule="evenodd"/><path fill="#000000" d="m112.240074 115.26149l0.703125 -0.09375q0.109375 0.59375 0.40625 0.859375q0.296875 0.265625 0.703125 0.265625q0.5 0 0.84375 -0.34375q0.34375 -0.34375 0.34375 -0.84375q0 -0.484375 -0.328125 -0.796875q-0.3125 -0.328125 -0.796875 -0.328125q-0.203125 0 -0.5 0.078125l0.078125 -0.609375q0.078125 0 0.125 0q0.4375 0 0.796875 -0.234375q0.359375 -0.234375 0.359375 -0.71875q0 -0.390625 -0.265625 -0.640625q-0.25 -0.25 -0.671875 -0.25q-0.40625 0 -0.6875 0.265625q-0.265625 0.25 -0.34375 0.765625l-0.703125 -0.125q0.125 -0.703125 0.578125 -1.09375q0.46875 -0.390625 1.140625 -0.390625q0.46875 0 0.859375 0.203125q0.40625 0.203125 0.609375 0.546875q0.21875 0.34375 0.21875 0.734375q0 0.375 -0.203125 0.6875q-0.203125 0.296875 -0.59375 0.46875q0.515625 0.125 0.796875 0.5q0.28125 0.359375 0.28125 0.921875q0 0.75 -0.546875 1.28125q-0.546875 0.515625 -1.390625 0.515625q-0.75 0 -1.25 -0.453125q-0.5 -0.453125 -0.5625 -1.171875z" fill-rule="nonzero"/><path fill="#000000" fill-opacity="0.0" d="m68.58268 6.2755904l22.740158 0l0 35.559055l-22.740158 0z" fill-rule="evenodd"/><path fill="#38761d" d="m84.598305 27.88809q-0.453125 0.171875 -0.953125 0.265625q-0.484375 0.09375 -1.0 0.09375q-1.75 0 -2.828125 -1.09375q-1.0625 -1.09375 -1.0625 -2.84375q0 -1.4375 0.65625 -2.90625q0.671875 -1.46875 1.890625 -2.25q1.234375 -0.78125 2.78125 -0.78125q1.765625 0 2.84375 1.09375q1.09375 1.09375 1.09375 2.921875q0 1.390625 -0.578125 2.671875q-0.578125 1.265625 -1.5625 2.0625q0.625 0.609375 1.328125 1.0l-0.9375 1.21875q-0.90625 -0.4375 -1.671875 -1.453125zm0.15625 -2.125q0.59375 -0.59375 0.953125 -1.546875q0.375 -0.953125 0.375 -1.796875q0 -1.125 -0.609375 -1.765625q-0.609375 -0.640625 -1.546875 -0.640625q-0.640625 0 -1.1875 0.296875q-0.546875 0.296875 -1.015625 0.859375q-0.453125 0.546875 -0.75 1.375q-0.28125 0.828125 -0.28125 1.65625q0 1.109375 0.609375 1.75q0.625 0.640625 1.578125 0.640625q0.265625 0 0.5625 -0.03125q0.109375 -0.015625 0.125 -0.03125q0.015625 -0.03125 0.015625 -0.0625q0 -0.0625 -0.1875 -0.234375q-0.40625 -0.390625 -0.875 -0.5625l0.71875 -1.09375q0.875 0.4375 1.515625 1.1875z" fill-rule="nonzero"/><path fill="#000000" fill-opacity="0.0" d="m6.3005247 65.821526l22.740158 0l0 35.55905l-22.740158 0z" fill-rule="evenodd"/><path fill="#0b5394" d="m17.800526 87.62152l-1.953126 0l1.984376 -9.546875l3.890625 0q1.03125 0 1.625 0.25q0.609375 0.25 0.953125 0.8125q0.359375 0.5625 0.359375 1.34375q0 0.71875 -0.28125 1.40625q-0.28125 0.671875 -0.6875 1.09375q-0.40625 0.40625 -0.875 0.625q-0.46875 0.203125 -1.265625 0.3125q-0.453125 0.0625 -1.734375 0.0625l-1.25 0l-0.765625 3.640625zm1.09375 -5.21875l0.609375 0q1.546875 0 2.0625 -0.1875q0.53125 -0.203125 0.828125 -0.625q0.296875 -0.4375 0.296875 -0.953125q0 -0.34375 -0.15625 -0.5625q-0.140625 -0.21875 -0.421875 -0.3125q-0.28125 -0.109375 -1.234375 -0.109375l-1.40625 0l-0.578125 2.75z" fill-rule="nonzero"/><path fill="#000000" fill-opacity="0.0" d="m38.154854 117.8189l32.44095 0l0 25.858269l-32.44095 0z" fill-rule="evenodd"/><path fill="#38761d" d="m47.467354 131.9389q0.078125 -0.34375 0.203125 -0.5625q0.125 -0.234375 0.328125 -0.4375q0.21875 -0.21875 0.828125 -0.703125q0.375 -0.296875 0.515625 -0.4375q0.1875 -0.203125 0.28125 -0.390625q0.0625 -0.140625 0.0625 -0.296875q0 -0.25 -0.1875 -0.4375q-0.1875 -0.1875 -0.453125 -0.1875q-0.28125 0 -0.484375 0.1875q-0.1875 0.1875 -0.28125 0.59375l-0.453125 -0.0625q0.0625 -0.515625 0.390625 -0.796875q0.328125 -0.296875 0.8125 -0.296875q0.328125 0 0.59375 0.140625q0.265625 0.125 0.390625 0.375q0.140625 0.25 0.140625 0.5q0 0.375 -0.28125 0.734375q-0.15625 0.21875 -0.96875 0.859375q-0.359375 0.28125 -0.53125 0.453125q-0.15625 0.171875 -0.25 0.328125l1.703125 0l-0.078125 0.4375l-2.28125 0zm2.3851318 0.0625l2.046875 -3.9375l0.40625 0l-2.046875 3.9375l-0.40625 0zm3.0272064 -0.0625l0.609375 -2.875q-0.390625 0.296875 -1.109375 0.484375l0.09375 -0.421875q0.359375 -0.140625 0.6875 -0.359375q0.34375 -0.234375 0.515625 -0.40625q0.109375 -0.109375 0.203125 -0.25l0.28125 0l-0.8125 3.828125l-0.46875 0zm1.9788818 -1.0l0.453125 -0.0625q0.046875 0.40625 0.21875 0.578125q0.1875 0.171875 0.484375 0.171875q0.34375 0 0.59375 -0.25q0.25 -0.25 0.25 -0.5625q0 -0.28125 -0.1875 -0.46875q-0.1875 -0.1875 -0.5 -0.1875q-0.046875 0 -0.15625 0.015625l0.078125 -0.390625q0.0625 0 0.125 0q0.40625 0 0.625 -0.1875q0.21875 -0.203125 0.21875 -0.484375q0 -0.265625 -0.1875 -0.4375q-0.171875 -0.1875 -0.421875 -0.1875q-0.25 0 -0.453125 0.1875q-0.203125 0.1875 -0.265625 0.515625l-0.46875 -0.09375q0.125 -0.46875 0.4375 -0.71875q0.328125 -0.265625 0.78125 -0.265625q0.46875 0 0.75 0.28125q0.296875 0.28125 0.296875 0.703125q0 0.296875 -0.15625 0.53125q-0.15625 0.21875 -0.46875 0.359375q0.21875 0.140625 0.328125 0.328125q0.109375 0.1875 0.109375 0.421875q0 0.515625 -0.390625 0.890625q-0.375 0.375 -0.90625 0.375q-0.515625 0 -0.84375 -0.28125q-0.3125 -0.296875 -0.34375 -0.78125z" fill-rule="nonzero"/><path fill="#000000" fill-opacity="0.0" d="m17.488077 116.2126l33.196854 0l0 29.070862l-33.196854 0z" fill-rule="evenodd"/><path fill="#38761d" d="m29.441202 132.42384q-0.609375 0.5625 -1.171875 0.5625q-0.578125 0 -0.984375 -0.4375q-0.390625 -0.4375 -0.390625 -1.25q0 -0.78125 0.296875 -1.40625q0.3125 -0.625 0.78125 -0.9375q0.46875 -0.3125 0.96875 -0.3125q0.390625 0 0.6875 0.21875q0.3125 0.21875 0.515625 0.640625l0.15625 -0.765625l0.609375 0l-1.203125 5.75l-0.703125 0l0.4375 -2.0625zm-1.84375 -1.21875q0 0.609375 0.25 0.90625q0.265625 0.296875 0.640625 0.296875q0.3125 0 0.640625 -0.265625q0.328125 -0.265625 0.53125 -0.796875q0.21875 -0.53125 0.21875 -1.03125q0 -0.5 -0.265625 -0.78125q-0.265625 -0.296875 -0.640625 -0.296875q-0.375 0 -0.640625 0.234375q-0.375 0.3125 -0.578125 0.90625q-0.15625 0.453125 -0.15625 0.828125zm4.6367207 3.375q-0.6250019 -1.34375 -0.6250019 -2.765625q0 -0.953125 0.25 -1.765625q0.2500019 -0.8125 0.7656269 -1.609375q0.328125 -0.5312424 1.0625 -1.3749924l0.5625 0q-0.46875 0.484375 -0.984375 1.3749924q-0.5 0.890625 -0.734375 1.75q-0.21875 0.84375 -0.21875 1.71875q0 1.28125 0.4375 2.671875l-0.515625 0zm1.3671875 -0.078125l0.046875 -0.671875q0.21875 0.0625 0.421875 0.0625q0.21875 0 0.34375 -0.09375q0.171875 -0.125 0.375 -0.484375l0.234375 -0.40625l-0.6875 -4.171875l0.6875 0l0.3125 2.109375q0.09375 0.609375 0.15625 1.234375l1.859375 -3.34375l0.734375 0l-2.640625 4.703125q-0.375 0.6875 -0.671875 0.90625q-0.296875 0.234375 -0.6875 0.234375q-0.25 0 -0.484375 -0.078125zm5.59375 -7.4374924q0.609375 1.3437424 0.609375 2.7656174q0 0.9375 -0.25 1.75q-0.25 0.8125 -0.75 1.625q-0.34375 0.53125 -1.078125 1.375l-0.546875 0q0.453125 -0.5 0.953125 -1.390625q0.515625 -0.875 0.75 -1.734375q0.234375 -0.859375 0.234375 -1.71875q0 -1.296875 -0.453125 -2.6718674l0.53125 0z" fill-rule="nonzero"/><path fill="#000000" fill-opacity="0.0" d="m116.90803 27.829397l33.196846 0l0 29.070864l-33.196846 0z" fill-rule="evenodd"/><path fill="#4a86e8" d="m125.8299 46.103146l1.203125 -5.75l0.640625 0l-0.109375 0.578125q0.359375 -0.375 0.6406174 -0.515625q0.296875 -0.15625 0.609375 -0.15625q0.59375 0 0.984375 0.4375q0.390625 0.4375 0.390625 1.234375q0 0.65625 -0.21875 1.1875q-0.203125 0.53125 -0.515625 0.859375q-0.3125 0.3125 -0.640625 0.46875q-0.3125 0.15625 -0.65625 0.15625q-0.7499924 0 -1.1562424 -0.765625l-0.46875 2.265625l-0.703125 0zm1.390625 -3.296875q0 0.46875 0.078125 0.65625q0.09375 0.25 0.3125 0.40625q0.21875 0.15625 0.5156174 0.15625q0.609375 0 0.984375 -0.6875q0.375 -0.6875 0.375 -1.40625q0 -0.515625 -0.25 -0.796875q-0.25 -0.296875 -0.625 -0.296875q-0.265625 0 -0.5 0.140625q-0.23436737 0.140625 -0.43749237 0.421875q-0.1875 0.28125 -0.328125 0.703125q-0.125 0.40625 -0.125 0.703125zm4.433586 3.390625q-0.625 -1.34375 -0.625 -2.765625q0 -0.953125 0.25 -1.765625q0.25 -0.8125 0.765625 -1.609375q0.328125 -0.53125 1.0625 -1.375l0.5625 0q-0.46875 0.484375 -0.984375 1.375q-0.5 0.890625 -0.734375 1.75q-0.21875 0.84375 -0.21875 1.71875q0 1.28125 0.4375 2.671875l-0.515625 0zm1.3671875 -0.078125l0.046875 -0.671875q0.21875 0.0625 0.421875 0.0625q0.21875 0 0.34375 -0.09375q0.171875 -0.125 0.375 -0.484375l0.234375 -0.40625l-0.6875 -4.171875l0.6875 0l0.3125 2.109375q0.09375 0.609375 0.15625 1.234375l1.859375 -3.34375l0.734375 0l-2.640625 4.703125q-0.375 0.6875 -0.671875 0.90625q-0.296875 0.234375 -0.6875 0.234375q-0.25 0 -0.484375 -0.078125zm5.59375 -7.4375q0.609375 1.34375 0.609375 2.765625q0 0.9375 -0.25 1.75q-0.25 0.8125 -0.75 1.625q-0.34375 0.53125 -1.078125 1.375l-0.546875 0q0.453125 -0.5 0.953125 -1.390625q0.515625 -0.875 0.75 -1.734375q0.234375 -0.859375 0.234375 -1.71875q0 -1.296875 -0.453125 -2.671875l0.53125 0z" fill-rule="nonzero"/><path fill="#000000" fill-opacity="0.0" d="m116.90823 42.984253l31.653534 0l0 25.858269l-31.653534 0z" fill-rule="evenodd"/><path fill="#4a86e8" d="m126.20511 56.10425l0.453125 -0.0625q0.046875 0.40625 0.21875 0.578125q0.1875 0.171875 0.484375 0.171875q0.34375 0 0.59375 -0.25q0.25 -0.25 0.25 -0.5625q0 -0.28125 -0.1875 -0.46875q-0.1875 -0.1875 -0.5 -0.1875q-0.046875 0 -0.15625 0.015625l0.078125 -0.390625q0.0625 0 0.125 0q0.40625 0 0.625 -0.1875q0.21875 -0.203125 0.21875 -0.484375q0 -0.265625 -0.1875 -0.4375q-0.171875 -0.1875 -0.421875 -0.1875q-0.25 0 -0.453125 0.1875q-0.203125 0.1875 -0.265625 0.515625l-0.46875 -0.09375q0.125 -0.46875 0.4375 -0.71875q0.328125 -0.265625 0.78125 -0.265625q0.46875 0 0.75 0.28125q0.296875 0.28125 0.296875 0.703125q0 0.296875 -0.15625 0.53125q-0.15625 0.21875 -0.46875 0.359375q0.21875 0.140625 0.328125 0.328125q0.109375 0.1875 0.109375 0.421875q0 0.515625 -0.390625 0.890625q-0.375 0.375 -0.90625 0.375q-0.515625 0 -0.84375 -0.28125q-0.3125 -0.296875 -0.34375 -0.78125zm2.4007568 1.0625l2.046875 -3.9375l0.40625 0l-2.046875 3.9375l-0.40625 0zm3.0272064 -0.0625l0.609375 -2.875q-0.390625 0.296875 -1.109375 0.484375l0.09375 -0.421875q0.359375 -0.140625 0.6875 -0.359375q0.34375 -0.234375 0.515625 -0.40625q0.109375 -0.109375 0.203125 -0.25l0.28125 0l-0.8125 3.828125l-0.46875 0zm1.9788818 -1.0l0.453125 -0.0625q0.046875 0.40625 0.21875 0.578125q0.1875 0.171875 0.484375 0.171875q0.34375 0 0.59375 -0.25q0.25 -0.25 0.25 -0.5625q0 -0.28125 -0.1875 -0.46875q-0.1875 -0.1875 -0.5 -0.1875q-0.046875 0 -0.15625 0.015625l0.078125 -0.390625q0.0625 0 0.125 0q0.40625 0 0.625 -0.1875q0.21875 -0.203125 0.21875 -0.484375q0 -0.265625 -0.1875 -0.4375q-0.171875 -0.1875 -0.421875 -0.1875q-0.25 0 -0.453125 0.1875q-0.203125 0.1875 -0.265625 0.515625l-0.46875 -0.09375q0.125 -0.46875 0.4375 -0.71875q0.328125 -0.265625 0.78125 -0.265625q0.46875 0 0.75 0.28125q0.296875 0.28125 0.296875 0.703125q0 0.296875 -0.15625 0.53125q-0.15625 0.21875 -0.46875 0.359375q0.21875 0.140625 0.328125 0.328125q0.109375 0.1875 0.109375 0.421875q0 0.515625 -0.390625 0.890625q-0.375 0.375 -0.90625 0.375q-0.515625 0 -0.84375 -0.28125q-0.3125 -0.296875 -0.34375 -0.78125z" fill-rule="nonzero"/><path fill="#000000" fill-opacity="0.0" d="m54.102364 117.8189l32.44094 0l0 25.858269l-32.44094 0z" fill-rule="evenodd"/><path fill="#38761d" d="m64.38361 131.9389l0.609375 -2.875q-0.390625 0.296875 -1.109375 0.484375l0.09375 -0.421875q0.359375 -0.140625 0.6875 -0.359375q0.34375 -0.234375 0.515625 -0.40625q0.109375 -0.109375 0.203125 -0.25l0.28125 0l-0.8125 3.828125l-0.46875 0zm1.4163818 0.0625l2.046875 -3.9375l0.40625 0l-2.046875 3.9375l-0.40625 0zm3.0272064 -0.0625l0.609375 -2.875q-0.390625 0.296875 -1.109375 0.484375l0.09375 -0.421875q0.359375 -0.140625 0.6875 -0.359375q0.34375 -0.234375 0.515625 -0.40625q0.109375 -0.109375 0.203125 -0.25l0.28125 0l-0.8125 3.828125l-0.46875 0zm1.9788818 -1.0l0.453125 -0.0625q0.046875 0.40625 0.21875 0.578125q0.1875 0.171875 0.484375 0.171875q0.34375 0 0.59375 -0.25q0.25 -0.25 0.25 -0.5625q0 -0.28125 -0.1875 -0.46875q-0.1875 -0.1875 -0.5 -0.1875q-0.046875 0 -0.15625 0.015625l0.078125 -0.390625q0.0625 0 0.125 0q0.40625 0 0.625 -0.1875q0.21875 -0.203125 0.21875 -0.484375q0 -0.265625 -0.1875 -0.4375q-0.171875 -0.1875 -0.421875 -0.1875q-0.25 0 -0.453125 0.1875q-0.203125 0.1875 -0.265625 0.515625l-0.46875 -0.09375q0.125 -0.46875 0.4375 -0.71875q0.328125 -0.265625 0.78125 -0.265625q0.46875 0 0.75 0.28125q0.296875 0.28125 0.296875 0.703125q0 0.296875 -0.15625 0.53125q-0.15625 0.21875 -0.46875 0.359375q0.21875 0.140625 0.328125 0.328125q0.109375 0.1875 0.109375 0.421875q0 0.515625 -0.390625 0.890625q-0.375 0.375 -0.90625 0.375q-0.515625 0 -0.84375 -0.28125q-0.3125 -0.296875 -0.34375 -0.78125z" fill-rule="nonzero"/><path fill="#000000" fill-opacity="0.0" d="m69.60105 117.8189l32.44094 0l0 25.858269l-32.44094 0z" fill-rule="evenodd"/><path fill="#38761d" d="m78.89793 130.9389l0.453125 -0.0625q0.046875 0.40625 0.21875 0.578125q0.1875 0.171875 0.484375 0.171875q0.34375 0 0.59375 -0.25q0.25 -0.25 0.25 -0.5625q0 -0.28125 -0.1875 -0.46875q-0.1875 -0.1875 -0.5 -0.1875q-0.046875 0 -0.15625 0.015625l0.078125 -0.390625q0.0625 0 0.125 0q0.40625 0 0.625 -0.1875q0.21875 -0.203125 0.21875 -0.484375q0 -0.265625 -0.1875 -0.4375q-0.171875 -0.1875 -0.421875 -0.1875q-0.25 0 -0.453125 0.1875q-0.203125 0.1875 -0.265625 0.515625l-0.46875 -0.09375q0.125 -0.46875 0.4375 -0.71875q0.328125 -0.265625 0.78125 -0.265625q0.46875 0 0.75 0.28125q0.296875 0.28125 0.296875 0.703125q0 0.296875 -0.15625 0.53125q-0.15625 0.21875 -0.46875 0.359375q0.21875 0.140625 0.328125 0.328125q0.109375 0.1875 0.109375 0.421875q0 0.515625 -0.390625 0.890625q-0.375 0.375 -0.90625 0.375q-0.515625 0 -0.84375 -0.28125q-0.3125 -0.296875 -0.34375 -0.78125zm2.4007568 1.0625l2.046875 -3.9375l0.40625 0l-2.046875 3.9375l-0.40625 0zm3.0272064 -0.0625l0.609375 -2.875q-0.390625 0.296875 -1.109375 0.484375l0.09375 -0.421875q0.359375 -0.140625 0.6875 -0.359375q0.34375 -0.234375 0.515625 -0.40625q0.109375 -0.109375 0.203125 -0.25l0.28125 0l-0.8125 3.828125l-0.46875 0zm1.9788818 -1.0l0.453125 -0.0625q0.046875 0.40625 0.21875 0.578125q0.1875 0.171875 0.484375 0.171875q0.34375 0 0.59375 -0.25q0.25 -0.25 0.25 -0.5625q0 -0.28125 -0.1875 -0.46875q-0.1875 -0.1875 -0.5 -0.1875q-0.046875 0 -0.15625 0.015625l0.078125 -0.390625q0.0625 0 0.125 0q0.40625 0 0.625 -0.1875q0.21875 -0.203125 0.21875 -0.484375q0 -0.265625 -0.1875 -0.4375q-0.171875 -0.1875 -0.421875 -0.1875q-0.25 0 -0.453125 0.1875q-0.203125 0.1875 -0.265625 0.515625l-0.46875 -0.09375q0.125 -0.46875 0.4375 -0.71875q0.328125 -0.265625 0.78125 -0.265625q0.46875 0 0.75 0.28125q0.296875 0.28125 0.296875 0.703125q0 0.296875 -0.15625 0.53125q-0.15625 0.21875 -0.46875 0.359375q0.21875 0.140625 0.328125 0.328125q0.109375 0.1875 0.109375 0.421875q0 0.515625 -0.390625 0.890625q-0.375 0.375 -0.90625 0.375q-0.515625 0 -0.84375 -0.28125q-0.3125 -0.296875 -0.34375 -0.78125z" fill-rule="nonzero"/><path fill="#000000" fill-opacity="0.0" d="m85.54855 117.8189l32.44095 0l0 25.858269l-32.44095 0z" fill-rule="evenodd"/><path fill="#38761d" d="m96.1423 131.9389l0.203125 -0.96875l-1.5625 0l0.109375 -0.46875l2.140625 -2.375l0.375 0l-0.5 2.421875l0.53125 0l-0.09375 0.421875l-0.53125 0l-0.203125 0.96875l-0.46875 0zm0.296875 -1.390625l0.328125 -1.59375l-1.421875 1.59375l1.09375 0zm0.80700684 1.453125l2.046875 -3.9375l0.40625 0l-2.046875 3.9375l-0.40625 0zm3.0272064 -0.0625l0.609375 -2.875q-0.390625 0.296875 -1.109375 0.484375l0.09375 -0.421875q0.359375 -0.140625 0.6875 -0.359375q0.34375 -0.234375 0.515625 -0.40625q0.109375 -0.109375 0.203125 -0.25l0.28125 0l-0.8125 3.828125l-0.46875 0zm1.9788818 -1.0l0.453125 -0.0625q0.046875 0.40625 0.21875 0.578125q0.1875 0.171875 0.484375 0.171875q0.34375 0 0.59375 -0.25q0.25 -0.25 0.25 -0.5625q0 -0.28125 -0.1875 -0.46875q-0.1875 -0.1875 -0.5 -0.1875q-0.046875 0 -0.15625 0.015625l0.078125 -0.390625q0.0625 0 0.125 0q0.40625 0 0.625 -0.1875q0.21875 -0.203125 0.21875 -0.484375q0 -0.265625 -0.1875 -0.4375q-0.171875 -0.1875 -0.421875 -0.1875q-0.25 0 -0.453125 0.1875q-0.203125 0.1875 -0.265625 0.515625l-0.46875 -0.09375q0.125 -0.46875 0.4375 -0.71875q0.328125 -0.265625 0.78125 -0.265625q0.46875 0 0.75 0.28125q0.296875 0.28125 0.296875 0.703125q0 0.296875 -0.15625 0.53125q-0.15625 0.21875 -0.46875 0.359375q0.21875 0.140625 0.328125 0.328125q0.109375 0.1875 0.109375 0.421875q0 0.515625 -0.390625 0.890625q-0.375 0.375 -0.90625 0.375q-0.515625 0 -0.84375 -0.28125q-0.3125 -0.296875 -0.34375 -0.78125z" fill-rule="nonzero"/><path fill="#000000" fill-opacity="0.0" d="m100.845146 117.8189l32.44094 0l0 25.858269l-32.44094 0z" fill-rule="evenodd"/><path fill="#38761d" d="m110.14202 130.9389l0.453125 -0.0625q0.046875 0.40625 0.21875 0.578125q0.1875 0.171875 0.484375 0.171875q0.34375 0 0.59375 -0.25q0.25 -0.25 0.25 -0.5625q0 -0.28125 -0.1875 -0.46875q-0.1875 -0.1875 -0.5 -0.1875q-0.046875 0 -0.15625 0.015625l0.078125 -0.390625q0.0625 0 0.125 0q0.40625 0 0.625 -0.1875q0.21875 -0.203125 0.21875 -0.484375q0 -0.265625 -0.1875 -0.4375q-0.171875 -0.1875 -0.421875 -0.1875q-0.25 0 -0.453125 0.1875q-0.203125 0.1875 -0.265625 0.515625l-0.46875 -0.09375q0.125 -0.46875 0.4375 -0.71875q0.328125 -0.265625 0.78125 -0.265625q0.46875 0 0.75 0.28125q0.296875 0.28125 0.296875 0.703125q0 0.296875 -0.15625 0.53125q-0.15625 0.21875 -0.46875 0.359375q0.21875 0.140625 0.328125 0.328125q0.109375 0.1875 0.109375 0.421875q0 0.515625 -0.390625 0.890625q-0.375 0.375 -0.90625 0.375q-0.515625 0 -0.84375 -0.28125q-0.3125 -0.296875 -0.34375 -0.78125zm2.4007568 1.0625l2.046875 -3.9375l0.40625 0l-2.046875 3.9375l-0.40625 0zm3.0272064 -0.0625l0.609375 -2.875q-0.390625 0.296875 -1.109375 0.484375l0.09375 -0.421875q0.359375 -0.140625 0.6875 -0.359375q0.34375 -0.234375 0.515625 -0.40625q0.109375 -0.109375 0.203125 -0.25l0.28125 0l-0.8125 3.828125l-0.46875 0zm1.9788818 -1.0l0.453125 -0.0625q0.046875 0.40625 0.21875 0.578125q0.1875 0.171875 0.484375 0.171875q0.34375 0 0.59375 -0.25q0.25 -0.25 0.25 -0.5625q0 -0.28125 -0.1875 -0.46875q-0.1875 -0.1875 -0.5 -0.1875q-0.046875 0 -0.15625 0.015625l0.078125 -0.390625q0.0625 0 0.125 0q0.40625 0 0.625 -0.1875q0.21875 -0.203125 0.21875 -0.484375q0 -0.265625 -0.1875 -0.4375q-0.171875 -0.1875 -0.421875 -0.1875q-0.25 0 -0.453125 0.1875q-0.203125 0.1875 -0.265625 0.515625l-0.46875 -0.09375q0.125 -0.46875 0.4375 -0.71875q0.328125 -0.265625 0.78125 -0.265625q0.46875 0 0.75 0.28125q0.296875 0.28125 0.296875 0.703125q0 0.296875 -0.15625 0.53125q-0.15625 0.21875 -0.46875 0.359375q0.21875 0.140625 0.328125 0.328125q0.109375 0.1875 0.109375 0.421875q0 0.515625 -0.390625 0.890625q-0.375 0.375 -0.90625 0.375q-0.515625 0 -0.84375 -0.28125q-0.3125 -0.296875 -0.34375 -0.78125z" fill-rule="nonzero"/><path fill="#000000" fill-opacity="0.0" d="m116.90823 58.115486l31.653534 0l0 25.858269l-31.653534 0z" fill-rule="evenodd"/><path fill="#4a86e8" d="m127.18948 72.23549l0.609375 -2.875q-0.390625 0.296875 -1.109375 0.484375l0.09375 -0.421875q0.359375 -0.140625 0.6875 -0.359375q0.34375 -0.234375 0.515625 -0.40625q0.109375 -0.109375 0.203125 -0.25l0.28125 0l-0.8125 3.828125l-0.46875 0zm1.4163818 0.0625l2.046875 -3.9375l0.40625 0l-2.046875 3.9375l-0.40625 0zm3.0272064 -0.0625l0.609375 -2.875q-0.390625 0.296875 -1.109375 0.484375l0.09375 -0.421875q0.359375 -0.140625 0.6875 -0.359375q0.34375 -0.234375 0.515625 -0.40625q0.109375 -0.109375 0.203125 -0.25l0.28125 0l-0.8125 3.828125l-0.46875 0zm1.9788818 -1.0l0.453125 -0.0625q0.046875 0.40625 0.21875 0.578125q0.1875 0.171875 0.484375 0.171875q0.34375 0 0.59375 -0.25q0.25 -0.25 0.25 -0.5625q0 -0.28125 -0.1875 -0.46875q-0.1875 -0.1875 -0.5 -0.1875q-0.046875 0 -0.15625 0.015625l0.078125 -0.390625q0.0625 0 0.125 0q0.40625 0 0.625 -0.1875q0.21875 -0.203125 0.21875 -0.484375q0 -0.265625 -0.1875 -0.4375q-0.171875 -0.1875 -0.421875 -0.1875q-0.25 0 -0.453125 0.1875q-0.203125 0.1875 -0.265625 0.515625l-0.46875 -0.09375q0.125 -0.46875 0.4375 -0.71875q0.328125 -0.265625 0.78125 -0.265625q0.46875 0 0.75 0.28125q0.296875 0.28125 0.296875 0.703125q0 0.296875 -0.15625 0.53125q-0.15625 0.21875 -0.46875 0.359375q0.21875 0.140625 0.328125 0.328125q0.109375 0.1875 0.109375 0.421875q0 0.515625 -0.390625 0.890625q-0.375 0.375 -0.90625 0.375q-0.515625 0 -0.84375 -0.28125q-0.3125 -0.296875 -0.34375 -0.78125z" fill-rule="nonzero"/><path fill="#000000" fill-opacity="0.0" d="m116.91086 72.031494l31.653534 0l0 25.858269l-31.653534 0z" fill-rule="evenodd"/><path fill="#4a86e8" d="m126.22336 86.1515q0.078125 -0.34375 0.203125 -0.5625q0.125 -0.234375 0.328125 -0.4375q0.21875 -0.21875 0.828125 -0.703125q0.375 -0.296875 0.515625 -0.4375q0.1875 -0.203125 0.28125 -0.390625q0.0625 -0.140625 0.0625 -0.296875q0 -0.25 -0.1875 -0.4375q-0.1875 -0.1875 -0.453125 -0.1875q-0.28125 0 -0.484375 0.1875q-0.1875 0.1875 -0.28125 0.59375l-0.453125 -0.0625q0.0625 -0.515625 0.390625 -0.796875q0.328125 -0.296875 0.8125 -0.296875q0.328125 0 0.59375 0.140625q0.265625 0.125 0.390625 0.375q0.140625 0.25 0.140625 0.5q0 0.375 -0.28125 0.734375q-0.15625 0.21875 -0.96875 0.859375q-0.359375 0.28125 -0.53125 0.453125q-0.15625 0.171875 -0.25 0.328125l1.703125 0l-0.078125 0.4375l-2.28125 0zm2.3851318 0.0625l2.046875 -3.9375l0.40625 0l-2.046875 3.9375l-0.40625 0zm3.0272064 -0.0625l0.609375 -2.875q-0.390625 0.296875 -1.109375 0.484375l0.09375 -0.421875q0.359375 -0.140625 0.6875 -0.359375q0.34375 -0.234375 0.515625 -0.40625q0.109375 -0.109375 0.203125 -0.25l0.28125 0l-0.8125 3.828125l-0.46875 0zm1.9788818 -1.0l0.453125 -0.0625q0.046875 0.40625 0.21875 0.578125q0.1875 0.171875 0.484375 0.171875q0.34375 0 0.59375 -0.25q0.25 -0.25 0.25 -0.5625q0 -0.28125 -0.1875 -0.46875q-0.1875 -0.1875 -0.5 -0.1875q-0.046875 0 -0.15625 0.015625l0.078125 -0.390625q0.0625 0 0.125 0q0.40625 0 0.625 -0.1875q0.21875 -0.203125 0.21875 -0.484375q0 -0.265625 -0.1875 -0.4375q-0.171875 -0.1875 -0.421875 -0.1875q-0.25 0 -0.453125 0.1875q-0.203125 0.1875 -0.265625 0.515625l-0.46875 -0.09375q0.125 -0.46875 0.4375 -0.71875q0.328125 -0.265625 0.78125 -0.265625q0.46875 0 0.75 0.28125q0.296875 0.28125 0.296875 0.703125q0 0.296875 -0.15625 0.53125q-0.15625 0.21875 -0.46875 0.359375q0.21875 0.140625 0.328125 0.328125q0.109375 0.1875 0.109375 0.421875q0 0.515625 -0.390625 0.890625q-0.375 0.375 -0.90625 0.375q-0.515625 0 -0.84375 -0.28125q-0.3125 -0.296875 -0.34375 -0.78125z" fill-rule="nonzero"/><path fill="#000000" fill-opacity="0.0" d="m116.91086 87.16273l31.653534 0l0 25.858269l-31.653534 0z" fill-rule="evenodd"/><path fill="#4a86e8" d="m126.22336 101.28273q0.078125 -0.34375 0.203125 -0.5625q0.125 -0.234375 0.328125 -0.4375q0.21875 -0.21875 0.828125 -0.703125q0.375 -0.296875 0.515625 -0.4375q0.1875 -0.203125 0.28125 -0.390625q0.0625 -0.140625 0.0625 -0.296875q0 -0.25 -0.1875 -0.4375q-0.1875 -0.1875 -0.453125 -0.1875q-0.28125 0 -0.484375 0.1875q-0.1875 0.1875 -0.28125 0.59375l-0.453125 -0.0625q0.0625 -0.515625 0.390625 -0.796875q0.328125 -0.296875 0.8125 -0.296875q0.328125 0 0.59375 0.140625q0.265625 0.125 0.390625 0.375q0.140625 0.25 0.140625 0.5q0 0.375 -0.28125 0.734375q-0.15625 0.21875 -0.96875 0.859375q-0.359375 0.28125 -0.53125 0.453125q-0.15625 0.171875 -0.25 0.328125l1.703125 0l-0.078125 0.4375l-2.28125 0zm2.3851318 0.0625l2.046875 -3.9375l0.40625 0l-2.046875 3.9375l-0.40625 0zm3.0272064 -0.0625l0.609375 -2.875q-0.390625 0.296875 -1.109375 0.484375l0.09375 -0.421875q0.359375 -0.140625 0.6875 -0.359375q0.34375 -0.234375 0.515625 -0.40625q0.109375 -0.109375 0.203125 -0.25l0.28125 0l-0.8125 3.828125l-0.46875 0zm1.9788818 -1.0l0.453125 -0.0625q0.046875 0.40625 0.21875 0.578125q0.1875 0.171875 0.484375 0.171875q0.34375 0 0.59375 -0.25q0.25 -0.25 0.25 -0.5625q0 -0.28125 -0.1875 -0.46875q-0.1875 -0.1875 -0.5 -0.1875q-0.046875 0 -0.15625 0.015625l0.078125 -0.390625q0.0625 0 0.125 0q0.40625 0 0.625 -0.1875q0.21875 -0.203125 0.21875 -0.484375q0 -0.265625 -0.1875 -0.4375q-0.171875 -0.1875 -0.421875 -0.1875q-0.25 0 -0.453125 0.1875q-0.203125 0.1875 -0.265625 0.515625l-0.46875 -0.09375q0.125 -0.46875 0.4375 -0.71875q0.328125 -0.265625 0.78125 -0.265625q0.46875 0 0.75 0.28125q0.296875 0.28125 0.296875 0.703125q0 0.296875 -0.15625 0.53125q-0.15625 0.21875 -0.46875 0.359375q0.21875 0.140625 0.328125 0.328125q0.109375 0.1875 0.109375 0.421875q0 0.515625 -0.390625 0.890625q-0.375 0.375 -0.90625 0.375q-0.515625 0 -0.84375 -0.28125q-0.3125 -0.296875 -0.34375 -0.78125z" fill-rule="nonzero"/><path fill="#000000" fill-opacity="0.0" d="m116.91086 101.703415l31.653534 0l0 25.858261l-31.653534 0z" fill-rule="evenodd"/><path fill="#4a86e8" d="m126.28586 114.72966l0.46875 -0.046875q0 0.109375 0 0.125q0 0.171875 0.078125 0.34375q0.09375 0.171875 0.234375 0.265625q0.15625 0.09375 0.328125 0.09375q0.21875 0 0.4375 -0.140625q0.234375 -0.15625 0.375 -0.4375q0.140625 -0.296875 0.140625 -0.578125q0 -0.328125 -0.1875 -0.515625q-0.1875 -0.1875 -0.5 -0.1875q-0.203125 0 -0.390625 0.09375q-0.171875 0.09375 -0.34375 0.296875l-0.40625 -0.03125l0.578125 -1.953125l1.859375 0l-0.09375 0.4375l-1.4375 0l-0.296875 0.96875q0.171875 -0.125 0.328125 -0.171875q0.171875 -0.0625 0.359375 -0.0625q0.4375 0 0.71875 0.296875q0.28125 0.28125 0.28125 0.78125q0 0.4375 -0.203125 0.8125q-0.1875 0.375 -0.53125 0.578125q-0.328125 0.1875 -0.71875 0.1875q-0.328125 0 -0.578125 -0.140625q-0.25 -0.15625 -0.375 -0.40625q-0.125 -0.265625 -0.125 -0.53125q0 -0.015625 0 -0.078125zm2.3226318 1.15625l2.046875 -3.9375l0.40625 0l-2.046875 3.9375l-0.40625 0zm3.0272064 -0.0625l0.609375 -2.875q-0.390625 0.296875 -1.109375 0.484375l0.09375 -0.421875q0.359375 -0.140625 0.6875 -0.359375q0.34375 -0.234375 0.515625 -0.40625q0.109375 -0.109375 0.203125 -0.25l0.28125 0l-0.8125 3.828125l-0.46875 0zm1.9788818 -1.0l0.453125 -0.0625q0.046875 0.40625 0.21875 0.578125q0.1875 0.171875 0.484375 0.171875q0.34375 0 0.59375 -0.25q0.25 -0.25 0.25 -0.5625q0 -0.28125 -0.1875 -0.46875q-0.1875 -0.1875 -0.5 -0.1875q-0.046875 0 -0.15625 0.015625l0.078125 -0.390625q0.0625 0 0.125 0q0.40625 0 0.625 -0.1875q0.21875 -0.203125 0.21875 -0.484375q0 -0.265625 -0.1875 -0.4375q-0.171875 -0.1875 -0.421875 -0.1875q-0.25 0 -0.453125 0.1875q-0.203125 0.1875 -0.265625 0.515625l-0.46875 -0.09375q0.125 -0.46875 0.4375 -0.71875q0.328125 -0.265625 0.78125 -0.265625q0.46875 0 0.75 0.28125q0.296875 0.28125 0.296875 0.703125q0 0.296875 -0.15625 0.53125q-0.15625 0.21875 -0.46875 0.359375q0.21875 0.140625 0.328125 0.328125q0.109375 0.1875 0.109375 0.421875q0 0.515625 -0.390625 0.890625q-0.375 0.375 -0.90625 0.375q-0.515625 0 -0.84375 -0.28125q-0.3125 -0.296875 -0.34375 -0.78125z" fill-rule="nonzero"/></g></svg>