<svg version="1.1" viewBox="0.0 0.0 173.04461942257217 124.35695538057743" fill="none" stroke="none" stroke-linecap="square" stroke-miterlimit="10" xmlns:xlink="http://www.w3.org/1999/xlink" xmlns="http://www.w3.org/2000/svg"><clipPath id="p.0"><path d="m0 0l173.04462 0l0 124.35696l-173.04462 0l0 -124.35696z" clip-rule="nonzero"/></clipPath><g clip-path="url(#p.0)"><path fill="#000000" fill-opacity="0.0" d="m0 0l173.04462 0l0 124.35696l-173.04462 0z" fill-rule="evenodd"/><path fill="#000000" fill-opacity="0.0" d="m47.059055 22.722254l-0.34645844 97.13386" fill-rule="evenodd"/><path stroke="#000000" stroke-width="1.0" stroke-linejoin="round" stroke-linecap="butt" d="m47.059055 22.722254l-0.34645844 97.13386" fill-rule="evenodd"/><path fill="#000000" fill-opacity="0.0" d="m35.37664 33.692913l104.53544 0" fill-rule="evenodd"/><path stroke="#000000" stroke-width="1.0" stroke-linejoin="round" stroke-linecap="butt" d="m35.37664 33.692913l104.53544 0" fill-rule="evenodd"/><path fill="#000000" fill-opacity="0.0" d="m35.37664 48.60105l104.53544 0" fill-rule="evenodd"/><path stroke="#000000" stroke-width="1.0" stroke-linejoin="round" stroke-linecap="butt" d="m35.37664 48.60105l104.53544 0" fill-rule="evenodd"/><path fill="#000000" fill-opacity="0.0" d="m62.712597 22.722254l-0.34645462 97.13386" fill-rule="evenodd"/><path stroke="#000000" stroke-width="1.0" stroke-linejoin="round" stroke-linecap="butt" d="m62.712597 22.722254l-0.34645462 97.13386" fill-rule="evenodd"/><path fill="#000000" fill-opacity="0.0" d="m78.36614 22.401575l-0.34645844 97.13386" fill-rule="evenodd"/><path stroke="#000000" stroke-width="1.0" stroke-linejoin="round" stroke-linecap="butt" d="m78.36614 22.401575l-0.34645844 97.13386" fill-rule="evenodd"/><path fill="#000000" fill-opacity="0.0" d="m94.019684 22.401575l-0.34645844 97.13386" fill-rule="evenodd"/><path stroke="#000000" stroke-width="1.0" stroke-linejoin="round" stroke-linecap="butt" d="m94.019684 22.401575l-0.34645844 97.13386" fill-rule="evenodd"/><path fill="#000000" fill-opacity="0.0" d="m109.673225 22.401575l-0.3464508 97.13386" fill-rule="evenodd"/><path stroke="#000000" stroke-width="1.0" stroke-linejoin="round" stroke-linecap="butt" d="m109.673225 22.401575l-0.3464508 97.13386" fill-rule="evenodd"/><path fill="#000000" fill-opacity="0.0" d="m125.326775 22.401575l-0.34645844 97.13386" fill-rule="evenodd"/><path stroke="#000000" stroke-width="1.0" stroke-linejoin="round" stroke-linecap="butt" d="m125.326775 22.401575l-0.34645844 97.13386" fill-rule="evenodd"/><path fill="#000000" fill-opacity="0.0" d="m35.37664 62.595802l104.53544 0" fill-rule="evenodd"/><path stroke="#000000" stroke-width="1.0" stroke-linejoin="round" stroke-linecap="butt" d="m35.37664 62.595802l104.53544 0" fill-rule="evenodd"/><path fill="#000000" fill-opacity="0.0" d="m35.37664 77.50394l104.53544 0" fill-rule="evenodd"/><path stroke="#000000" stroke-width="1.0" stroke-linejoin="round" stroke-linecap="butt" d="m35.37664 77.50394l104.53544 0" fill-rule="evenodd"/><path fill="#000000" fill-opacity="0.0" d="m35.37664 91.49869l104.53544 0" fill-rule="evenodd"/><path stroke="#000000" stroke-width="1.0" stroke-linejoin="round" stroke-linecap="butt" d="m35.37664 91.49869l104.53544 0" fill-rule="evenodd"/><path fill="#000000" fill-opacity="0.0" d="m35.37664 106.40682l104.53544 0" fill-rule="evenodd"/><path stroke="#000000" stroke-width="1.0" stroke-linejoin="round" stroke-linecap="butt" d="m35.37664 106.40682l104.53544 0" fill-rule="evenodd"/><path fill="#000000" fill-opacity="0.0" d="m42.901573 13.139108l19.811024 0l0 29.070866l-19.811024 0z" fill-rule="evenodd"/><path fill="#38761d" d="m55.057823 29.819107l-1.109375 0l0 -4.140625q-0.59375 0.5625 -1.40625 0.828125l0 -0.984375q0.421875 -0.140625 0.921875 -0.53125q0.515625 -0.40625 0.703125 -0.921875l0.890625 0l0 5.75z" fill-rule="nonzero"/><path fill="#000000" fill-opacity="0.0" d="m58.55512 13.14042l19.811024 0l0 29.070866l-19.811024 0z" fill-rule="evenodd"/><path fill="#38761d" d="m71.60199 28.804794l0 1.015625l-3.84375 0q0.0625 -0.578125 0.375 -1.09375q0.3125 -0.515625 1.234375 -1.375q0.734375 -0.6875 0.90625 -0.9375q0.234375 -0.34375 0.234375 -0.671875q0 -0.375 -0.203125 -0.5625q-0.203125 -0.203125 -0.546875 -0.203125q-0.34375 0 -0.546875 0.21875q-0.203125 0.203125 -0.234375 0.671875l-1.09375 -0.109375q0.09375 -0.90625 0.609375 -1.296875q0.515625 -0.390625 1.296875 -0.390625q0.84375 0 1.328125 0.453125q0.484375 0.453125 0.484375 1.140625q0 0.390625 -0.140625 0.734375q-0.140625 0.34375 -0.4375 0.734375q-0.203125 0.25 -0.71875 0.734375q-0.515625 0.46875 -0.65625 0.625q-0.140625 0.15625 -0.21875 0.3125l2.171875 0z" fill-rule="nonzero"/><path fill="#000000" fill-opacity="0.0" d="m73.862206 13.139108l19.81102 0l0 29.070866l-19.81102 0z" fill-rule="evenodd"/><path fill="#38761d" d="m83.15908 28.303482l1.0625 -0.140625q0.0625 0.40625 0.28125 0.625q0.21875 0.21875 0.53125 0.21875q0.34375 0 0.578125 -0.25q0.234375 -0.265625 0.234375 -0.703125q0 -0.421875 -0.234375 -0.65625q-0.21875 -0.25 -0.53125 -0.25q-0.21875 0 -0.5 0.09375l0.109375 -0.90625q0.453125 0.015625 0.6875 -0.1875q0.234375 -0.203125 0.234375 -0.546875q0 -0.28125 -0.171875 -0.453125q-0.171875 -0.171875 -0.453125 -0.171875q-0.28125 0 -0.484375 0.203125q-0.203125 0.1875 -0.25 0.5625l-1.0 -0.171875q0.09375 -0.53125 0.3125 -0.828125q0.21875 -0.3125 0.59375 -0.484375q0.375 -0.1875 0.859375 -0.1875q0.796875 0 1.296875 0.515625q0.390625 0.421875 0.390625 0.953125q0 0.75 -0.8125 1.203125q0.484375 0.109375 0.78125 0.484375q0.296875 0.359375 0.296875 0.875q0 0.75 -0.5625 1.28125q-0.546875 0.53125 -1.359375 0.53125q-0.78125 0 -1.296875 -0.4375q-0.5 -0.453125 -0.59375 -1.171875z" fill-rule="nonzero"/><path fill="#000000" fill-opacity="0.0" d="m89.51575 13.14042l19.811028 0l0 29.070866l-19.811028 0z" fill-rule="evenodd"/><path fill="#38761d" d="m101.01575 29.82042l0 -1.15625l-2.34375 0l0 -0.953125l2.484375 -3.640625l0.921875 0l0 3.625l0.703125 0l0 0.96875l-0.703125 0l0 1.15625l-1.0625 0zm0 -2.125l0 -1.953125l-1.328125 1.953125l1.328125 0z" fill-rule="nonzero"/><path fill="#000000" fill-opacity="0.0" d="m105.51575 13.14042l19.811028 0l0 29.070866l-19.811028 0z" fill-rule="evenodd"/><path fill="#38761d" d="m114.87512 28.35167l1.09375 -0.125q0.046875 0.375 0.265625 0.59375q0.234375 0.21875 0.546875 0.21875q0.34375 0 0.578125 -0.28125q0.234375 -0.28125 0.234375 -0.84375q0 -0.53125 -0.234375 -0.78125q-0.234375 -0.265625 -0.609375 -0.265625q-0.484375 0 -0.859375 0.40625l-0.890625 -0.125l0.5625 -2.984375l2.90625 0l0 1.03125l-2.0625 0l-0.171875 0.96875q0.359375 -0.171875 0.75 -0.171875q0.71875 0 1.21875 0.53125q0.515625 0.53125 0.515625 1.375q0 0.703125 -0.40625 1.265625q-0.5625 0.75 -1.546875 0.75q-0.796875 0 -1.296875 -0.421875q-0.5 -0.421875 -0.59375 -1.140625z" fill-rule="nonzero"/><path fill="#000000" fill-opacity="0.0" d="m28.891077 27.590551l19.811022 0l0 29.070868l-19.811022 0z" fill-rule="evenodd"/><path fill="#0b5394" d="m41.047325 44.27055l-1.109375 0l0 -4.140625q-0.59375 0.5625 -1.40625 0.828125l0 -0.984375q0.421875 -0.140625 0.921875 -0.53125q0.515625 -0.40625 0.703125 -0.921875l0.890625 0l0 5.75z" fill-rule="nonzero"/><path fill="#000000" fill-opacity="0.0" d="m28.889763 41.06168l19.811024 0l0 29.070866l-19.811024 0z" fill-rule="evenodd"/><path fill="#0b5394" d="m41.936638 56.726055l0 1.015625l-3.84375 0q0.0625 -0.578125 0.375 -1.09375q0.3125 -0.515625 1.234375 -1.375q0.734375 -0.6875 0.90625 -0.9375q0.234375 -0.34375 0.234375 -0.671875q0 -0.375 -0.203125 -0.5625q-0.203125 -0.203125 -0.546875 -0.203125q-0.34375 0 -0.546875 0.21875q-0.203125 0.203125 -0.234375 0.671875l-1.09375 -0.109375q0.09375 -0.90625 0.609375 -1.296875q0.515625 -0.390625 1.296875 -0.390625q0.84375 0 1.328125 0.453125q0.484375 0.453125 0.484375 1.140625q0 0.390625 -0.140625 0.734375q-0.140625 0.34375 -0.4375 0.734375q-0.203125 0.25 -0.71875 0.734375q-0.515625 0.46875 -0.65625 0.625q-0.140625 0.15625 -0.21875 0.3125l2.171875 0z" fill-rule="nonzero"/><path fill="#000000" fill-opacity="0.0" d="m28.889763 55.514435l19.811024 0l0 29.07087l-19.811024 0z" fill-rule="evenodd"/><path fill="#0b5394" d="m38.186638 70.67881l1.0625 -0.140625q0.0625 0.40625 0.28125 0.625q0.21875 0.21875 0.53125 0.21875q0.34375 0 0.578125 -0.25q0.234375 -0.265625 0.234375 -0.703125q0 -0.421875 -0.234375 -0.65625q-0.21875 -0.25 -0.53125 -0.25q-0.21875 0 -0.5 0.09375l0.109375 -0.90625q0.453125 0.015625 0.6875 -0.1875q0.234375 -0.203125 0.234375 -0.546875q0 -0.28125 -0.171875 -0.453125q-0.171875 -0.171875 -0.453125 -0.171875q-0.28125 0 -0.484375 0.203125q-0.203125 0.1875 -0.25 0.5625l-1.0 -0.171875q0.09375 -0.53125 0.3125 -0.828125q0.21875 -0.3125 0.59375 -0.484375q0.375 -0.1875 0.859375 -0.1875q0.796875 0 1.296875 0.515625q0.390625 0.421875 0.390625 0.953125q0 0.75 -0.8125 1.203125q0.484375 0.109375 0.78125 0.484375q0.296875 0.359375 0.296875 0.875q0 0.75 -0.5625 1.28125q-0.546875 0.53125 -1.359375 0.53125q-0.78125 0 -1.296875 -0.4375q-0.5 -0.453125 -0.59375 -1.171875z" fill-rule="nonzero"/><path fill="#000000" fill-opacity="0.0" d="m28.889763 70.132545l19.811024 0l0 29.07087l-19.811024 0z" fill-rule="evenodd"/><path fill="#0b5394" d="m40.389763 86.812546l0 -1.15625l-2.34375 0l0 -0.953125l2.484375 -3.640625l0.921875 0l0 3.625l0.703125 0l0 0.96875l-0.703125 0l0 1.15625l-1.0625 0zm0 -2.125l0 -1.953125l-1.328125 1.953125l1.328125 0z" fill-rule="nonzero"/><path fill="#000000" fill-opacity="0.0" d="m28.889763 84.585304l19.811024 0l0 29.070862l-19.811024 0z" fill-rule="evenodd"/><path fill="#0b5394" d="m38.249138 99.796555l1.09375 -0.125q0.046875 0.375 0.265625 0.59375q0.234375 0.21875 0.546875 0.21875q0.34375 0 0.578125 -0.28125q0.234375 -0.28125 0.234375 -0.84375q0 -0.53125 -0.234375 -0.78125q-0.234375 -0.265625 -0.609375 -0.265625q-0.484375 0 -0.859375 0.40625l-0.890625 -0.125l0.5625 -2.984375l2.90625 0l0 1.03125l-2.0625 0l-0.171875 0.96875q0.359375 -0.171875 0.75 -0.171875q0.71875 0 1.21875 0.53125q0.515625 0.53125 0.515625 1.375q0 0.703125 -0.40625 1.265625q-0.5625 0.75 -1.546875 0.75q-0.796875 0 -1.296875 -0.421875q-0.5 -0.421875 -0.59375 -1.140625z" fill-rule="nonzero"/><path fill="#000000" fill-opacity="0.0" d="m42.901573 27.580053l19.811024 0l0 29.070864l-19.811024 0z" fill-rule="evenodd"/><path fill="#000000" d="m55.932823 43.588177l0 0.671875l-3.78125 0q-0.015625 -0.25 0.078125 -0.484375q0.140625 -0.390625 0.453125 -0.765625q0.328125 -0.375 0.921875 -0.875q0.9375 -0.765625 1.265625 -1.203125q0.328125 -0.453125 0.328125 -0.84375q0 -0.421875 -0.296875 -0.703125q-0.296875 -0.296875 -0.78125 -0.296875q-0.5 0 -0.8125 0.3125q-0.296875 0.296875 -0.3125 0.84375l-0.71875 -0.078125q0.078125 -0.8125 0.5625 -1.234375q0.484375 -0.421875 1.296875 -0.421875q0.828125 0 1.296875 0.453125q0.484375 0.453125 0.484375 1.140625q0 0.34375 -0.140625 0.671875q-0.140625 0.328125 -0.46875 0.703125q-0.3125 0.359375 -1.078125 1.0q-0.625 0.53125 -0.8125 0.71875q-0.171875 0.1875 -0.296875 0.390625l2.8125 0z" fill-rule="nonzero"/><path fill="#000000" fill-opacity="0.0" d="m58.38189 27.580053l19.811028 0l0 29.070864l-19.811028 0z" fill-rule="evenodd"/><path fill="#000000" d="m67.710014 41.431927q0 -1.015625 0.203125 -1.625q0.21875 -0.625 0.625 -0.953125q0.421875 -0.34375 1.046875 -0.34375q0.453125 0 0.796875 0.1875q0.359375 0.1875 0.578125 0.53125q0.234375 0.34375 0.359375 0.859375q0.125 0.5 0.125 1.34375q0 1.015625 -0.203125 1.640625q-0.203125 0.609375 -0.625 0.953125q-0.40625 0.328125 -1.03125 0.328125q-0.828125 0 -1.296875 -0.59375q-0.578125 -0.71875 -0.578125 -2.328125zm0.734375 0q0 1.40625 0.328125 1.875q0.328125 0.46875 0.8125 0.46875q0.484375 0 0.8125 -0.46875q0.328125 -0.46875 0.328125 -1.875q0 -1.40625 -0.328125 -1.875q-0.328125 -0.46875 -0.828125 -0.46875q-0.484375 0 -0.765625 0.40625q-0.359375 0.53125 -0.359375 1.9375z" fill-rule="nonzero"/><path fill="#000000" fill-opacity="0.0" d="m73.862206 27.590551l19.81102 0l0 29.070868l-19.81102 0z" fill-rule="evenodd"/><path fill="#000000" d="m85.84658 44.27055l-0.703125 0l0 -4.484375q-0.25 0.25 -0.671875 0.5q-0.40625 0.234375 -0.734375 0.34375l0 -0.671875q0.59375 -0.28125 1.03125 -0.671875q0.4375 -0.390625 0.625 -0.765625l0.453125 0l0 5.75z" fill-rule="nonzero"/><path fill="#000000" fill-opacity="0.0" d="m89.34252 27.590551l19.81102 0l0 29.070868l-19.81102 0z" fill-rule="evenodd"/><path fill="#000000" d="m98.67065 41.442425q0 -1.015625 0.203125 -1.625q0.21875 -0.625 0.625 -0.953125q0.421875 -0.34375 1.046875 -0.34375q0.453125 0 0.796875 0.1875q0.359375 0.1875 0.578125 0.53125q0.234375 0.34375 0.359375 0.859375q0.125 0.5 0.125 1.34375q0 1.015625 -0.203125 1.640625q-0.203125 0.609375 -0.625 0.953125q-0.40625 0.328125 -1.03125 0.328125q-0.828125 0 -1.296875 -0.59375q-0.578125 -0.71875 -0.578125 -2.328125zm0.734375 0q0 1.40625 0.328125 1.875q0.328125 0.46875 0.8125 0.46875q0.484375 0 0.8125 -0.46875q0.328125 -0.46875 0.328125 -1.875q0 -1.40625 -0.328125 -1.875q-0.328125 -0.46875 -0.828125 -0.46875q-0.484375 0 -0.765625 0.40625q-0.359375 0.53125 -0.359375 1.9375z" fill-rule="nonzero"/><path fill="#000000" fill-opacity="0.0" d="m104.82284 27.590551l19.81102 0l0 29.070868l-19.81102 0z" fill-rule="evenodd"/><path fill="#000000" d="m114.15096 41.442425q0 -1.015625 0.203125 -1.625q0.21875 -0.625 0.625 -0.953125q0.421875 -0.34375 1.046875 -0.34375q0.453125 0 0.796875 0.1875q0.359375 0.1875 0.578125 0.53125q0.234375 0.34375 0.359375 0.859375q0.125 0.5 0.125 1.34375q0 1.015625 -0.203125 1.640625q-0.203125 0.609375 -0.625 0.953125q-0.40625 0.328125 -1.03125 0.328125q-0.828125 0 -1.296875 -0.59375q-0.578125 -0.71875 -0.578125 -2.328125zm0.734375 0q0 1.40625 0.328125 1.875q0.328125 0.46875 0.8125 0.46875q0.484375 0 0.8125 -0.46875q0.328125 -0.46875 0.328125 -1.875q0 -1.40625 -0.328125 -1.875q-0.328125 -0.46875 -0.828125 -0.46875q-0.484375 0 -0.765625 0.40625q-0.359375 0.53125 -0.359375 1.9375z" fill-rule="nonzero"/><path fill="#000000" fill-opacity="0.0" d="m42.901573 41.057743l19.811024 0l0 29.070866l-19.811024 0z" fill-rule="evenodd"/><path fill="#000000" d="m52.2297 54.90962q0 -1.015625 0.203125 -1.625q0.21875 -0.625 0.625 -0.953125q0.421875 -0.34375 1.046875 -0.34375q0.453125 0 0.796875 0.1875q0.359375 0.1875 0.578125 0.53125q0.234375 0.34375 0.359375 0.859375q0.125 0.5 0.125 1.34375q0 1.015625 -0.203125 1.640625q-0.203125 0.609375 -0.625 0.953125q-0.40625 0.328125 -1.03125 0.328125q-0.828125 0 -1.296875 -0.59375q-0.578125 -0.71875 -0.578125 -2.328125zm0.734375 0q0 1.40625 0.328125 1.875q0.328125 0.46875 0.8125 0.46875q0.484375 0 0.8125 -0.46875q0.328125 -0.46875 0.328125 -1.875q0 -1.40625 -0.328125 -1.875q-0.328125 -0.46875 -0.828125 -0.46875q-0.484375 0 -0.765625 0.40625q-0.359375 0.53125 -0.359375 1.9375z" fill-rule="nonzero"/><path fill="#000000" fill-opacity="0.0" d="m58.38189 41.057743l19.811028 0l0 29.070866l-19.811028 0z" fill-rule="evenodd"/><path fill="#000000" d="m70.366264 57.737743l-0.703125 0l0 -4.484375q-0.25 0.25 -0.671875 0.5q-0.40625 0.234375 -0.734375 0.34375l0 -0.671875q0.59375 -0.28125 1.03125 -0.671875q0.4375 -0.390625 0.625 -0.765625l0.453125 0l0 5.75z" fill-rule="nonzero"/><path fill="#000000" fill-opacity="0.0" d="m73.862206 41.06824l19.81102 0l0 29.070866l-19.81102 0z" fill-rule="evenodd"/><path fill="#000000" d="m83.19033 54.920116q0 -1.015625 0.203125 -1.625q0.21875 -0.625 0.625 -0.953125q0.421875 -0.34375 1.046875 -0.34375q0.453125 0 0.796875 0.1875q0.359375 0.1875 0.578125 0.53125q0.234375 0.34375 0.359375 0.859375q0.125 0.5 0.125 1.34375q0 1.015625 -0.203125 1.640625q-0.203125 0.609375 -0.625 0.953125q-0.40625 0.328125 -1.03125 0.328125q-0.828125 0 -1.296875 -0.59375q-0.578125 -0.71875 -0.578125 -2.328125zm0.734375 0q0 1.40625 0.328125 1.875q0.328125 0.46875 0.8125 0.46875q0.484375 0 0.8125 -0.46875q0.328125 -0.46875 0.328125 -1.875q0 -1.40625 -0.328125 -1.875q-0.328125 -0.46875 -0.828125 -0.46875q-0.484375 0 -0.765625 0.40625q-0.359375 0.53125 -0.359375 1.9375z" fill-rule="nonzero"/><path fill="#000000" fill-opacity="0.0" d="m89.34252 41.06824l19.81102 0l0 29.070866l-19.81102 0z" fill-rule="evenodd"/><path fill="#000000" d="m98.67065 54.920116q0 -1.015625 0.203125 -1.625q0.21875 -0.625 0.625 -0.953125q0.421875 -0.34375 1.046875 -0.34375q0.453125 0 0.796875 0.1875q0.359375 0.1875 0.578125 0.53125q0.234375 0.34375 0.359375 0.859375q0.125 0.5 0.125 1.34375q0 1.015625 -0.203125 1.640625q-0.203125 0.609375 -0.625 0.953125q-0.40625 0.328125 -1.03125 0.328125q-0.828125 0 -1.296875 -0.59375q-0.578125 -0.71875 -0.578125 -2.328125zm0.734375 0q0 1.40625 0.328125 1.875q0.328125 0.46875 0.8125 0.46875q0.484375 0 0.8125 -0.46875q0.328125 -0.46875 0.328125 -1.875q0 -1.40625 -0.328125 -1.875q-0.328125 -0.46875 -0.828125 -0.46875q-0.484375 0 -0.765625 0.40625q-0.359375 0.53125 -0.359375 1.9375z" fill-rule="nonzero"/><path fill="#000000" fill-opacity="0.0" d="m104.82284 41.06824l19.81102 0l0 29.070866l-19.81102 0z" fill-rule="evenodd"/><path fill="#000000" d="m114.15096 54.920116q0 -1.015625 0.203125 -1.625q0.21875 -0.625 0.625 -0.953125q0.421875 -0.34375 1.046875 -0.34375q0.453125 0 0.796875 0.1875q0.359375 0.1875 0.578125 0.53125q0.234375 0.34375 0.359375 0.859375q0.125 0.5 0.125 1.34375q0 1.015625 -0.203125 1.640625q-0.203125 0.609375 -0.625 0.953125q-0.40625 0.328125 -1.03125 0.328125q-0.828125 0 -1.296875 -0.59375q-0.578125 -0.71875 -0.578125 -2.328125zm0.734375 0q0 1.40625 0.328125 1.875q0.328125 0.46875 0.8125 0.46875q0.484375 0 0.8125 -0.46875q0.328125 -0.46875 0.328125 -1.875q0 -1.40625 -0.328125 -1.875q-0.328125 -0.46875 -0.828125 -0.46875q-0.484375 0 -0.765625 0.40625q-0.359375 0.53125 -0.359375 1.9375z" fill-rule="nonzero"/><path fill="#000000" fill-opacity="0.0" d="m42.901573 55.509186l19.811024 0l0 29.07087l-19.811024 0z" fill-rule="evenodd"/><path fill="#000000" d="m52.2297 69.36106q0 -1.015625 0.203125 -1.625q0.21875 -0.625 0.625 -0.953125q0.421875 -0.34375 1.046875 -0.34375q0.453125 0 0.796875 0.1875q0.359375 0.1875 0.578125 0.53125q0.234375 0.34375 0.359375 0.859375q0.125 0.5 0.125 1.34375q0 1.015625 -0.203125 1.640625q-0.203125 0.609375 -0.625 0.953125q-0.40625 0.328125 -1.03125 0.328125q-0.828125 0 -1.296875 -0.59375q-0.578125 -0.71875 -0.578125 -2.328125zm0.734375 0q0 1.40625 0.328125 1.875q0.328125 0.46875 0.8125 0.46875q0.484375 0 0.8125 -0.46875q0.328125 -0.46875 0.328125 -1.875q0 -1.40625 -0.328125 -1.875q-0.328125 -0.46875 -0.828125 -0.46875q-0.484375 0 -0.765625 0.40625q-0.359375 0.53125 -0.359375 1.9375z" fill-rule="nonzero"/><path fill="#000000" fill-opacity="0.0" d="m58.38189 55.509186l19.811028 0l0 29.07087l-19.811028 0z" fill-rule="evenodd"/><path fill="#000000" d="m67.710014 69.36106q0 -1.015625 0.203125 -1.625q0.21875 -0.625 0.625 -0.953125q0.421875 -0.34375 1.046875 -0.34375q0.453125 0 0.796875 0.1875q0.359375 0.1875 0.578125 0.53125q0.234375 0.34375 0.359375 0.859375q0.125 0.5 0.125 1.34375q0 1.015625 -0.203125 1.640625q-0.203125 0.609375 -0.625 0.953125q-0.40625 0.328125 -1.03125 0.328125q-0.828125 0 -1.296875 -0.59375q-0.578125 -0.71875 -0.578125 -2.328125zm0.734375 0q0 1.40625 0.328125 1.875q0.328125 0.46875 0.8125 0.46875q0.484375 0 0.8125 -0.46875q0.328125 -0.46875 0.328125 -1.875q0 -1.40625 -0.328125 -1.875q-0.328125 -0.46875 -0.828125 -0.46875q-0.484375 0 -0.765625 0.40625q-0.359375 0.53125 -0.359375 1.9375z" fill-rule="nonzero"/><path fill="#000000" fill-opacity="0.0" d="m73.862206 55.519684l19.81102 0l0 29.07087l-19.81102 0z" fill-rule="evenodd"/><path fill="#000000" d="m86.893456 71.52781l0 0.671875l-3.78125 0q-0.015625 -0.25 0.078125 -0.484375q0.140625 -0.390625 0.453125 -0.765625q0.328125 -0.375 0.921875 -0.875q0.9375 -0.765625 1.265625 -1.203125q0.328125 -0.453125 0.328125 -0.84375q0 -0.421875 -0.296875 -0.703125q-0.296875 -0.296875 -0.78125 -0.296875q-0.5 0 -0.8125 0.3125q-0.296875 0.296875 -0.3125 0.84375l-0.71875 -0.078125q0.078125 -0.8125 0.5625 -1.234375q0.484375 -0.421875 1.296875 -0.421875q0.828125 0 1.296875 0.453125q0.484375 0.453125 0.484375 1.140625q0 0.34375 -0.140625 0.671875q-0.140625 0.328125 -0.46875 0.703125q-0.3125 0.359375 -1.078125 1.0q-0.625 0.53125 -0.8125 0.71875q-0.171875 0.1875 -0.296875 0.390625l2.8125 0z" fill-rule="nonzero"/><path fill="#000000" fill-opacity="0.0" d="m89.34252 55.519684l19.81102 0l0 29.07087l-19.81102 0z" fill-rule="evenodd"/><path fill="#000000" d="m98.67065 69.37156q0 -1.015625 0.203125 -1.625q0.21875 -0.625 0.625 -0.953125q0.421875 -0.34375 1.046875 -0.34375q0.453125 0 0.796875 0.1875q0.359375 0.1875 0.578125 0.53125q0.234375 0.34375 0.359375 0.859375q0.125 0.5 0.125 1.34375q0 1.015625 -0.203125 1.640625q-0.203125 0.609375 -0.625 0.953125q-0.40625 0.328125 -1.03125 0.328125q-0.828125 0 -1.296875 -0.59375q-0.578125 -0.71875 -0.578125 -2.328125zm0.734375 0q0 1.40625 0.328125 1.875q0.328125 0.46875 0.8125 0.46875q0.484375 0 0.8125 -0.46875q0.328125 -0.46875 0.328125 -1.875q0 -1.40625 -0.328125 -1.875q-0.328125 -0.46875 -0.828125 -0.46875q-0.484375 0 -0.765625 0.40625q-0.359375 0.53125 -0.359375 1.9375z" fill-rule="nonzero"/><path fill="#000000" fill-opacity="0.0" d="m104.82284 55.519684l19.81102 0l0 29.07087l-19.81102 0z" fill-rule="evenodd"/><path fill="#000000" d="m114.15096 69.37156q0 -1.015625 0.203125 -1.625q0.21875 -0.625 0.625 -0.953125q0.421875 -0.34375 1.046875 -0.34375q0.453125 0 0.796875 0.1875q0.359375 0.1875 0.578125 0.53125q0.234375 0.34375 0.359375 0.859375q0.125 0.5 0.125 1.34375q0 1.015625 -0.203125 1.640625q-0.203125 0.609375 -0.625 0.953125q-0.40625 0.328125 -1.03125 0.328125q-0.828125 0 -1.296875 -0.59375q-0.578125 -0.71875 -0.578125 -2.328125zm0.734375 0q0 1.40625 0.328125 1.875q0.328125 0.46875 0.8125 0.46875q0.484375 0 0.8125 -0.46875q0.328125 -0.46875 0.328125 -1.875q0 -1.40625 -0.328125 -1.875q-0.328125 -0.46875 -0.828125 -0.46875q-0.484375 0 -0.765625 0.40625q-0.359375 0.53125 -0.359375 1.9375z" fill-rule="nonzero"/><path fill="#000000" fill-opacity="0.0" d="m42.901573 69.96063l19.811024 0l0 29.070862l-19.811024 0z" fill-rule="evenodd"/><path fill="#000000" d="m52.2297 83.81251q0 -1.015625 0.203125 -1.625q0.21875 -0.625 0.625 -0.953125q0.421875 -0.34375 1.046875 -0.34375q0.453125 0 0.796875 0.1875q0.359375 0.1875 0.578125 0.53125q0.234375 0.34375 0.359375 0.859375q0.125 0.5 0.125 1.34375q0 1.015625 -0.203125 1.640625q-0.203125 0.609375 -0.625 0.953125q-0.40625 0.328125 -1.03125 0.328125q-0.828125 0 -1.296875 -0.59375q-0.578125 -0.71875 -0.578125 -2.328125zm0.734375 0q0 1.40625 0.328125 1.875q0.328125 0.46875 0.8125 0.46875q0.484375 0 0.8125 -0.46875q0.328125 -0.46875 0.328125 -1.875q0 -1.40625 -0.328125 -1.875q-0.328125 -0.46875 -0.828125 -0.46875q-0.484375 0 -0.765625 0.40625q-0.359375 0.53125 -0.359375 1.9375z" fill-rule="nonzero"/><path fill="#000000" fill-opacity="0.0" d="m58.38189 69.96063l19.811028 0l0 29.070862l-19.811028 0z" fill-rule="evenodd"/><path fill="#000000" d="m67.710014 83.81251q0 -1.015625 0.203125 -1.625q0.21875 -0.625 0.625 -0.953125q0.421875 -0.34375 1.046875 -0.34375q0.453125 0 0.796875 0.1875q0.359375 0.1875 0.578125 0.53125q0.234375 0.34375 0.359375 0.859375q0.125 0.5 0.125 1.34375q0 1.015625 -0.203125 1.640625q-0.203125 0.609375 -0.625 0.953125q-0.40625 0.328125 -1.03125 0.328125q-0.828125 0 -1.296875 -0.59375q-0.578125 -0.71875 -0.578125 -2.328125zm0.734375 0q0 1.40625 0.328125 1.875q0.328125 0.46875 0.8125 0.46875q0.484375 0 0.8125 -0.46875q0.328125 -0.46875 0.328125 -1.875q0 -1.40625 -0.328125 -1.875q-0.328125 -0.46875 -0.828125 -0.46875q-0.484375 0 -0.765625 0.40625q-0.359375 0.53125 -0.359375 1.9375z" fill-rule="nonzero"/><path fill="#000000" fill-opacity="0.0" d="m73.862206 69.97113l19.81102 0l0 29.070862l-19.81102 0z" fill-rule="evenodd"/><path fill="#000000" d="m83.19033 83.823006q0 -1.015625 0.203125 -1.625q0.21875 -0.625 0.625 -0.953125q0.421875 -0.34375 1.046875 -0.34375q0.453125 0 0.796875 0.1875q0.359375 0.1875 0.578125 0.53125q0.234375 0.34375 0.359375 0.859375q0.125 0.5 0.125 1.34375q0 1.015625 -0.203125 1.640625q-0.203125 0.609375 -0.625 0.953125q-0.40625 0.328125 -1.03125 0.328125q-0.828125 0 -1.296875 -0.59375q-0.578125 -0.71875 -0.578125 -2.328125zm0.734375 0q0 1.40625 0.328125 1.875q0.328125 0.46875 0.8125 0.46875q0.484375 0 0.8125 -0.46875q0.328125 -0.46875 0.328125 -1.875q0 -1.40625 -0.328125 -1.875q-0.328125 -0.46875 -0.828125 -0.46875q-0.484375 0 -0.765625 0.40625q-0.359375 0.53125 -0.359375 1.9375z" fill-rule="nonzero"/><path fill="#000000" fill-opacity="0.0" d="m89.34252 69.97113l19.81102 0l0 29.070862l-19.81102 0z" fill-rule="evenodd"/><path fill="#000000" d="m102.37377 85.979256l0 0.671875l-3.78125 0q-0.015625 -0.25 0.078125 -0.484375q0.140625 -0.390625 0.453125 -0.765625q0.328125 -0.375 0.921875 -0.875q0.9375 -0.765625 1.265625 -1.203125q0.328125 -0.453125 0.328125 -0.84375q0 -0.421875 -0.296875 -0.703125q-0.296875 -0.296875 -0.78125 -0.296875q-0.5 0 -0.8125 0.3125q-0.296875 0.296875 -0.3125 0.84375l-0.71875 -0.078125q0.078125 -0.8125 0.5625 -1.234375q0.484375 -0.421875 1.296875 -0.421875q0.828125 0 1.296875 0.453125q0.484375 0.453125 0.484375 1.140625q0 0.34375 -0.140625 0.671875q-0.140625 0.328125 -0.46875 0.703125q-0.3125 0.359375 -1.078125 1.0q-0.625 0.53125 -0.8125 0.71875q-0.171875 0.1875 -0.296875 0.390625l2.8125 0z" fill-rule="nonzero"/><path fill="#000000" fill-opacity="0.0" d="m104.82284 69.97113l19.81102 0l0 29.070862l-19.81102 0z" fill-rule="evenodd"/><path fill="#000000" d="m114.15096 83.823006q0 -1.015625 0.203125 -1.625q0.21875 -0.625 0.625 -0.953125q0.421875 -0.34375 1.046875 -0.34375q0.453125 0 0.796875 0.1875q0.359375 0.1875 0.578125 0.53125q0.234375 0.34375 0.359375 0.859375q0.125 0.5 0.125 1.34375q0 1.015625 -0.203125 1.640625q-0.203125 0.609375 -0.625 0.953125q-0.40625 0.328125 -1.03125 0.328125q-0.828125 0 -1.296875 -0.59375q-0.578125 -0.71875 -0.578125 -2.328125zm0.734375 0q0 1.40625 0.328125 1.875q0.328125 0.46875 0.8125 0.46875q0.484375 0 0.8125 -0.46875q0.328125 -0.46875 0.328125 -1.875q0 -1.40625 -0.328125 -1.875q-0.328125 -0.46875 -0.828125 -0.46875q-0.484375 0 -0.765625 0.40625q-0.359375 0.53125 -0.359375 1.9375z" fill-rule="nonzero"/><path fill="#000000" fill-opacity="0.0" d="m42.901573 84.86877l19.811024 0l0 29.07087l-19.811024 0z" fill-rule="evenodd"/><path fill="#000000" d="m52.2297 98.72064q0 -1.015625 0.203125 -1.625q0.21875 -0.625 0.625 -0.953125q0.421875 -0.34375 1.046875 -0.34375q0.453125 0 0.796875 0.1875q0.359375 0.1875 0.578125 0.53125q0.234375 0.34375 0.359375 0.859375q0.125 0.5 0.125 1.34375q0 1.015625 -0.203125 1.640625q-0.203125 0.609375 -0.625 0.953125q-0.40625 0.328125 -1.03125 0.328125q-0.828125 0 -1.296875 -0.59375q-0.578125 -0.71875 -0.578125 -2.328125zm0.734375 0q0 1.40625 0.328125 1.875q0.328125 0.46875 0.8125 0.46875q0.484375 0 0.8125 -0.46875q0.328125 -0.46875 0.328125 -1.875q0 -1.40625 -0.328125 -1.875q-0.328125 -0.46875 -0.828125 -0.46875q-0.484375 0 -0.765625 0.40625q-0.359375 0.53125 -0.359375 1.9375z" fill-rule="nonzero"/><path fill="#000000" fill-opacity="0.0" d="m58.38189 84.86877l19.811028 0l0 29.07087l-19.811028 0z" fill-rule="evenodd"/><path fill="#000000" d="m67.710014 98.72064q0 -1.015625 0.203125 -1.625q0.21875 -0.625 0.625 -0.953125q0.421875 -0.34375 1.046875 -0.34375q0.453125 0 0.796875 0.1875q0.359375 0.1875 0.578125 0.53125q0.234375 0.34375 0.359375 0.859375q0.125 0.5 0.125 1.34375q0 1.015625 -0.203125 1.640625q-0.203125 0.609375 -0.625 0.953125q-0.40625 0.328125 -1.03125 0.328125q-0.828125 0 -1.296875 -0.59375q-0.578125 -0.71875 -0.578125 -2.328125zm0.734375 0q0 1.40625 0.328125 1.875q0.328125 0.46875 0.8125 0.46875q0.484375 0 0.8125 -0.46875q0.328125 -0.46875 0.328125 -1.875q0 -1.40625 -0.328125 -1.875q-0.328125 -0.46875 -0.828125 -0.46875q-0.484375 0 -0.765625 0.40625q-0.359375 0.53125 -0.359375 1.9375z" fill-rule="nonzero"/><path fill="#000000" fill-opacity="0.0" d="m73.862206 84.879265l19.81102 0l0 29.07087l-19.81102 0z" fill-rule="evenodd"/><path fill="#000000" d="m83.19033 98.73114q0 -1.015625 0.203125 -1.625q0.21875 -0.625 0.625 -0.953125q0.421875 -0.34375 1.046875 -0.34375q0.453125 0 0.796875 0.1875q0.359375 0.1875 0.578125 0.53125q0.234375 0.34375 0.359375 0.859375q0.125 0.5 0.125 1.34375q0 1.015625 -0.203125 1.640625q-0.203125 0.609375 -0.625 0.953125q-0.40625 0.328125 -1.03125 0.328125q-0.828125 0 -1.296875 -0.59375q-0.578125 -0.71875 -0.578125 -2.328125zm0.734375 0q0 1.40625 0.328125 1.875q0.328125 0.46875 0.8125 0.46875q0.484375 0 0.8125 -0.46875q0.328125 -0.46875 0.328125 -1.875q0 -1.40625 -0.328125 -1.875q-0.328125 -0.46875 -0.828125 -0.46875q-0.484375 0 -0.765625 0.40625q-0.359375 0.53125 -0.359375 1.9375z" fill-rule="nonzero"/><path fill="#000000" fill-opacity="0.0" d="m89.34252 84.879265l19.81102 0l0 29.07087l-19.81102 0z" fill-rule="evenodd"/><path fill="#000000" d="m102.37377 100.88739l0 0.671875l-3.78125 0q-0.015625 -0.25 0.078125 -0.484375q0.140625 -0.390625 0.453125 -0.765625q0.328125 -0.375 0.921875 -0.875q0.9375 -0.765625 1.265625 -1.203125q0.328125 -0.453125 0.328125 -0.84375q0 -0.421875 -0.296875 -0.703125q-0.296875 -0.296875 -0.78125 -0.296875q-0.5 0 -0.8125 0.3125q-0.296875 0.296875 -0.3125 0.84375l-0.71875 -0.078125q0.078125 -0.8125 0.5625 -1.234375q0.484375 -0.421875 1.296875 -0.421875q0.828125 0 1.296875 0.453125q0.484375 0.453125 0.484375 1.140625q0 0.34375 -0.140625 0.671875q-0.140625 0.328125 -0.46875 0.703125q-0.3125 0.359375 -1.078125 1.0q-0.625 0.53125 -0.8125 0.71875q-0.171875 0.1875 -0.296875 0.390625l2.8125 0z" fill-rule="nonzero"/><path fill="#000000" fill-opacity="0.0" d="m104.82284 84.879265l19.81102 0l0 29.07087l-19.81102 0z" fill-rule="evenodd"/><path fill="#000000" d="m114.16659 100.04364l0.703125 -0.09375q0.109375 0.59375 0.40625 0.859375q0.296875 0.265625 0.703125 0.265625q0.5 0 0.84375 -0.34375q0.34375 -0.34375 0.34375 -0.84375q0 -0.484375 -0.328125 -0.796875q-0.3125 -0.328125 -0.796875 -0.328125q-0.203125 0 -0.5 0.078125l0.078125 -0.609375q0.078125 0 0.125 0q0.4375 0 0.796875 -0.234375q0.359375 -0.234375 0.359375 -0.71875q0 -0.390625 -0.265625 -0.640625q-0.25 -0.25 -0.671875 -0.25q-0.40625 0 -0.6875 0.265625q-0.265625 0.25 -0.34375 0.765625l-0.703125 -0.125q0.125 -0.703125 0.578125 -1.09375q0.46875 -0.390625 1.140625 -0.390625q0.46875 0 0.859375 0.203125q0.40625 0.203125 0.609375 0.546875q0.21875 0.34375 0.21875 0.734375q0 0.375 -0.203125 0.6875q-0.203125 0.296875 -0.59375 0.46875q0.515625 0.125 0.796875 0.5q0.28125 0.359375 0.28125 0.921875q0 0.75 -0.546875 1.28125q-0.546875 0.515625 -1.390625 0.515625q-0.75 0 -1.25 -0.453125q-0.5 -0.453125 -0.5625 -1.171875z" fill-rule="nonzero"/><path fill="#000000" fill-opacity="0.0" d="m64.808395 -8.818897l38.614174 0l0 51.716534l-38.614174 0z" fill-rule="evenodd"/><path fill="#38761d" d="m77.43558 12.981102l0 -9.546875l3.09375 0q1.75 0 2.296875 0.15625q0.8125 0.203125 1.359375 0.921875q0.5625 0.71875 0.5625 1.859375q0 0.875 -0.328125 1.484375q-0.3125 0.5937505 -0.8125 0.9375005q-0.484375 0.34375 -0.984375 0.453125q-0.703125 0.140625 -2.0 0.140625l-1.265625 0l0 3.59375l-1.921875 0zm1.921875 -7.9218755l0 2.703125l1.0625 0q1.140625 0 1.515625 -0.140625q0.390625 -0.15625 0.609375 -0.46875q0.21875 -0.328125 0.21875 -0.75q0 -0.515625 -0.3125 -0.859375q-0.296875 -0.34375 -0.765625 -0.421875q-0.34375 -0.0625 -1.390625 -0.0625l-0.9375 0z" fill-rule="nonzero"/><path fill="#38761d" d="m91.82533 13.871727q0 0.75 -0.328125 1.53125q-0.3125 0.765625 -0.84375 1.375q-0.515625 0.59375 -1.25 0.984375q-0.734375 0.375 -1.515625 0.375q-0.953125 0 -1.625 -0.59375q-0.671875 -0.609375 -0.671875 -1.578125q0 -0.765625 0.296875 -1.546875q0.3125 -0.796875 0.8125 -1.421875q0.515625 -0.640625 1.25 -1.03125q0.75 -0.40625 1.5625 -0.40625q1.03125 0 1.671875 0.640625q0.640625 0.625 0.640625 1.671875zm-1.609375 -0.734375q0 -0.421875 -0.1875 -0.671875q-0.1875 -0.265625 -0.578125 -0.265625q-0.3125 0 -0.640625 0.234375q-0.3125 0.234375 -0.546875 0.625q-0.21875 0.390625 -0.375 0.75q-0.15625 0.359375 -0.203125 0.515625l2.359375 0q0.171875 -0.671875 0.171875 -1.1875zm-0.375 1.921875l-2.390625 0q-0.234375 0.875 -0.234375 1.421875q0 1.015625 0.75 1.015625q0.34375 0 0.671875 -0.265625q0.328125 -0.265625 0.578125 -0.71875q0.25 -0.46875 0.40625 -0.859375q0.171875 -0.40625 0.21875 -0.59375z" fill-rule="nonzero"/><path fill="#000000" fill-opacity="0.0" d="m7.10499 50.367455l34.645668 0l0 35.55905l-34.645668 0z" fill-rule="evenodd"/><path fill="#0b5394" d="m17.07374 72.16745l0 -9.546871l3.09375 0q1.75 0 2.296875 0.15625q0.8125 0.203125 1.359375 0.921875q0.5625 0.7187462 0.5625 1.8593712q0 0.875 -0.328125 1.484375q-0.3125 0.59375 -0.8125 0.9375q-0.484375 0.34375 -0.984375 0.453125q-0.703125 0.140625 -2.0 0.140625l-1.265625 0l0 3.59375l-1.921875 0zm1.921875 -7.921875l0 2.703125l1.0625 0q1.140625 0 1.515625 -0.140625q0.390625 -0.15625 0.609375 -0.46875q0.21875 -0.328125 0.21875 -0.75q0 -0.515625 -0.3125 -0.859375q-0.296875 -0.34375 -0.765625 -0.421875q-0.34375 -0.0625 -1.390625 -0.0625l-0.9375 0z" fill-rule="nonzero"/><path fill="#0b5394" d="m26.79162 77.16745l-1.21875 0l0 -4.609375l1.140625 0l0 0.65625q0.28125 -0.453125 0.515625 -0.59375q0.234375 -0.15625 0.53125 -0.15625q0.421875 0 0.796875 0.234375l-0.375 1.046875q-0.3125 -0.1875 -0.5625 -0.1875q-0.265625 0 -0.453125 0.140625q-0.171875 0.140625 -0.28125 0.515625q-0.09375 0.359375 -0.09375 1.53125l0 1.421875z" fill-rule="nonzero"/><path fill="#000000" fill-opacity="0.0" d="m40.081364 102.60105l32.440945 0l0 25.858269l-32.440945 0z" fill-rule="evenodd"/><path fill="#38761d" d="m49.393864 116.72105q0.078125 -0.34375 0.203125 -0.5625q0.125 -0.234375 0.328125 -0.4375q0.21875 -0.21875 0.828125 -0.703125q0.375 -0.296875 0.515625 -0.4375q0.1875 -0.203125 0.28125 -0.390625q0.0625 -0.140625 0.0625 -0.296875q0 -0.25 -0.1875 -0.4375q-0.1875 -0.1875 -0.453125 -0.1875q-0.28125 0 -0.484375 0.1875q-0.1875 0.1875 -0.28125 0.59375l-0.453125 -0.0625q0.0625 -0.515625 0.390625 -0.796875q0.328125 -0.296875 0.8125 -0.296875q0.328125 0 0.59375 0.140625q0.265625 0.125 0.390625 0.375q0.140625 0.25 0.140625 0.5q0 0.375 -0.28125 0.734375q-0.15625 0.21875 -0.96875 0.859375q-0.359375 0.28125 -0.53125 0.453125q-0.15625 0.171875 -0.25 0.328125l1.703125 0l-0.078125 0.4375l-2.28125 0zm2.3851318 0.0625l2.046875 -3.9375l0.40625 0l-2.046875 3.9375l-0.40625 0zm3.0272064 -0.0625l0.609375 -2.875q-0.390625 0.296875 -1.109375 0.484375l0.09375 -0.421875q0.359375 -0.140625 0.6875 -0.359375q0.34375 -0.234375 0.515625 -0.40625q0.109375 -0.109375 0.203125 -0.25l0.28125 0l-0.8125 3.828125l-0.46875 0zm1.9788818 -1.0l0.453125 -0.0625q0.046875 0.40625 0.21875 0.578125q0.1875 0.171875 0.484375 0.171875q0.34375 0 0.59375 -0.25q0.25 -0.25 0.25 -0.5625q0 -0.28125 -0.1875 -0.46875q-0.1875 -0.1875 -0.5 -0.1875q-0.046875 0 -0.15625 0.015625l0.078125 -0.390625q0.0625 0 0.125 0q0.40625 0 0.625 -0.1875q0.21875 -0.203125 0.21875 -0.484375q0 -0.265625 -0.1875 -0.4375q-0.171875 -0.1875 -0.421875 -0.1875q-0.25 0 -0.453125 0.1875q-0.203125 0.1875 -0.265625 0.515625l-0.46875 -0.09375q0.125 -0.46875 0.4375 -0.71875q0.328125 -0.265625 0.78125 -0.265625q0.46875 0 0.75 0.28125q0.296875 0.28125 0.296875 0.703125q0 0.296875 -0.15625 0.53125q-0.15625 0.21875 -0.46875 0.359375q0.21875 0.140625 0.328125 0.328125q0.109375 0.1875 0.109375 0.421875q0 0.515625 -0.390625 0.890625q-0.375 0.375 -0.90625 0.375q-0.515625 0 -0.84375 -0.28125q-0.3125 -0.296875 -0.34375 -0.78125z" fill-rule="nonzero"/><path fill="#000000" fill-opacity="0.0" d="m15.267716 99.20998l38.614174 0l0 29.070862l-38.614174 0z" fill-rule="evenodd"/><path fill="#38761d" d="m24.18959 117.48373l1.203125 -5.75l0.640625 0l-0.109375 0.578125q0.359375 -0.375 0.640625 -0.515625q0.296875 -0.15625 0.609375 -0.15625q0.59375 0 0.984375 0.4375q0.390625 0.4375 0.390625 1.234375q0 0.65625 -0.21875 1.1875q-0.203125 0.53125 -0.515625 0.859375q-0.3125 0.3125 -0.640625 0.46875q-0.3125 0.15625 -0.65625 0.15625q-0.75 0 -1.15625 -0.765625l-0.46875 2.265625l-0.703125 0zm1.390625 -3.296875q0 0.46875 0.078125 0.65625q0.09375 0.25 0.3125 0.40625q0.21875 0.15625 0.515625 0.15625q0.609375 0 0.984375 -0.6875q0.375 -0.6875 0.375 -1.40625q0 -0.515625 -0.25 -0.796875q-0.25 -0.296875 -0.625 -0.296875q-0.265625 0 -0.5 0.140625q-0.234375 0.140625 -0.4375 0.421875q-0.1875 0.28125 -0.328125 0.703125q-0.125 0.40625 -0.125 0.703125z" fill-rule="nonzero"/><path fill="#38761d" d="m31.591934 115.20248q0.8125 0 1.21875 0.546875q0.40625 0.53125 0.234375 1.34375q-0.171875 0.828125 -0.8125 1.359375q-0.625 0.53125 -1.453125 0.53125q-0.828125 0 -1.25 -0.515625q-0.421875 -0.53125 -0.25 -1.359375q0.171875 -0.828125 0.8125 -1.359375q0.65625 -0.546875 1.5 -0.546875zm0.5625 1.71875q0.09375 -0.4375 0.0625 -0.765625q-0.03125 -0.34375 -0.21875 -0.546875q-0.171875 -0.21875 -0.5 -0.21875q-0.28125 0 -0.53125 0.21875q-0.25 0.203125 -0.421875 0.546875q-0.171875 0.34375 -0.265625 0.765625l1.875 0zm-0.0625 0.25l-1.890625 0q-0.15625 0.796875 -0.015625 1.21875q0.15625 0.421875 0.625 0.421875q0.453125 0 0.78125 -0.421875q0.34375 -0.4375 0.5 -1.21875z" fill-rule="nonzero"/><path fill="#38761d" d="m33.882065 117.57748q-0.625 -1.34375 -0.625 -2.765625q0 -0.953125 0.25 -1.765625q0.25 -0.8125 0.765625 -1.609375q0.328125 -0.53125 1.0625 -1.375l0.5625 0q-0.46875 0.484375 -0.984375 1.375q-0.5 0.890625 -0.734375 1.75q-0.21875 0.84375 -0.21875 1.71875q0 1.28125 0.4375 2.671875l-0.515625 0zm1.3671875 -0.078125l0.046875 -0.671875q0.21875 0.0625 0.421875 0.0625q0.21875 0 0.34375 -0.09375q0.171875 -0.125 0.375 -0.484375l0.234375 -0.40625l-0.6875 -4.171875l0.6875 0l0.3125 2.109375q0.09375 0.609375 0.15625 1.234375l1.859375 -3.34375l0.734375 0l-2.640625 4.703125q-0.375 0.6875 -0.671875 0.90625q-0.296875 0.234375 -0.6875 0.234375q-0.25 0 -0.484375 -0.078125zm5.59375 -7.4375q0.609375 1.34375 0.609375 2.765625q0 0.9375 -0.25 1.75q-0.25 0.8125 -0.75 1.625q-0.34375 0.53125 -1.078125 1.375l-0.546875 0q0.453125 -0.5 0.953125 -1.390625q0.515625 -0.875 0.75 -1.734375q0.234375 -0.859375 0.234375 -1.71875q0 -1.296875 -0.453125 -2.671875l0.53125 0z" fill-rule="nonzero"/><path fill="#000000" fill-opacity="0.0" d="m118.83466 10.191601l38.614174 0l0 29.070866l-38.614174 0z" fill-rule="evenodd"/><path fill="#4a86e8" d="m127.75654 28.465351l1.2031174 -5.75l0.640625 0l-0.109375 0.578125q0.359375 -0.375 0.640625 -0.515625q0.296875 -0.15625 0.609375 -0.15625q0.59375 0 0.984375 0.4375q0.390625 0.4375 0.390625 1.234375q0 0.65625 -0.21875 1.1875q-0.203125 0.53125 -0.515625 0.859375q-0.3125 0.3125 -0.640625 0.46875q-0.3125 0.15625 -0.65625 0.15625q-0.75 0 -1.15625 -0.765625l-0.46875 2.265625l-0.7031174 0zm1.3906174 -3.296875q0 0.46875 0.078125 0.65625q0.09375 0.25 0.3125 0.40625q0.21875 0.15625 0.515625 0.15625q0.609375 0 0.984375 -0.6875q0.375 -0.6875 0.375 -1.40625q0 -0.515625 -0.25 -0.796875q-0.25 -0.296875 -0.625 -0.296875q-0.265625 0 -0.5 0.140625q-0.234375 0.140625 -0.4375 0.421875q-0.1875 0.28125 -0.328125 0.703125q-0.125 0.40625 -0.125 0.703125z" fill-rule="nonzero"/><path fill="#4a86e8" d="m132.45575 29.871601l0.578125 -2.765625l0.421875 0l-0.125 0.5625q0.21875 -0.3125 0.421875 -0.46875q0.203125 -0.15625 0.421875 -0.15625q0.140625 0 0.34375 0.109375l-0.1875 0.4375q-0.125 -0.09375 -0.265625 -0.09375q-0.25 0 -0.515625 0.28125q-0.265625 0.265625 -0.40625 0.984375l-0.234375 1.109375l-0.453125 0z" fill-rule="nonzero"/><path fill="#4a86e8" d="m135.35506 28.559101q-0.625 -1.34375 -0.625 -2.765625q0 -0.953125 0.25 -1.765625q0.25 -0.8125 0.765625 -1.609375q0.328125 -0.53125 1.0625 -1.375l0.5625 0q-0.46875 0.484375 -0.984375 1.375q-0.5 0.890625 -0.734375 1.75q-0.21875 0.84375 -0.21875 1.71875q0 1.28125 0.4375 2.671875l-0.515625 0zm1.3515625 -1.6875l1.8125 -2.109375l-1.03125 -2.046875l0.78125 0l0.34375 0.75q0.203125 0.40625 0.359375 0.78125l1.1875 -1.53125l0.859375 0l-1.734375 2.109375l1.046875 2.046875l-0.78125 0l-0.421875 -0.84375q-0.125 -0.265625 -0.296875 -0.671875l-1.234375 1.515625l-0.890625 0zm5.609375 -5.828125q0.609375 1.34375 0.609375 2.765625q0 0.9375 -0.25 1.75q-0.25 0.8125 -0.75 1.625q-0.34375 0.53125 -1.078125 1.375l-0.546875 0q0.453125 -0.5 0.953125 -1.390625q0.515625 -0.875 0.75 -1.734375q0.234375 -0.859375 0.234375 -1.71875q0 -1.296875 -0.453125 -2.671875l0.53125 0z" fill-rule="nonzero"/><path fill="#000000" fill-opacity="0.0" d="m118.83474 27.766405l31.653542 0l0 25.858267l-31.653542 0z" fill-rule="evenodd"/><path fill="#4a86e8" d="m128.13162 40.886406l0.453125 -0.0625q0.046875 0.40625 0.21875 0.578125q0.1875 0.171875 0.484375 0.171875q0.34375 0 0.59375 -0.25q0.25 -0.25 0.25 -0.5625q0 -0.28125 -0.1875 -0.46875q-0.1875 -0.1875 -0.5 -0.1875q-0.046875 0 -0.15625 0.015625l0.078125 -0.390625q0.0625 0 0.125 0q0.40625 0 0.625 -0.1875q0.21875 -0.203125 0.21875 -0.484375q0 -0.265625 -0.1875 -0.4375q-0.171875 -0.1875 -0.421875 -0.1875q-0.25 0 -0.453125 0.1875q-0.203125 0.1875 -0.265625 0.515625l-0.46875 -0.09375q0.125 -0.46875 0.4375 -0.71875q0.328125 -0.265625 0.78125 -0.265625q0.46875 0 0.75 0.28125q0.296875 0.28125 0.296875 0.703125q0 0.296875 -0.15625 0.53125q-0.15625 0.21875 -0.46875 0.359375q0.21875 0.140625 0.328125 0.328125q0.109375 0.1875 0.109375 0.421875q0 0.515625 -0.390625 0.890625q-0.375 0.375 -0.90625 0.375q-0.515625 0 -0.84375 -0.28125q-0.3125 -0.296875 -0.34375 -0.78125zm2.4007568 1.0625l2.046875 -3.9375l0.40625 0l-2.046875 3.9375l-0.40625 0zm3.0272064 -0.0625l0.609375 -2.875q-0.390625 0.296875 -1.109375 0.484375l0.09375 -0.421875q0.359375 -0.140625 0.6875 -0.359375q0.34375 -0.234375 0.515625 -0.40625q0.109375 -0.109375 0.203125 -0.25l0.28125 0l-0.8125 3.828125l-0.46875 0zm1.9788818 -1.0l0.453125 -0.0625q0.046875 0.40625 0.21875 0.578125q0.1875 0.171875 0.484375 0.171875q0.34375 0 0.59375 -0.25q0.25 -0.25 0.25 -0.5625q0 -0.28125 -0.1875 -0.46875q-0.1875 -0.1875 -0.5 -0.1875q-0.046875 0 -0.15625 0.015625l0.078125 -0.390625q0.0625 0 0.125 0q0.40625 0 0.625 -0.1875q0.21875 -0.203125 0.21875 -0.484375q0 -0.265625 -0.1875 -0.4375q-0.171875 -0.1875 -0.421875 -0.1875q-0.25 0 -0.453125 0.1875q-0.203125 0.1875 -0.265625 0.515625l-0.46875 -0.09375q0.125 -0.46875 0.4375 -0.71875q0.328125 -0.265625 0.78125 -0.265625q0.46875 0 0.75 0.28125q0.296875 0.28125 0.296875 0.703125q0 0.296875 -0.15625 0.53125q-0.15625 0.21875 -0.46875 0.359375q0.21875 0.140625 0.328125 0.328125q0.109375 0.1875 0.109375 0.421875q0 0.515625 -0.390625 0.890625q-0.375 0.375 -0.90625 0.375q-0.515625 0 -0.84375 -0.28125q-0.3125 -0.296875 -0.34375 -0.78125z" fill-rule="nonzero"/><path fill="#000000" fill-opacity="0.0" d="m56.02887 102.60105l32.44095 0l0 25.858269l-32.44095 0z" fill-rule="evenodd"/><path fill="#38761d" d="m66.31012 116.72105l0.609375 -2.875q-0.390625 0.296875 -1.109375 0.484375l0.09375 -0.421875q0.359375 -0.140625 0.6875 -0.359375q0.34375 -0.234375 0.515625 -0.40625q0.109375 -0.109375 0.203125 -0.25l0.28125 0l-0.8125 3.828125l-0.46875 0zm1.4163818 0.0625l2.046875 -3.9375l0.40625 0l-2.046875 3.9375l-0.40625 0zm3.0272064 -0.0625l0.609375 -2.875q-0.390625 0.296875 -1.109375 0.484375l0.09375 -0.421875q0.359375 -0.140625 0.6875 -0.359375q0.34375 -0.234375 0.515625 -0.40625q0.109375 -0.109375 0.203125 -0.25l0.28125 0l-0.8125 3.828125l-0.46875 0zm1.9788818 -1.0l0.453125 -0.0625q0.046875 0.40625 0.21875 0.578125q0.1875 0.171875 0.484375 0.171875q0.34375 0 0.59375 -0.25q0.25 -0.25 0.25 -0.5625q0 -0.28125 -0.1875 -0.46875q-0.1875 -0.1875 -0.5 -0.1875q-0.046875 0 -0.15625 0.015625l0.078125 -0.390625q0.0625 0 0.125 0q0.40625 0 0.625 -0.1875q0.21875 -0.203125 0.21875 -0.484375q0 -0.265625 -0.1875 -0.4375q-0.171875 -0.1875 -0.421875 -0.1875q-0.25 0 -0.453125 0.1875q-0.203125 0.1875 -0.265625 0.515625l-0.46875 -0.09375q0.125 -0.46875 0.4375 -0.71875q0.328125 -0.265625 0.78125 -0.265625q0.46875 0 0.75 0.28125q0.296875 0.28125 0.296875 0.703125q0 0.296875 -0.15625 0.53125q-0.15625 0.21875 -0.46875 0.359375q0.21875 0.140625 0.328125 0.328125q0.109375 0.1875 0.109375 0.421875q0 0.515625 -0.390625 0.890625q-0.375 0.375 -0.90625 0.375q-0.515625 0 -0.84375 -0.28125q-0.3125 -0.296875 -0.34375 -0.78125z" fill-rule="nonzero"/><path fill="#000000" fill-opacity="0.0" d="m71.52756 102.60105l32.44095 0l0 25.858269l-32.44095 0z" fill-rule="evenodd"/><path fill="#38761d" d="m80.82443 115.72105l0.453125 -0.0625q0.046875 0.40625 0.21875 0.578125q0.1875 0.171875 0.484375 0.171875q0.34375 0 0.59375 -0.25q0.25 -0.25 0.25 -0.5625q0 -0.28125 -0.1875 -0.46875q-0.1875 -0.1875 -0.5 -0.1875q-0.046875 0 -0.15625 0.015625l0.078125 -0.390625q0.0625 0 0.125 0q0.40625 0 0.625 -0.1875q0.21875 -0.203125 0.21875 -0.484375q0 -0.265625 -0.1875 -0.4375q-0.171875 -0.1875 -0.421875 -0.1875q-0.25 0 -0.453125 0.1875q-0.203125 0.1875 -0.265625 0.515625l-0.46875 -0.09375q0.125 -0.46875 0.4375 -0.71875q0.328125 -0.265625 0.78125 -0.265625q0.46875 0 0.75 0.28125q0.296875 0.28125 0.296875 0.703125q0 0.296875 -0.15625 0.53125q-0.15625 0.21875 -0.46875 0.359375q0.21875 0.140625 0.328125 0.328125q0.109375 0.1875 0.109375 0.421875q0 0.515625 -0.390625 0.890625q-0.375 0.375 -0.90625 0.375q-0.515625 0 -0.84375 -0.28125q-0.3125 -0.296875 -0.34375 -0.78125zm2.4007568 1.0625l2.046875 -3.9375l0.40625 0l-2.046875 3.9375l-0.40625 0zm3.0272064 -0.0625l0.609375 -2.875q-0.390625 0.296875 -1.109375 0.484375l0.09375 -0.421875q0.359375 -0.140625 0.6875 -0.359375q0.34375 -0.234375 0.515625 -0.40625q0.109375 -0.109375 0.203125 -0.25l0.28125 0l-0.8125 3.828125l-0.46875 0zm1.9788818 -1.0l0.453125 -0.0625q0.046875 0.40625 0.21875 0.578125q0.1875 0.171875 0.484375 0.171875q0.34375 0 0.59375 -0.25q0.25 -0.25 0.25 -0.5625q0 -0.28125 -0.1875 -0.46875q-0.1875 -0.1875 -0.5 -0.1875q-0.046875 0 -0.15625 0.015625l0.078125 -0.390625q0.0625 0 0.125 0q0.40625 0 0.625 -0.1875q0.21875 -0.203125 0.21875 -0.484375q0 -0.265625 -0.1875 -0.4375q-0.171875 -0.1875 -0.421875 -0.1875q-0.25 0 -0.453125 0.1875q-0.203125 0.1875 -0.265625 0.515625l-0.46875 -0.09375q0.125 -0.46875 0.4375 -0.71875q0.328125 -0.265625 0.78125 -0.265625q0.46875 0 0.75 0.28125q0.296875 0.28125 0.296875 0.703125q0 0.296875 -0.15625 0.53125q-0.15625 0.21875 -0.46875 0.359375q0.21875 0.140625 0.328125 0.328125q0.109375 0.1875 0.109375 0.421875q0 0.515625 -0.390625 0.890625q-0.375 0.375 -0.90625 0.375q-0.515625 0 -0.84375 -0.28125q-0.3125 -0.296875 -0.34375 -0.78125z" fill-rule="nonzero"/><path fill="#000000" fill-opacity="0.0" d="m87.47507 102.60105l32.44094 0l0 25.858269l-32.44094 0z" fill-rule="evenodd"/><path fill="#38761d" d="m98.06882 116.72105l0.203125 -0.96875l-1.5625 0l0.109375 -0.46875l2.140625 -2.375l0.375 0l-0.5 2.421875l0.53125 0l-0.09375 0.421875l-0.53125 0l-0.203125 0.96875l-0.46875 0zm0.296875 -1.390625l0.328125 -1.59375l-1.421875 1.59375l1.09375 0zm0.80700684 1.453125l2.046875 -3.9375l0.40625 0l-2.046875 3.9375l-0.40625 0zm3.0272064 -0.0625l0.609375 -2.875q-0.390625 0.296875 -1.109375 0.484375l0.09375 -0.421875q0.359375 -0.140625 0.6875 -0.359375q0.34375 -0.234375 0.515625 -0.40625q0.109375 -0.109375 0.203125 -0.25l0.28125 0l-0.8125 3.828125l-0.46875 0zm1.9788818 -1.0l0.453125 -0.0625q0.046875 0.40625 0.21875 0.578125q0.1875 0.171875 0.484375 0.171875q0.34375 0 0.59375 -0.25q0.25 -0.25 0.25 -0.5625q0 -0.28125 -0.1875 -0.46875q-0.1875 -0.1875 -0.5 -0.1875q-0.046875 0 -0.15625 0.015625l0.078125 -0.390625q0.0625 0 0.125 0q0.40625 0 0.625 -0.1875q0.21875 -0.203125 0.21875 -0.484375q0 -0.265625 -0.1875 -0.4375q-0.171875 -0.1875 -0.421875 -0.1875q-0.25 0 -0.453125 0.1875q-0.203125 0.1875 -0.265625 0.515625l-0.46875 -0.09375q0.125 -0.46875 0.4375 -0.71875q0.328125 -0.265625 0.78125 -0.265625q0.46875 0 0.75 0.28125q0.296875 0.28125 0.296875 0.703125q0 0.296875 -0.15625 0.53125q-0.15625 0.21875 -0.46875 0.359375q0.21875 0.140625 0.328125 0.328125q0.109375 0.1875 0.109375 0.421875q0 0.515625 -0.390625 0.890625q-0.375 0.375 -0.90625 0.375q-0.515625 0 -0.84375 -0.28125q-0.3125 -0.296875 -0.34375 -0.78125z" fill-rule="nonzero"/><path fill="#000000" fill-opacity="0.0" d="m102.77165 102.60105l32.44095 0l0 25.858269l-32.44095 0z" fill-rule="evenodd"/><path fill="#38761d" d="m112.06853 115.72105l0.453125 -0.0625q0.046875 0.40625 0.21875 0.578125q0.1875 0.171875 0.484375 0.171875q0.34375 0 0.59375 -0.25q0.25 -0.25 0.25 -0.5625q0 -0.28125 -0.1875 -0.46875q-0.1875 -0.1875 -0.5 -0.1875q-0.046875 0 -0.15625 0.015625l0.078125 -0.390625q0.0625 0 0.125 0q0.40625 0 0.625 -0.1875q0.21875 -0.203125 0.21875 -0.484375q0 -0.265625 -0.1875 -0.4375q-0.171875 -0.1875 -0.421875 -0.1875q-0.25 0 -0.453125 0.1875q-0.203125 0.1875 -0.265625 0.515625l-0.46875 -0.09375q0.125 -0.46875 0.4375 -0.71875q0.328125 -0.265625 0.78125 -0.265625q0.46875 0 0.75 0.28125q0.296875 0.28125 0.296875 0.703125q0 0.296875 -0.15625 0.53125q-0.15625 0.21875 -0.46875 0.359375q0.21875 0.140625 0.328125 0.328125q0.109375 0.1875 0.109375 0.421875q0 0.515625 -0.390625 0.890625q-0.375 0.375 -0.90625 0.375q-0.515625 0 -0.84375 -0.28125q-0.3125 -0.296875 -0.34375 -0.78125zm2.4007568 1.0625l2.046875 -3.9375l0.40625 0l-2.046875 3.9375l-0.40625 0zm3.0272064 -0.0625l0.609375 -2.875q-0.390625 0.296875 -1.109375 0.484375l0.09375 -0.421875q0.359375 -0.140625 0.6875 -0.359375q0.34375 -0.234375 0.515625 -0.40625q0.109375 -0.109375 0.203125 -0.25l0.28125 0l-0.8125 3.828125l-0.46875 0zm1.9788818 -1.0l0.453125 -0.0625q0.046875 0.40625 0.21875 0.578125q0.1875 0.171875 0.484375 0.171875q0.34375 0 0.59375 -0.25q0.25 -0.25 0.25 -0.5625q0 -0.28125 -0.1875 -0.46875q-0.1875 -0.1875 -0.5 -0.1875q-0.046875 0 -0.15625 0.015625l0.078125 -0.390625q0.0625 0 0.125 0q0.40625 0 0.625 -0.1875q0.21875 -0.203125 0.21875 -0.484375q0 -0.265625 -0.1875 -0.4375q-0.171875 -0.1875 -0.421875 -0.1875q-0.25 0 -0.453125 0.1875q-0.203125 0.1875 -0.265625 0.515625l-0.46875 -0.09375q0.125 -0.46875 0.4375 -0.71875q0.328125 -0.265625 0.78125 -0.265625q0.46875 0 0.75 0.28125q0.296875 0.28125 0.296875 0.703125q0 0.296875 -0.15625 0.53125q-0.15625 0.21875 -0.46875 0.359375q0.21875 0.140625 0.328125 0.328125q0.109375 0.1875 0.109375 0.421875q0 0.515625 -0.390625 0.890625q-0.375 0.375 -0.90625 0.375q-0.515625 0 -0.84375 -0.28125q-0.3125 -0.296875 -0.34375 -0.78125z" fill-rule="nonzero"/><path fill="#000000" fill-opacity="0.0" d="m118.83474 42.897636l31.653542 0l0 25.858269l-31.653542 0z" fill-rule="evenodd"/><path fill="#4a86e8" d="m129.116 57.01764l0.609375 -2.875q-0.390625 0.296875 -1.109375 0.484375l0.09375 -0.421875q0.359375 -0.140625 0.6875 -0.359375q0.34375 -0.234375 0.515625 -0.40625q0.109375 -0.109375 0.203125 -0.25l0.28125 0l-0.8125 3.828125l-0.46875 0zm1.4163818 0.0625l2.046875 -3.9375l0.40625 0l-2.046875 3.9375l-0.40625 0zm3.0272064 -0.0625l0.609375 -2.875q-0.390625 0.296875 -1.109375 0.484375l0.09375 -0.421875q0.359375 -0.140625 0.6875 -0.359375q0.34375 -0.234375 0.515625 -0.40625q0.109375 -0.109375 0.203125 -0.25l0.28125 0l-0.8125 3.828125l-0.46875 0zm1.9788818 -1.0l0.453125 -0.0625q0.046875 0.40625 0.21875 0.578125q0.1875 0.171875 0.484375 0.171875q0.34375 0 0.59375 -0.25q0.25 -0.25 0.25 -0.5625q0 -0.28125 -0.1875 -0.46875q-0.1875 -0.1875 -0.5 -0.1875q-0.046875 0 -0.15625 0.015625l0.078125 -0.390625q0.0625 0 0.125 0q0.40625 0 0.625 -0.1875q0.21875 -0.203125 0.21875 -0.484375q0 -0.265625 -0.1875 -0.4375q-0.171875 -0.1875 -0.421875 -0.1875q-0.25 0 -0.453125 0.1875q-0.203125 0.1875 -0.265625 0.515625l-0.46875 -0.09375q0.125 -0.46875 0.4375 -0.71875q0.328125 -0.265625 0.78125 -0.265625q0.46875 0 0.75 0.28125q0.296875 0.28125 0.296875 0.703125q0 0.296875 -0.15625 0.53125q-0.15625 0.21875 -0.46875 0.359375q0.21875 0.140625 0.328125 0.328125q0.109375 0.1875 0.109375 0.421875q0 0.515625 -0.390625 0.890625q-0.375 0.375 -0.90625 0.375q-0.515625 0 -0.84375 -0.28125q-0.3125 -0.296875 -0.34375 -0.78125z" fill-rule="nonzero"/><path fill="#000000" fill-opacity="0.0" d="m118.837364 56.81365l31.653542 0l0 25.858265l-31.653542 0z" fill-rule="evenodd"/><path fill="#4a86e8" d="m128.14987 70.93365q0.078125 -0.34375 0.203125 -0.5625q0.125 -0.234375 0.328125 -0.4375q0.21875 -0.21875 0.828125 -0.703125q0.375 -0.296875 0.515625 -0.4375q0.1875 -0.203125 0.28125 -0.390625q0.0625 -0.140625 0.0625 -0.296875q0 -0.25 -0.1875 -0.4375q-0.1875 -0.1875 -0.453125 -0.1875q-0.28125 0 -0.484375 0.1875q-0.1875 0.1875 -0.28125 0.59375l-0.453125 -0.0625q0.0625 -0.515625 0.390625 -0.796875q0.328125 -0.296875 0.8125 -0.296875q0.328125 0 0.59375 0.140625q0.265625 0.125 0.390625 0.375q0.140625 0.25 0.140625 0.5q0 0.375 -0.28125 0.734375q-0.15625 0.21875 -0.96875 0.859375q-0.359375 0.28125 -0.53125 0.453125q-0.15625 0.171875 -0.25 0.328125l1.703125 0l-0.078125 0.4375l-2.28125 0zm2.3851318 0.0625l2.046875 -3.9375l0.40625 0l-2.046875 3.9375l-0.40625 0zm3.0272064 -0.0625l0.609375 -2.875q-0.390625 0.296875 -1.109375 0.484375l0.09375 -0.421875q0.359375 -0.140625 0.6875 -0.359375q0.34375 -0.234375 0.515625 -0.40625q0.109375 -0.109375 0.203125 -0.25l0.28125 0l-0.8125 3.828125l-0.46875 0zm1.9788818 -1.0l0.453125 -0.0625q0.046875 0.40625 0.21875 0.578125q0.1875 0.171875 0.484375 0.171875q0.34375 0 0.59375 -0.25q0.25 -0.25 0.25 -0.5625q0 -0.28125 -0.1875 -0.46875q-0.1875 -0.1875 -0.5 -0.1875q-0.046875 0 -0.15625 0.015625l0.078125 -0.390625q0.0625 0 0.125 0q0.40625 0 0.625 -0.1875q0.21875 -0.203125 0.21875 -0.484375q0 -0.265625 -0.1875 -0.4375q-0.171875 -0.1875 -0.421875 -0.1875q-0.25 0 -0.453125 0.1875q-0.203125 0.1875 -0.265625 0.515625l-0.46875 -0.09375q0.125 -0.46875 0.4375 -0.71875q0.328125 -0.265625 0.78125 -0.265625q0.46875 0 0.75 0.28125q0.296875 0.28125 0.296875 0.703125q0 0.296875 -0.15625 0.53125q-0.15625 0.21875 -0.46875 0.359375q0.21875 0.140625 0.328125 0.328125q0.109375 0.1875 0.109375 0.421875q0 0.515625 -0.390625 0.890625q-0.375 0.375 -0.90625 0.375q-0.515625 0 -0.84375 -0.28125q-0.3125 -0.296875 -0.34375 -0.78125z" fill-rule="nonzero"/><path fill="#000000" fill-opacity="0.0" d="m118.837364 71.944885l31.653542 0l0 25.858261l-31.653542 0z" fill-rule="evenodd"/><path fill="#4a86e8" d="m128.14987 86.06488q0.078125 -0.34375 0.203125 -0.5625q0.125 -0.234375 0.328125 -0.4375q0.21875 -0.21875 0.828125 -0.703125q0.375 -0.296875 0.515625 -0.4375q0.1875 -0.203125 0.28125 -0.390625q0.0625 -0.140625 0.0625 -0.296875q0 -0.25 -0.1875 -0.4375q-0.1875 -0.1875 -0.453125 -0.1875q-0.28125 0 -0.484375 0.1875q-0.1875 0.1875 -0.28125 0.59375l-0.453125 -0.0625q0.0625 -0.515625 0.390625 -0.796875q0.328125 -0.296875 0.8125 -0.296875q0.328125 0 0.59375 0.140625q0.265625 0.125 0.390625 0.375q0.140625 0.25 0.140625 0.5q0 0.375 -0.28125 0.734375q-0.15625 0.21875 -0.96875 0.859375q-0.359375 0.28125 -0.53125 0.453125q-0.15625 0.171875 -0.25 0.328125l1.703125 0l-0.078125 0.4375l-2.28125 0zm2.3851318 0.0625l2.046875 -3.9375l0.40625 0l-2.046875 3.9375l-0.40625 0zm3.0272064 -0.0625l0.609375 -2.875q-0.390625 0.296875 -1.109375 0.484375l0.09375 -0.421875q0.359375 -0.140625 0.6875 -0.359375q0.34375 -0.234375 0.515625 -0.40625q0.109375 -0.109375 0.203125 -0.25l0.28125 0l-0.8125 3.828125l-0.46875 0zm1.9788818 -1.0l0.453125 -0.0625q0.046875 0.40625 0.21875 0.578125q0.1875 0.171875 0.484375 0.171875q0.34375 0 0.59375 -0.25q0.25 -0.25 0.25 -0.5625q0 -0.28125 -0.1875 -0.46875q-0.1875 -0.1875 -0.5 -0.1875q-0.046875 0 -0.15625 0.015625l0.078125 -0.390625q0.0625 0 0.125 0q0.40625 0 0.625 -0.1875q0.21875 -0.203125 0.21875 -0.484375q0 -0.265625 -0.1875 -0.4375q-0.171875 -0.1875 -0.421875 -0.1875q-0.25 0 -0.453125 0.1875q-0.203125 0.1875 -0.265625 0.515625l-0.46875 -0.09375q0.125 -0.46875 0.4375 -0.71875q0.328125 -0.265625 0.78125 -0.265625q0.46875 0 0.75 0.28125q0.296875 0.28125 0.296875 0.703125q0 0.296875 -0.15625 0.53125q-0.15625 0.21875 -0.46875 0.359375q0.21875 0.140625 0.328125 0.328125q0.109375 0.1875 0.109375 0.421875q0 0.515625 -0.390625 0.890625q-0.375 0.375 -0.90625 0.375q-0.515625 0 -0.84375 -0.28125q-0.3125 -0.296875 -0.34375 -0.78125z" fill-rule="nonzero"/><path fill="#000000" fill-opacity="0.0" d="m118.837364 86.485565l31.653542 0l0 25.858269l-31.653542 0z" fill-rule="evenodd"/><path fill="#4a86e8" d="m128.21237 99.51182l0.46875 -0.046875q0 0.109375 0 0.125q0 0.171875 0.078125 0.34375q0.09375 0.171875 0.234375 0.265625q0.15625 0.09375 0.328125 0.09375q0.21875 0 0.4375 -0.140625q0.234375 -0.15625 0.375 -0.4375q0.140625 -0.296875 0.140625 -0.578125q0 -0.328125 -0.1875 -0.515625q-0.1875 -0.1875 -0.5 -0.1875q-0.203125 0 -0.390625 0.09375q-0.171875 0.09375 -0.34375 0.296875l-0.40625 -0.03125l0.578125 -1.953125l1.859375 0l-0.09375 0.4375l-1.4375 0l-0.296875 0.96875q0.171875 -0.125 0.328125 -0.171875q0.171875 -0.0625 0.359375 -0.0625q0.4375 0 0.71875 0.296875q0.28125 0.28125 0.28125 0.78125q0 0.4375 -0.203125 0.8125q-0.1875 0.375 -0.53125 0.578125q-0.328125 0.1875 -0.71875 0.1875q-0.328125 0 -0.578125 -0.140625q-0.25 -0.15625 -0.375 -0.40625q-0.125 -0.265625 -0.125 -0.53125q0 -0.015625 0 -0.078125zm2.3226318 1.15625l2.046875 -3.9375l0.40625 0l-2.046875 3.9375l-0.40625 0zm3.0272064 -0.0625l0.609375 -2.875q-0.390625 0.296875 -1.109375 0.484375l0.09375 -0.421875q0.359375 -0.140625 0.6875 -0.359375q0.34375 -0.234375 0.515625 -0.40625q0.109375 -0.109375 0.203125 -0.25l0.28125 0l-0.8125 3.828125l-0.46875 0zm1.9788818 -1.0l0.453125 -0.0625q0.046875 0.40625 0.21875 0.578125q0.1875 0.171875 0.484375 0.171875q0.34375 0 0.59375 -0.25q0.25 -0.25 0.25 -0.5625q0 -0.28125 -0.1875 -0.46875q-0.1875 -0.1875 -0.5 -0.1875q-0.046875 0 -0.15625 0.015625l0.078125 -0.390625q0.0625 0 0.125 0q0.40625 0 0.625 -0.1875q0.21875 -0.203125 0.21875 -0.484375q0 -0.265625 -0.1875 -0.4375q-0.171875 -0.1875 -0.421875 -0.1875q-0.25 0 -0.453125 0.1875q-0.203125 0.1875 -0.265625 0.515625l-0.46875 -0.09375q0.125 -0.46875 0.4375 -0.71875q0.328125 -0.265625 0.78125 -0.265625q0.46875 0 0.75 0.28125q0.296875 0.28125 0.296875 0.703125q0 0.296875 -0.15625 0.53125q-0.15625 0.21875 -0.46875 0.359375q0.21875 0.140625 0.328125 0.328125q0.109375 0.1875 0.109375 0.421875q0 0.515625 -0.390625 0.890625q-0.375 0.375 -0.90625 0.375q-0.515625 0 -0.84375 -0.28125q-0.3125 -0.296875 -0.34375 -0.78125z" fill-rule="nonzero"/></g></svg>