<svg version="1.1" viewBox="0.0 0.0 218.8188976377953 100.0" fill="none" stroke="none" stroke-linecap="square" stroke-miterlimit="10" xmlns:xlink="http://www.w3.org/1999/xlink" xmlns="http://www.w3.org/2000/svg"><clipPath id="p.0"><path d="m0 0l218.8189 0l0 100.0l-218.8189 0l0 -100.0z" clip-rule="nonzero"/></clipPath><g clip-path="url(#p.0)"><path fill="#000000" fill-opacity="0.0" d="m0 0l218.8189 0l0 100.0l-218.8189 0z" fill-rule="evenodd"/><path fill="#000000" fill-opacity="0.0" d="m68.58924 7.192071l-0.40945435 83.55906" fill-rule="evenodd"/><path stroke="#000000" stroke-width="1.0" stroke-linejoin="round" stroke-linecap="butt" d="m68.58924 7.192071l-0.40945435 83.55906" fill-rule="evenodd"/><path fill="#000000" fill-opacity="0.0" d="m56.906826 18.16273l89.98425 0.031496048" fill-rule="evenodd"/><path stroke="#000000" stroke-width="1.0" stroke-linejoin="round" stroke-linecap="butt" d="m56.906826 18.16273l89.98425 0.031496048" fill-rule="evenodd"/><path fill="#000000" fill-opacity="0.0" d="m56.906826 33.070866l89.98425 -0.15747833" fill-rule="evenodd"/><path stroke="#000000" stroke-width="1.0" stroke-linejoin="round" stroke-linecap="butt" d="m56.906826 33.070866l89.98425 -0.15747833" fill-rule="evenodd"/><path fill="#000000" fill-opacity="0.0" d="m84.24278 7.192071l-0.4409485 83.55906" fill-rule="evenodd"/><path stroke="#000000" stroke-width="1.0" stroke-linejoin="round" stroke-linecap="butt" d="m84.24278 7.192071l-0.4409485 83.55906" fill-rule="evenodd"/><path fill="#000000" fill-opacity="0.0" d="m99.896324 6.8713913l-0.31495667 84.34646" fill-rule="evenodd"/><path stroke="#000000" stroke-width="1.0" stroke-linejoin="round" stroke-linecap="butt" d="m99.896324 6.8713913l-0.31495667 84.34646" fill-rule="evenodd"/><path fill="#000000" fill-opacity="0.0" d="m115.549866 6.8713913l-0.3464508 84.34646" fill-rule="evenodd"/><path stroke="#000000" stroke-width="1.0" stroke-linejoin="round" stroke-linecap="butt" d="m115.549866 6.8713913l-0.3464508 84.34646" fill-rule="evenodd"/><path fill="#000000" fill-opacity="0.0" d="m131.20341 6.8713913l-0.25196838 84.18897" fill-rule="evenodd"/><path stroke="#000000" stroke-width="1.0" stroke-linejoin="round" stroke-linecap="butt" d="m131.20341 6.8713913l-0.25196838 84.18897" fill-rule="evenodd"/><path fill="#000000" fill-opacity="0.0" d="m146.85695 6.8713913l-0.25196838 84.34646" fill-rule="evenodd"/><path stroke="#000000" stroke-width="1.0" stroke-linejoin="round" stroke-linecap="butt" d="m146.85695 6.8713913l-0.25196838 84.34646" fill-rule="evenodd"/><path fill="#000000" fill-opacity="0.0" d="m56.906826 47.065617l89.98425 -0.03149414" fill-rule="evenodd"/><path stroke="#000000" stroke-width="1.0" stroke-linejoin="round" stroke-linecap="butt" d="m56.906826 47.065617l89.98425 -0.03149414" fill-rule="evenodd"/><path fill="#000000" fill-opacity="0.0" d="m56.906826 61.973755l90.14172 0.09448624" fill-rule="evenodd"/><path stroke="#000000" stroke-width="1.0" stroke-linejoin="round" stroke-linecap="butt" d="m56.906826 61.973755l90.14172 0.09448624" fill-rule="evenodd"/><path fill="#000000" fill-opacity="0.0" d="m56.906826 75.968506l89.98425 -0.06299591" fill-rule="evenodd"/><path stroke="#000000" stroke-width="1.0" stroke-linejoin="round" stroke-linecap="butt" d="m56.906826 75.968506l89.98425 -0.06299591" fill-rule="evenodd"/><path fill="#000000" fill-opacity="0.0" d="m56.906826 90.87664l89.82677 0.03149414" fill-rule="evenodd"/><path stroke="#000000" stroke-width="1.0" stroke-linejoin="round" stroke-linecap="butt" d="m56.906826 90.87664l89.82677 0.03149414" fill-rule="evenodd"/><path fill="#000000" fill-opacity="0.0" d="m64.431755 -2.391076l19.811028 0l0 29.070866l-19.811028 0z" fill-rule="evenodd"/><path fill="#38761d" d="m76.588005 14.288924l-1.109375 0l0 -4.140625q-0.59375 0.5625 -1.40625 0.828125l0 -0.984375q0.421875 -0.140625 0.921875 -0.53125q0.515625 -0.40625 0.703125 -0.921875l0.890625 0l0 5.75z" fill-rule="nonzero"/><path fill="#000000" fill-opacity="0.0" d="m80.085304 -2.3897638l19.81102 0l0 29.070866l-19.81102 0z" fill-rule="evenodd"/><path fill="#38761d" d="m93.13218 13.274611l0 1.015625l-3.84375 0q0.0625 -0.578125 0.375 -1.09375q0.3125 -0.515625 1.234375 -1.375q0.734375 -0.6875 0.90625 -0.9375q0.234375 -0.34375 0.234375 -0.671875q0 -0.375 -0.203125 -0.5625q-0.203125 -0.203125 -0.546875 -0.203125q-0.34375 0 -0.546875 0.21875q-0.203125 0.203125 -0.234375 0.671875l-1.09375 -0.109375q0.09375 -0.90625 0.609375 -1.296875q0.515625 -0.390625 1.296875 -0.390625q0.84375 0 1.328125 0.453125q0.484375 0.453125 0.484375 1.140625q0 0.390625 -0.140625 0.734375q-0.140625 0.34375 -0.4375 0.734375q-0.203125 0.25 -0.71875 0.734375q-0.515625 0.46875 -0.65625 0.625q-0.140625 0.15625 -0.21875 0.3125l2.171875 0z" fill-rule="nonzero"/><path fill="#000000" fill-opacity="0.0" d="m95.39239 -2.391076l19.811028 0l0 29.070866l-19.811028 0z" fill-rule="evenodd"/><path fill="#38761d" d="m104.68926 12.773299l1.0625 -0.140625q0.0625 0.40625 0.28125 0.625q0.21875 0.21875 0.53125 0.21875q0.34375 0 0.578125 -0.25q0.234375 -0.265625 0.234375 -0.703125q0 -0.421875 -0.234375 -0.65625q-0.21875 -0.25 -0.53125 -0.25q-0.21875 0 -0.5 0.09375l0.109375 -0.90625q0.453125 0.015625 0.6875 -0.1875q0.234375 -0.203125 0.234375 -0.546875q0 -0.28125 -0.171875 -0.453125q-0.171875 -0.171875 -0.453125 -0.171875q-0.28125 0 -0.484375 0.203125q-0.203125 0.1875 -0.25 0.5625l-1.0 -0.171875q0.09375 -0.53125 0.3125 -0.828125q0.21875 -0.3125 0.59375 -0.484375q0.375 -0.1875 0.859375 -0.1875q0.796875 0 1.296875 0.515625q0.390625 0.421875 0.390625 0.953125q0 0.75 -0.8125 1.203125q0.484375 0.109375 0.78125 0.484375q0.296875 0.359375 0.296875 0.875q0 0.75 -0.5625 1.28125q-0.546875 0.53125 -1.359375 0.53125q-0.78125 0 -1.296875 -0.4375q-0.5 -0.453125 -0.59375 -1.171875z" fill-rule="nonzero"/><path fill="#000000" fill-opacity="0.0" d="m111.04593 -2.3897638l19.81102 0l0 29.070866l-19.81102 0z" fill-rule="evenodd"/><path fill="#38761d" d="m122.54593 14.290236l0 -1.15625l-2.34375 0l0 -0.953125l2.484375 -3.640625l0.921875 0l0 3.625l0.703125 0l0 0.96875l-0.703125 0l0 1.15625l-1.0625 0zm0 -2.125l0 -1.953125l-1.328125 1.953125l1.328125 0z" fill-rule="nonzero"/><path fill="#000000" fill-opacity="0.0" d="m127.04593 -2.3897638l19.81102 0l0 29.070866l-19.81102 0z" fill-rule="evenodd"/><path fill="#38761d" d="m136.4053 12.821486l1.09375 -0.125q0.046875 0.375 0.265625 0.59375q0.234375 0.21875 0.546875 0.21875q0.34375 0 0.578125 -0.28125q0.234375 -0.28125 0.234375 -0.84375q0 -0.53125 -0.234375 -0.78125q-0.234375 -0.265625 -0.609375 -0.265625q-0.484375 0 -0.859375 0.40625l-0.890625 -0.125l0.5625 -2.984375l2.90625 0l0 1.03125l-2.0625 0l-0.171875 0.96875q0.359375 -0.171875 0.75 -0.171875q0.71875 0 1.21875 0.53125q0.515625 0.53125 0.515625 1.375q0 0.703125 -0.40625 1.265625q-0.5625 0.75 -1.546875 0.75q-0.796875 0 -1.296875 -0.421875q-0.5 -0.421875 -0.59375 -1.140625z" fill-rule="nonzero"/><path fill="#000000" fill-opacity="0.0" d="m50.42126 12.060368l19.811024 0l0 29.070866l-19.811024 0z" fill-rule="evenodd"/><path fill="#0b5394" d="m62.57751 28.740368l-1.109375 0l0 -4.140625q-0.59375 0.5625 -1.40625 0.828125l0 -0.984375q0.421875 -0.140625 0.921875 -0.53125q0.515625 -0.40625 0.703125 -0.921875l0.890625 0l0 5.75z" fill-rule="nonzero"/><path fill="#000000" fill-opacity="0.0" d="m50.41995 25.531496l19.811024 0l0 29.070868l-19.811024 0z" fill-rule="evenodd"/><path fill="#0b5394" d="m63.466824 41.195873l0 1.015625l-3.84375 0q0.0625 -0.578125 0.375 -1.09375q0.3125 -0.515625 1.234375 -1.375q0.734375 -0.6875 0.90625 -0.9375q0.234375 -0.34375 0.234375 -0.671875q0 -0.375 -0.203125 -0.5625q-0.203125 -0.203125 -0.546875 -0.203125q-0.34375 0 -0.546875 0.21875q-0.203125 0.203125 -0.234375 0.671875l-1.09375 -0.109375q0.09375 -0.90625 0.609375 -1.296875q0.515625 -0.390625 1.296875 -0.390625q0.84375 0 1.328125 0.453125q0.484375 0.453125 0.484375 1.140625q0 0.390625 -0.140625 0.734375q-0.140625 0.34375 -0.4375 0.734375q-0.203125 0.25 -0.71875 0.734375q-0.515625 0.46875 -0.65625 0.625q-0.140625 0.15625 -0.21875 0.3125l2.171875 0z" fill-rule="nonzero"/><path fill="#000000" fill-opacity="0.0" d="m50.41995 39.984253l19.811024 0l0 29.070862l-19.811024 0z" fill-rule="evenodd"/><path fill="#0b5394" d="m59.716824 55.14863l1.0625 -0.140625q0.0625 0.40625 0.28125 0.625q0.21875 0.21875 0.53125 0.21875q0.34375 0 0.578125 -0.25q0.234375 -0.265625 0.234375 -0.703125q0 -0.421875 -0.234375 -0.65625q-0.21875 -0.25 -0.53125 -0.25q-0.21875 0 -0.5 0.09375l0.109375 -0.90625q0.453125 0.015625 0.6875 -0.1875q0.234375 -0.203125 0.234375 -0.546875q0 -0.28125 -0.171875 -0.453125q-0.171875 -0.171875 -0.453125 -0.171875q-0.28125 0 -0.484375 0.203125q-0.203125 0.1875 -0.25 0.5625l-1.0 -0.171875q0.09375 -0.53125 0.3125 -0.828125q0.21875 -0.3125 0.59375 -0.484375q0.375 -0.1875 0.859375 -0.1875q0.796875 0 1.296875 0.515625q0.390625 0.421875 0.390625 0.953125q0 0.75 -0.8125 1.203125q0.484375 0.109375 0.78125 0.484375q0.296875 0.359375 0.296875 0.875q0 0.75 -0.5625 1.28125q-0.546875 0.53125 -1.359375 0.53125q-0.78125 0 -1.296875 -0.4375q-0.5 -0.453125 -0.59375 -1.171875z" fill-rule="nonzero"/><path fill="#000000" fill-opacity="0.0" d="m50.41995 54.602364l19.811024 0l0 29.070862l-19.811024 0z" fill-rule="evenodd"/><path fill="#0b5394" d="m61.91995 71.282364l0 -1.15625l-2.34375 0l0 -0.953125l2.484375 -3.640625l0.921875 0l0 3.625l0.703125 0l0 0.96875l-0.703125 0l0 1.15625l-1.0625 0zm0 -2.125l0 -1.953125l-1.328125 1.953125l1.328125 0z" fill-rule="nonzero"/><path fill="#000000" fill-opacity="0.0" d="m50.41995 69.055115l19.811024 0l0 29.07087l-19.811024 0z" fill-rule="evenodd"/><path fill="#0b5394" d="m59.779324 84.266365l1.09375 -0.125q0.046875 0.375 0.265625 0.59375q0.234375 0.21875 0.546875 0.21875q0.34375 0 0.578125 -0.28125q0.234375 -0.28125 0.234375 -0.84375q0 -0.53125 -0.234375 -0.78125q-0.234375 -0.265625 -0.609375 -0.265625q-0.484375 0 -0.859375 0.40625l-0.890625 -0.125l0.5625 -2.984375l2.90625 0l0 1.03125l-2.0625 0l-0.171875 0.96875q0.359375 -0.171875 0.75 -0.171875q0.71875 0 1.21875 0.53125q0.515625 0.53125 0.515625 1.375q0 0.703125 -0.40625 1.265625q-0.5625 0.75 -1.546875 0.75q-0.796875 0 -1.296875 -0.421875q-0.5 -0.421875 -0.59375 -1.140625z" fill-rule="nonzero"/><path fill="#000000" fill-opacity="0.0" d="m64.431755 12.049869l19.811028 0l0 29.070866l-19.811028 0z" fill-rule="evenodd"/><path fill="#000000" d="m73.75988 25.901745q0 -1.015625 0.203125 -1.625q0.21875 -0.625 0.625 -0.953125q0.421875 -0.34375 1.046875 -0.34375q0.453125 0 0.796875 0.1875q0.359375 0.1875 0.578125 0.53125q0.234375 0.34375 0.359375 0.859375q0.125 0.5 0.125 1.34375q0 1.015625 -0.203125 1.640625q-0.203125 0.609375 -0.625 0.953125q-0.40625 0.328125 -1.03125 0.328125q-0.828125 0 -1.296875 -0.59375q-0.578125 -0.71875 -0.578125 -2.328125zm0.734375 0q0 1.40625 0.328125 1.875q0.328125 0.46875 0.8125 0.46875q0.484375 0 0.8125 -0.46875q0.328125 -0.46875 0.328125 -1.875q0 -1.40625 -0.328125 -1.875q-0.328125 -0.46875 -0.828125 -0.46875q-0.484375 0 -0.765625 0.40625q-0.359375 0.53125 -0.359375 1.9375z" fill-rule="nonzero"/><path fill="#000000" fill-opacity="0.0" d="m79.91207 12.049869l19.811028 0l0 29.070866l-19.811028 0z" fill-rule="evenodd"/><path fill="#000000" d="m91.89645 28.72987l-0.703125 0l0 -4.484375q-0.25 0.25 -0.671875 0.5q-0.40625 0.234375 -0.734375 0.34375l0 -0.671875q0.59375 -0.28125 1.03125 -0.671875q0.4375 -0.390625 0.625 -0.765625l0.453125 0l0 5.75z" fill-rule="nonzero"/><path fill="#000000" fill-opacity="0.0" d="m95.39239 12.060368l19.811028 0l0 29.070866l-19.811028 0z" fill-rule="evenodd"/><path fill="#000000" d="m108.42364 28.068493l0 0.671875l-3.78125 0q-0.015625 -0.25 0.078125 -0.484375q0.140625 -0.390625 0.453125 -0.765625q0.328125 -0.375 0.921875 -0.875q0.9375 -0.765625 1.265625 -1.203125q0.328125 -0.453125 0.328125 -0.84375q0 -0.421875 -0.296875 -0.703125q-0.296875 -0.296875 -0.78125 -0.296875q-0.5 0 -0.8125 0.3125q-0.296875 0.296875 -0.3125 0.84375l-0.71875 -0.078125q0.078125 -0.8125 0.5625 -1.234375q0.484375 -0.421875 1.296875 -0.421875q0.828125 0 1.296875 0.453125q0.484375 0.453125 0.484375 1.140625q0 0.34375 -0.140625 0.671875q-0.140625 0.328125 -0.46875 0.703125q-0.3125 0.359375 -1.078125 1.0q-0.625 0.53125 -0.8125 0.71875q-0.171875 0.1875 -0.296875 0.390625l2.8125 0z" fill-rule="nonzero"/><path fill="#000000" fill-opacity="0.0" d="m110.8727 12.060368l19.811028 0l0 29.070866l-19.811028 0z" fill-rule="evenodd"/><path fill="#000000" d="m120.21645 27.224743l0.703125 -0.09375q0.109375 0.59375 0.40625 0.859375q0.296875 0.265625 0.703125 0.265625q0.5 0 0.84375 -0.34375q0.34375 -0.34375 0.34375 -0.84375q0 -0.484375 -0.328125 -0.796875q-0.3125 -0.328125 -0.796875 -0.328125q-0.203125 0 -0.5 0.078125l0.078125 -0.609375q0.078125 0 0.125 0q0.4375 0 0.796875 -0.234375q0.359375 -0.234375 0.359375 -0.71875q0 -0.390625 -0.265625 -0.640625q-0.25 -0.25 -0.671875 -0.25q-0.40625 0 -0.6875 0.265625q-0.265625 0.25 -0.34375 0.765625l-0.703125 -0.125q0.125 -0.703125 0.578125 -1.09375q0.46875 -0.390625 1.140625 -0.390625q0.46875 0 0.859375 0.203125q0.40625 0.203125 0.609375 0.546875q0.21875 0.34375 0.21875 0.734375q0 0.375 -0.203125 0.6875q-0.203125 0.296875 -0.59375 0.46875q0.515625 0.125 0.796875 0.5q0.28125 0.359375 0.28125 0.921875q0 0.75 -0.546875 1.28125q-0.546875 0.515625 -1.390625 0.515625q-0.75 0 -1.25 -0.453125q-0.5 -0.453125 -0.5625 -1.171875z" fill-rule="nonzero"/><path fill="#000000" fill-opacity="0.0" d="m126.35302 12.060368l19.811028 0l0 29.070866l-19.811028 0z" fill-rule="evenodd"/><path fill="#000000" d="m137.94676 28.740368l0 -1.375l-2.484375 0l0 -0.640625l2.609375 -3.71875l0.578125 0l0 3.71875l0.765625 0l0 0.640625l-0.765625 0l0 1.375l-0.703125 0zm0 -2.015625l0 -2.578125l-1.796875 2.578125l1.796875 0z" fill-rule="nonzero"/><path fill="#000000" fill-opacity="0.0" d="m64.431755 25.52756l19.811028 0l0 29.070868l-19.811028 0z" fill-rule="evenodd"/><path fill="#000000" d="m76.41613 42.207558l-0.703125 0l0 -4.484375q-0.25 0.25 -0.671875 0.5q-0.40625 0.234375 -0.734375 0.34375l0 -0.671875q0.59375 -0.28125 1.03125 -0.671875q0.4375 -0.390625 0.625 -0.765625l0.453125 0l0 5.75z" fill-rule="nonzero"/><path fill="#000000" fill-opacity="0.0" d="m79.91207 25.52756l19.811028 0l0 29.070868l-19.811028 0z" fill-rule="evenodd"/><path fill="#000000" d="m89.2402 39.379433q0 -1.015625 0.203125 -1.625q0.21875 -0.625 0.625 -0.953125q0.421875 -0.34375 1.046875 -0.34375q0.453125 0 0.796875 0.1875q0.359375 0.1875 0.578125 0.53125q0.234375 0.34375 0.359375 0.859375q0.125 0.5 0.125 1.34375q0 1.015625 -0.203125 1.640625q-0.203125 0.609375 -0.625 0.953125q-0.40625 0.328125 -1.03125 0.328125q-0.828125 0 -1.296875 -0.59375q-0.578125 -0.71875 -0.578125 -2.328125zm0.734375 0q0 1.40625 0.328125 1.875q0.328125 0.46875 0.8125 0.46875q0.484375 0 0.8125 -0.46875q0.328125 -0.46875 0.328125 -1.875q0 -1.40625 -0.328125 -1.875q-0.328125 -0.46875 -0.828125 -0.46875q-0.484375 0 -0.765625 0.40625q-0.359375 0.53125 -0.359375 1.9375z" fill-rule="nonzero"/><path fill="#000000" fill-opacity="0.0" d="m95.39239 25.538057l19.811028 0l0 29.070868l-19.811028 0z" fill-rule="evenodd"/><path fill="#000000" d="m107.37676 42.21806l-0.703125 0l0 -4.484375q-0.25 0.25 -0.671875 0.5q-0.40625 0.234375 -0.734375 0.34375l0 -0.671875q0.59375 -0.28125 1.03125 -0.671875q0.4375 -0.390625 0.625 -0.765625l0.453125 0l0 5.75z" fill-rule="nonzero"/><path fill="#000000" fill-opacity="0.0" d="m110.8727 25.538057l19.811028 0l0 29.070868l-19.811028 0z" fill-rule="evenodd"/><path fill="#000000" d="m123.90395 41.546185l0 0.671875l-3.78125 0q-0.015625 -0.25 0.078125 -0.484375q0.140625 -0.390625 0.453125 -0.765625q0.328125 -0.375 0.921875 -0.875q0.9375 -0.765625 1.265625 -1.203125q0.328125 -0.453125 0.328125 -0.84375q0 -0.421875 -0.296875 -0.703125q-0.296875 -0.296875 -0.78125 -0.296875q-0.5 0 -0.8125 0.3125q-0.296875 0.296875 -0.3125 0.84375l-0.71875 -0.078125q0.078125 -0.8125 0.5625 -1.234375q0.484375 -0.421875 1.296875 -0.421875q0.828125 0 1.296875 0.453125q0.484375 0.453125 0.484375 1.140625q0 0.34375 -0.140625 0.671875q-0.140625 0.328125 -0.46875 0.703125q-0.3125 0.359375 -1.078125 1.0q-0.625 0.53125 -0.8125 0.71875q-0.171875 0.1875 -0.296875 0.390625l2.8125 0z" fill-rule="nonzero"/><path fill="#000000" fill-opacity="0.0" d="m126.35302 25.538057l19.811028 0l0 29.070868l-19.811028 0z" fill-rule="evenodd"/><path fill="#000000" d="m135.69676 40.702435l0.703125 -0.09375q0.109375 0.59375 0.40625 0.859375q0.296875 0.265625 0.703125 0.265625q0.5 0 0.84375 -0.34375q0.34375 -0.34375 0.34375 -0.84375q0 -0.484375 -0.328125 -0.796875q-0.3125 -0.328125 -0.796875 -0.328125q-0.203125 0 -0.5 0.078125l0.078125 -0.609375q0.078125 0 0.125 0q0.4375 0 0.796875 -0.234375q0.359375 -0.234375 0.359375 -0.71875q0 -0.390625 -0.265625 -0.640625q-0.25 -0.25 -0.671875 -0.25q-0.40625 0 -0.6875 0.265625q-0.265625 0.25 -0.34375 0.765625l-0.703125 -0.125q0.125 -0.703125 0.578125 -1.09375q0.46875 -0.390625 1.140625 -0.390625q0.46875 0 0.859375 0.203125q0.40625 0.203125 0.609375 0.546875q0.21875 0.34375 0.21875 0.734375q0 0.375 -0.203125 0.6875q-0.203125 0.296875 -0.59375 0.46875q0.515625 0.125 0.796875 0.5q0.28125 0.359375 0.28125 0.921875q0 0.75 -0.546875 1.28125q-0.546875 0.515625 -1.390625 0.515625q-0.75 0 -1.25 -0.453125q-0.5 -0.453125 -0.5625 -1.171875z" fill-rule="nonzero"/><path fill="#000000" fill-opacity="0.0" d="m64.431755 39.979004l19.811028 0l0 29.070862l-19.811028 0z" fill-rule="evenodd"/><path fill="#000000" d="m77.463005 55.98713l0 0.671875l-3.78125 0q-0.015625 -0.25 0.078125 -0.484375q0.140625 -0.390625 0.453125 -0.765625q0.328125 -0.375 0.921875 -0.875q0.9375 -0.765625 1.265625 -1.203125q0.328125 -0.453125 0.328125 -0.84375q0 -0.421875 -0.296875 -0.703125q-0.296875 -0.296875 -0.78125 -0.296875q-0.5 0 -0.8125 0.3125q-0.296875 0.296875 -0.3125 0.84375l-0.71875 -0.078125q0.078125 -0.8125 0.5625 -1.234375q0.484375 -0.421875 1.296875 -0.421875q0.828125 0 1.296875 0.453125q0.484375 0.453125 0.484375 1.140625q0 0.34375 -0.140625 0.671875q-0.140625 0.328125 -0.46875 0.703125q-0.3125 0.359375 -1.078125 1.0q-0.625 0.53125 -0.8125 0.71875q-0.171875 0.1875 -0.296875 0.390625l2.8125 0z" fill-rule="nonzero"/><path fill="#000000" fill-opacity="0.0" d="m79.91207 39.979004l19.811028 0l0 29.070862l-19.811028 0z" fill-rule="evenodd"/><path fill="#000000" d="m91.89645 56.659004l-0.703125 0l0 -4.484375q-0.25 0.25 -0.671875 0.5q-0.40625 0.234375 -0.734375 0.34375l0 -0.671875q0.59375 -0.28125 1.03125 -0.671875q0.4375 -0.390625 0.625 -0.765625l0.453125 0l0 5.75z" fill-rule="nonzero"/><path fill="#000000" fill-opacity="0.0" d="m95.39239 39.989502l19.811028 0l0 29.070862l-19.811028 0z" fill-rule="evenodd"/><path fill="#000000" d="m104.72051 53.841377q0 -1.015625 0.203125 -1.625q0.21875 -0.625 0.625 -0.953125q0.421875 -0.34375 1.046875 -0.34375q0.453125 0 0.796875 0.1875q0.359375 0.1875 0.578125 0.53125q0.234375 0.34375 0.359375 0.859375q0.125 0.5 0.125 1.34375q0 1.015625 -0.203125 1.640625q-0.203125 0.609375 -0.625 0.953125q-0.40625 0.328125 -1.03125 0.328125q-0.828125 0 -1.296875 -0.59375q-0.578125 -0.71875 -0.578125 -2.328125zm0.734375 0q0 1.40625 0.328125 1.875q0.328125 0.46875 0.8125 0.46875q0.484375 0 0.8125 -0.46875q0.328125 -0.46875 0.328125 -1.875q0 -1.40625 -0.328125 -1.875q-0.328125 -0.46875 -0.828125 -0.46875q-0.484375 0 -0.765625 0.40625q-0.359375 0.53125 -0.359375 1.9375z" fill-rule="nonzero"/><path fill="#000000" fill-opacity="0.0" d="m110.8727 39.989502l19.811028 0l0 29.070862l-19.811028 0z" fill-rule="evenodd"/><path fill="#000000" d="m122.85708 56.669502l-0.703125 0l0 -4.484375q-0.25 0.25 -0.671875 0.5q-0.40625 0.234375 -0.734375 0.34375l0 -0.671875q0.59375 -0.28125 1.03125 -0.671875q0.4375 -0.390625 0.625 -0.765625l0.453125 0l0 5.75z" fill-rule="nonzero"/><path fill="#000000" fill-opacity="0.0" d="m126.35302 39.989502l19.811028 0l0 29.070862l-19.811028 0z" fill-rule="evenodd"/><path fill="#000000" d="m139.38426 55.997627l0 0.671875l-3.78125 0q-0.015625 -0.25 0.078125 -0.484375q0.140625 -0.390625 0.453125 -0.765625q0.328125 -0.375 0.921875 -0.875q0.9375 -0.765625 1.265625 -1.203125q0.328125 -0.453125 0.328125 -0.84375q0 -0.421875 -0.296875 -0.703125q-0.296875 -0.296875 -0.78125 -0.296875q-0.5 0 -0.8125 0.3125q-0.296875 0.296875 -0.3125 0.84375l-0.71875 -0.078125q0.078125 -0.8125 0.5625 -1.234375q0.484375 -0.421875 1.296875 -0.421875q0.828125 0 1.296875 0.453125q0.484375 0.453125 0.484375 1.140625q0 0.34375 -0.140625 0.671875q-0.140625 0.328125 -0.46875 0.703125q-0.3125 0.359375 -1.078125 1.0q-0.625 0.53125 -0.8125 0.71875q-0.171875 0.1875 -0.296875 0.390625l2.8125 0z" fill-rule="nonzero"/><path fill="#000000" fill-opacity="0.0" d="m64.431755 54.430447l19.811028 0l0 29.070866l-19.811028 0z" fill-rule="evenodd"/><path fill="#000000" d="m73.775505 69.59482l0.703125 -0.09375q0.109375 0.59375 0.40625 0.859375q0.296875 0.265625 0.703125 0.265625q0.5 0 0.84375 -0.34375q0.34375 -0.34375 0.34375 -0.84375q0 -0.484375 -0.328125 -0.796875q-0.3125 -0.328125 -0.796875 -0.328125q-0.203125 0 -0.5 0.078125l0.078125 -0.609375q0.078125 0 0.125 0q0.4375 0 0.796875 -0.234375q0.359375 -0.234375 0.359375 -0.71875q0 -0.390625 -0.265625 -0.640625q-0.25 -0.25 -0.671875 -0.25q-0.40625 0 -0.6875 0.265625q-0.265625 0.25 -0.34375 0.765625l-0.703125 -0.125q0.125 -0.703125 0.578125 -1.09375q0.46875 -0.390625 1.140625 -0.390625q0.46875 0 0.859375 0.203125q0.40625 0.203125 0.609375 0.546875q0.21875 0.34375 0.21875 0.734375q0 0.375 -0.203125 0.6875q-0.203125 0.296875 -0.59375 0.46875q0.515625 0.125 0.796875 0.5q0.28125 0.359375 0.28125 0.921875q0 0.75 -0.546875 1.28125q-0.546875 0.515625 -1.390625 0.515625q-0.75 0 -1.25 -0.453125q-0.5 -0.453125 -0.5625 -1.171875z" fill-rule="nonzero"/><path fill="#000000" fill-opacity="0.0" d="m79.91207 54.430447l19.811028 0l0 29.070866l-19.811028 0z" fill-rule="evenodd"/><path fill="#000000" d="m92.94332 70.43857l0 0.671875l-3.78125 0q-0.015625 -0.25 0.078125 -0.484375q0.140625 -0.390625 0.453125 -0.765625q0.328125 -0.375 0.921875 -0.875q0.9375 -0.765625 1.265625 -1.203125q0.328125 -0.453125 0.328125 -0.84375q0 -0.421875 -0.296875 -0.703125q-0.296875 -0.296875 -0.78125 -0.296875q-0.5 0 -0.8125 0.3125q-0.296875 0.296875 -0.3125 0.84375l-0.71875 -0.078125q0.078125 -0.8125 0.5625 -1.234375q0.484375 -0.421875 1.296875 -0.421875q0.828125 0 1.296875 0.453125q0.484375 0.453125 0.484375 1.140625q0 0.34375 -0.140625 0.671875q-0.140625 0.328125 -0.46875 0.703125q-0.3125 0.359375 -1.078125 1.0q-0.625 0.53125 -0.8125 0.71875q-0.171875 0.1875 -0.296875 0.390625l2.8125 0z" fill-rule="nonzero"/><path fill="#000000" fill-opacity="0.0" d="m95.39239 54.440945l19.811028 0l0 29.070866l-19.811028 0z" fill-rule="evenodd"/><path fill="#000000" d="m107.37676 71.12095l-0.703125 0l0 -4.484375q-0.25 0.25 -0.671875 0.5q-0.40625 0.234375 -0.734375 0.34375l0 -0.671875q0.59375 -0.28125 1.03125 -0.671875q0.4375 -0.390625 0.625 -0.765625l0.453125 0l0 5.75z" fill-rule="nonzero"/><path fill="#000000" fill-opacity="0.0" d="m110.8727 54.440945l19.811028 0l0 29.070866l-19.811028 0z" fill-rule="evenodd"/><path fill="#000000" d="m120.20083 68.29282q0 -1.015625 0.203125 -1.625q0.21875 -0.625 0.625 -0.953125q0.421875 -0.34375 1.046875 -0.34375q0.453125 0 0.796875 0.1875q0.359375 0.1875 0.578125 0.53125q0.234375 0.34375 0.359375 0.859375q0.125 0.5 0.125 1.34375q0 1.015625 -0.203125 1.640625q-0.203125 0.609375 -0.625 0.953125q-0.40625 0.328125 -1.03125 0.328125q-0.828125 0 -1.296875 -0.59375q-0.578125 -0.71875 -0.578125 -2.328125zm0.734375 0q0 1.40625 0.328125 1.875q0.328125 0.46875 0.8125 0.46875q0.484375 0 0.8125 -0.46875q0.328125 -0.46875 0.328125 -1.875q0 -1.40625 -0.328125 -1.875q-0.328125 -0.46875 -0.828125 -0.46875q-0.484375 0 -0.765625 0.40625q-0.359375 0.53125 -0.359375 1.9375z" fill-rule="nonzero"/><path fill="#000000" fill-opacity="0.0" d="m126.35302 54.440945l19.811028 0l0 29.070866l-19.811028 0z" fill-rule="evenodd"/><path fill="#000000" d="m138.33739 71.12095l-0.703125 0l0 -4.484375q-0.25 0.25 -0.671875 0.5q-0.40625 0.234375 -0.734375 0.34375l0 -0.671875q0.59375 -0.28125 1.03125 -0.671875q0.4375 -0.390625 0.625 -0.765625l0.453125 0l0 5.75z" fill-rule="nonzero"/><path fill="#000000" fill-opacity="0.0" d="m64.431755 69.338585l19.811028 0l0 29.070862l-19.811028 0z" fill-rule="evenodd"/><path fill="#000000" d="m76.025505 86.018585l0 -1.375l-2.484375 0l0 -0.640625l2.609375 -3.71875l0.578125 0l0 3.71875l0.765625 0l0 0.640625l-0.765625 0l0 1.375l-0.703125 0zm0 -2.015625l0 -2.578125l-1.796875 2.578125l1.796875 0z" fill-rule="nonzero"/><path fill="#000000" fill-opacity="0.0" d="m79.91207 69.338585l19.811028 0l0 29.070862l-19.811028 0z" fill-rule="evenodd"/><path fill="#000000" d="m89.25582 84.50296l0.703125 -0.09375q0.109375 0.59375 0.40625 0.859375q0.296875 0.265625 0.703125 0.265625q0.5 0 0.84375 -0.34375q0.34375 -0.34375 0.34375 -0.84375q0 -0.484375 -0.328125 -0.796875q-0.3125 -0.328125 -0.796875 -0.328125q-0.203125 0 -0.5 0.078125l0.078125 -0.609375q0.078125 0 0.125 0q0.4375 0 0.796875 -0.234375q0.359375 -0.234375 0.359375 -0.71875q0 -0.390625 -0.265625 -0.640625q-0.25 -0.25 -0.671875 -0.25q-0.40625 0 -0.6875 0.265625q-0.265625 0.25 -0.34375 0.765625l-0.703125 -0.125q0.125 -0.703125 0.578125 -1.09375q0.46875 -0.390625 1.140625 -0.390625q0.46875 0 0.859375 0.203125q0.40625 0.203125 0.609375 0.546875q0.21875 0.34375 0.21875 0.734375q0 0.375 -0.203125 0.6875q-0.203125 0.296875 -0.59375 0.46875q0.515625 0.125 0.796875 0.5q0.28125 0.359375 0.28125 0.921875q0 0.75 -0.546875 1.28125q-0.546875 0.515625 -1.390625 0.515625q-0.75 0 -1.25 -0.453125q-0.5 -0.453125 -0.5625 -1.171875z" fill-rule="nonzero"/><path fill="#000000" fill-opacity="0.0" d="m95.39239 69.34908l19.811028 0l0 29.070862l-19.811028 0z" fill-rule="evenodd"/><path fill="#000000" d="m108.42364 85.35721l0 0.671875l-3.78125 0q-0.015625 -0.25 0.078125 -0.484375q0.140625 -0.390625 0.453125 -0.765625q0.328125 -0.375 0.921875 -0.875q0.9375 -0.765625 1.265625 -1.203125q0.328125 -0.453125 0.328125 -0.84375q0 -0.421875 -0.296875 -0.703125q-0.296875 -0.296875 -0.78125 -0.296875q-0.5 0 -0.8125 0.3125q-0.296875 0.296875 -0.3125 0.84375l-0.71875 -0.078125q0.078125 -0.8125 0.5625 -1.234375q0.484375 -0.421875 1.296875 -0.421875q0.828125 0 1.296875 0.453125q0.484375 0.453125 0.484375 1.140625q0 0.34375 -0.140625 0.671875q-0.140625 0.328125 -0.46875 0.703125q-0.3125 0.359375 -1.078125 1.0q-0.625 0.53125 -0.8125 0.71875q-0.171875 0.1875 -0.296875 0.390625l2.8125 0z" fill-rule="nonzero"/><path fill="#000000" fill-opacity="0.0" d="m110.8727 69.34908l19.811028 0l0 29.070862l-19.811028 0z" fill-rule="evenodd"/><path fill="#000000" d="m122.85708 86.02908l-0.703125 0l0 -4.484375q-0.25 0.25 -0.671875 0.5q-0.40625 0.234375 -0.734375 0.34375l0 -0.671875q0.59375 -0.28125 1.03125 -0.671875q0.4375 -0.390625 0.625 -0.765625l0.453125 0l0 5.75z" fill-rule="nonzero"/><path fill="#000000" fill-opacity="0.0" d="m126.35302 69.34908l19.811028 0l0 29.070862l-19.811028 0z" fill-rule="evenodd"/><path fill="#000000" d="m135.68114 83.20096q0 -1.015625 0.203125 -1.625q0.21875 -0.625 0.625 -0.953125q0.421875 -0.34375 1.046875 -0.34375q0.453125 0 0.796875 0.1875q0.359375 0.1875 0.578125 0.53125q0.234375 0.34375 0.359375 0.859375q0.125 0.5 0.125 1.34375q0 1.015625 -0.203125 1.640625q-0.203125 0.609375 -0.625 0.953125q-0.40625 0.328125 -1.03125 0.328125q-0.828125 0 -1.296875 -0.59375q-0.578125 -0.71875 -0.578125 -2.328125zm0.734375 0q0 1.40625 0.328125 1.875q0.328125 0.46875 0.8125 0.46875q0.484375 0 0.8125 -0.46875q0.328125 -0.46875 0.328125 -1.875q0 -1.40625 -0.328125 -1.875q-0.328125 -0.46875 -0.828125 -0.46875q-0.484375 0 -0.765625 0.40625q-0.359375 0.53125 -0.359375 1.9375z" fill-rule="nonzero"/></g></svg>