<svg version="1.1" viewBox="0.0 0.0 215.60367454068242 119.28346456692914" fill="none" stroke="none" stroke-linecap="square" stroke-miterlimit="10" xmlns:xlink="http://www.w3.org/1999/xlink" xmlns="http://www.w3.org/2000/svg"><clipPath id="p.0"><path d="m0 0l215.60367 0l0 119.28346l-215.60367 0l0 -119.28346z" clip-rule="nonzero"/></clipPath><g clip-path="url(#p.0)"><path fill="#000000" fill-opacity="0.0" d="m0 0l215.60367 0l0 119.28346l-215.60367 0z" fill-rule="evenodd"/><path fill="#000000" fill-opacity="0.0" d="m68.32415 19.486034l-0.34645844 97.133865" fill-rule="evenodd"/><path stroke="#000000" stroke-width="1.0" stroke-linejoin="round" stroke-linecap="butt" d="m68.32415 19.486034l-0.34645844 97.133865" fill-rule="evenodd"/><path fill="#000000" fill-opacity="0.0" d="m56.64173 30.456694l104.53544 0" fill-rule="evenodd"/><path stroke="#000000" stroke-width="1.0" stroke-linejoin="round" stroke-linecap="butt" d="m56.64173 30.456694l104.53544 0" fill-rule="evenodd"/><path fill="#000000" fill-opacity="0.0" d="m56.64173 45.36483l104.53544 0" fill-rule="evenodd"/><path stroke="#000000" stroke-width="1.0" stroke-linejoin="round" stroke-linecap="butt" d="m56.64173 45.36483l104.53544 0" fill-rule="evenodd"/><path fill="#000000" fill-opacity="0.0" d="m83.97769 19.486034l-0.34645844 97.133865" fill-rule="evenodd"/><path stroke="#000000" stroke-width="1.0" stroke-linejoin="round" stroke-linecap="butt" d="m83.97769 19.486034l-0.34645844 97.133865" fill-rule="evenodd"/><path fill="#000000" fill-opacity="0.0" d="m99.63123 19.165354l-0.34645844 97.13386" fill-rule="evenodd"/><path stroke="#000000" stroke-width="1.0" stroke-linejoin="round" stroke-linecap="butt" d="m99.63123 19.165354l-0.34645844 97.13386" fill-rule="evenodd"/><path fill="#000000" fill-opacity="0.0" d="m115.284775 19.165354l-0.3464508 97.13386" fill-rule="evenodd"/><path stroke="#000000" stroke-width="1.0" stroke-linejoin="round" stroke-linecap="butt" d="m115.284775 19.165354l-0.3464508 97.13386" fill-rule="evenodd"/><path fill="#000000" fill-opacity="0.0" d="m130.93832 19.165354l-0.34646606 97.13386" fill-rule="evenodd"/><path stroke="#000000" stroke-width="1.0" stroke-linejoin="round" stroke-linecap="butt" d="m130.93832 19.165354l-0.34646606 97.13386" fill-rule="evenodd"/><path fill="#000000" fill-opacity="0.0" d="m146.59186 19.165354l-0.3464508 97.13386" fill-rule="evenodd"/><path stroke="#000000" stroke-width="1.0" stroke-linejoin="round" stroke-linecap="butt" d="m146.59186 19.165354l-0.3464508 97.13386" fill-rule="evenodd"/><path fill="#000000" fill-opacity="0.0" d="m56.64173 59.35958l104.53544 0" fill-rule="evenodd"/><path stroke="#000000" stroke-width="1.0" stroke-linejoin="round" stroke-linecap="butt" d="m56.64173 59.35958l104.53544 0" fill-rule="evenodd"/><path fill="#000000" fill-opacity="0.0" d="m56.64173 74.267715l104.53544 0" fill-rule="evenodd"/><path stroke="#000000" stroke-width="1.0" stroke-linejoin="round" stroke-linecap="butt" d="m56.64173 74.267715l104.53544 0" fill-rule="evenodd"/><path fill="#000000" fill-opacity="0.0" d="m56.64173 88.26247l104.53544 0" fill-rule="evenodd"/><path stroke="#000000" stroke-width="1.0" stroke-linejoin="round" stroke-linecap="butt" d="m56.64173 88.26247l104.53544 0" fill-rule="evenodd"/><path fill="#000000" fill-opacity="0.0" d="m56.64173 103.1706l104.53544 0" fill-rule="evenodd"/><path stroke="#000000" stroke-width="1.0" stroke-linejoin="round" stroke-linecap="butt" d="m56.64173 103.1706l104.53544 0" fill-rule="evenodd"/><path fill="#000000" fill-opacity="0.0" d="m64.166664 9.902887l19.811028 0l0 29.070868l-19.811028 0z" fill-rule="evenodd"/><path fill="#38761d" d="m76.322914 26.582888l-1.109375 0l0 -4.140625q-0.59375 0.5625 -1.40625 0.828125l0 -0.984375q0.421875 -0.140625 0.921875 -0.53125q0.515625 -0.40625 0.703125 -0.921875l0.890625 0l0 5.75z" fill-rule="nonzero"/><path fill="#000000" fill-opacity="0.0" d="m79.82021 9.9042l19.81102 0l0 29.070868l-19.81102 0z" fill-rule="evenodd"/><path fill="#38761d" d="m92.86709 25.568575l0 1.015625l-3.84375 0q0.0625 -0.578125 0.375 -1.09375q0.3125 -0.515625 1.234375 -1.375q0.734375 -0.6875 0.90625 -0.9375q0.234375 -0.34375 0.234375 -0.671875q0 -0.375 -0.203125 -0.5625q-0.203125 -0.203125 -0.546875 -0.203125q-0.34375 0 -0.546875 0.21875q-0.203125 0.203125 -0.234375 0.671875l-1.09375 -0.109375q0.09375 -0.90625 0.609375 -1.296875q0.515625 -0.390625 1.296875 -0.390625q0.84375 0 1.328125 0.453125q0.484375 0.453125 0.484375 1.140625q0 0.390625 -0.140625 0.734375q-0.140625 0.34375 -0.4375 0.734375q-0.203125 0.25 -0.71875 0.734375q-0.515625 0.46875 -0.65625 0.625q-0.140625 0.15625 -0.21875 0.3125l2.171875 0z" fill-rule="nonzero"/><path fill="#000000" fill-opacity="0.0" d="m95.1273 9.902887l19.811028 0l0 29.070868l-19.811028 0z" fill-rule="evenodd"/><path fill="#38761d" d="m104.42417 25.067263l1.0625 -0.140625q0.0625 0.40625 0.28125 0.625q0.21875 0.21875 0.53125 0.21875q0.34375 0 0.578125 -0.25q0.234375 -0.265625 0.234375 -0.703125q0 -0.421875 -0.234375 -0.65625q-0.21875 -0.25 -0.53125 -0.25q-0.21875 0 -0.5 0.09375l0.109375 -0.90625q0.453125 0.015625 0.6875 -0.1875q0.234375 -0.203125 0.234375 -0.546875q0 -0.28125 -0.171875 -0.453125q-0.171875 -0.171875 -0.453125 -0.171875q-0.28125 0 -0.484375 0.203125q-0.203125 0.1875 -0.25 0.5625l-1.0 -0.171875q0.09375 -0.53125 0.3125 -0.828125q0.21875 -0.3125 0.59375 -0.484375q0.375 -0.1875 0.859375 -0.1875q0.796875 0 1.296875 0.515625q0.390625 0.421875 0.390625 0.953125q0 0.75 -0.8125 1.203125q0.484375 0.109375 0.78125 0.484375q0.296875 0.359375 0.296875 0.875q0 0.75 -0.5625 1.28125q-0.546875 0.53125 -1.359375 0.53125q-0.78125 0 -1.296875 -0.4375q-0.5 -0.453125 -0.59375 -1.171875z" fill-rule="nonzero"/><path fill="#000000" fill-opacity="0.0" d="m110.78084 9.9042l19.81102 0l0 29.070868l-19.81102 0z" fill-rule="evenodd"/><path fill="#38761d" d="m122.28084 26.5842l0 -1.15625l-2.34375 0l0 -0.953125l2.484375 -3.640625l0.921875 0l0 3.625l0.703125 0l0 0.96875l-0.703125 0l0 1.15625l-1.0625 0zm0 -2.125l0 -1.953125l-1.328125 1.953125l1.328125 0z" fill-rule="nonzero"/><path fill="#000000" fill-opacity="0.0" d="m126.78084 9.9042l19.81102 0l0 29.070868l-19.81102 0z" fill-rule="evenodd"/><path fill="#38761d" d="m136.14021 25.11545l1.09375 -0.125q0.046875 0.375 0.265625 0.59375q0.234375 0.21875 0.546875 0.21875q0.34375 0 0.578125 -0.28125q0.234375 -0.28125 0.234375 -0.84375q0 -0.53125 -0.234375 -0.78125q-0.234375 -0.265625 -0.609375 -0.265625q-0.484375 0 -0.859375 0.40625l-0.890625 -0.125l0.5625 -2.984375l2.90625 0l0 1.03125l-2.0625 0l-0.171875 0.96875q0.359375 -0.171875 0.75 -0.171875q0.71875 0 1.21875 0.53125q0.515625 0.53125 0.515625 1.375q0 0.703125 -0.40625 1.265625q-0.5625 0.75 -1.546875 0.75q-0.796875 0 -1.296875 -0.421875q-0.5 -0.421875 -0.59375 -1.140625z" fill-rule="nonzero"/><path fill="#000000" fill-opacity="0.0" d="m50.156166 24.35433l19.811028 0l0 29.070868l-19.811028 0z" fill-rule="evenodd"/><path fill="#0b5394" d="m62.312416 41.034332l-1.109375 0l0 -4.140625q-0.59375 0.5625 -1.40625 0.828125l0 -0.984375q0.421875 -0.140625 0.921875 -0.53125q0.515625 -0.40625 0.703125 -0.921875l0.890625 0l0 5.75z" fill-rule="nonzero"/><path fill="#000000" fill-opacity="0.0" d="m50.154854 37.82546l19.811028 0l0 29.070866l-19.811028 0z" fill-rule="evenodd"/><path fill="#0b5394" d="m63.20173 53.489834l0 1.015625l-3.84375 0q0.0625 -0.578125 0.375 -1.09375q0.3125 -0.515625 1.234375 -1.375q0.734375 -0.6875 0.90625 -0.9375q0.234375 -0.34375 0.234375 -0.671875q0 -0.375 -0.203125 -0.5625q-0.203125 -0.203125 -0.546875 -0.203125q-0.34375 0 -0.546875 0.21875q-0.203125 0.203125 -0.234375 0.671875l-1.09375 -0.109375q0.09375 -0.90625 0.609375 -1.296875q0.515625 -0.390625 1.296875 -0.390625q0.84375 0 1.328125 0.453125q0.484375 0.453125 0.484375 1.140625q0 0.390625 -0.140625 0.734375q-0.140625 0.34375 -0.4375 0.734375q-0.203125 0.25 -0.71875 0.734375q-0.515625 0.46875 -0.65625 0.625q-0.140625 0.15625 -0.21875 0.3125l2.171875 0z" fill-rule="nonzero"/><path fill="#000000" fill-opacity="0.0" d="m50.154854 52.278214l19.811028 0l0 29.07087l-19.811028 0z" fill-rule="evenodd"/><path fill="#0b5394" d="m59.45173 67.44259l1.0625 -0.140625q0.0625 0.40625 0.28125 0.625q0.21875 0.21875 0.53125 0.21875q0.34375 0 0.578125 -0.25q0.234375 -0.265625 0.234375 -0.703125q0 -0.421875 -0.234375 -0.65625q-0.21875 -0.25 -0.53125 -0.25q-0.21875 0 -0.5 0.09375l0.109375 -0.90625q0.453125 0.015625 0.6875 -0.1875q0.234375 -0.203125 0.234375 -0.546875q0 -0.28125 -0.171875 -0.453125q-0.171875 -0.171875 -0.453125 -0.171875q-0.28125 0 -0.484375 0.203125q-0.203125 0.1875 -0.25 0.5625l-1.0 -0.171875q0.09375 -0.53125 0.3125 -0.828125q0.21875 -0.3125 0.59375 -0.484375q0.375 -0.1875 0.859375 -0.1875q0.796875 0 1.296875 0.515625q0.390625 0.421875 0.390625 0.953125q0 0.75 -0.8125 1.203125q0.484375 0.109375 0.78125 0.484375q0.296875 0.359375 0.296875 0.875q0 0.75 -0.5625 1.28125q-0.546875 0.53125 -1.359375 0.53125q-0.78125 0 -1.296875 -0.4375q-0.5 -0.453125 -0.59375 -1.171875z" fill-rule="nonzero"/><path fill="#000000" fill-opacity="0.0" d="m50.154854 66.896324l19.811028 0l0 29.07087l-19.811028 0z" fill-rule="evenodd"/><path fill="#0b5394" d="m61.654854 83.576324l0 -1.15625l-2.34375 0l0 -0.953125l2.484375 -3.640625l0.921875 0l0 3.625l0.703125 0l0 0.96875l-0.703125 0l0 1.15625l-1.0625 0zm0 -2.125l0 -1.953125l-1.328125 1.953125l1.328125 0z" fill-rule="nonzero"/><path fill="#000000" fill-opacity="0.0" d="m50.154854 81.34908l19.811028 0l0 29.070862l-19.811028 0z" fill-rule="evenodd"/><path fill="#0b5394" d="m59.51423 96.56033l1.09375 -0.125q0.046875 0.375 0.265625 0.59375q0.234375 0.21875 0.546875 0.21875q0.34375 0 0.578125 -0.28125q0.234375 -0.28125 0.234375 -0.84375q0 -0.53125 -0.234375 -0.78125q-0.234375 -0.265625 -0.609375 -0.265625q-0.484375 0 -0.859375 0.40625l-0.890625 -0.125l0.5625 -2.984375l2.90625 0l0 1.03125l-2.0625 0l-0.171875 0.96875q0.359375 -0.171875 0.75 -0.171875q0.71875 0 1.21875 0.53125q0.515625 0.53125 0.515625 1.375q0 0.703125 -0.40625 1.265625q-0.5625 0.75 -1.546875 0.75q-0.796875 0 -1.296875 -0.421875q-0.5 -0.421875 -0.59375 -1.140625z" fill-rule="nonzero"/><path fill="#000000" fill-opacity="0.0" d="m64.166664 24.343832l19.811028 0l0 29.070868l-19.811028 0z" fill-rule="evenodd"/><path fill="#000000" d="m77.197914 40.35196l0 0.671875l-3.78125 0q-0.015625 -0.25 0.078125 -0.484375q0.140625 -0.390625 0.453125 -0.765625q0.328125 -0.375 0.921875 -0.875q0.9375 -0.765625 1.265625 -1.203125q0.328125 -0.453125 0.328125 -0.84375q0 -0.421875 -0.296875 -0.703125q-0.296875 -0.296875 -0.78125 -0.296875q-0.5 0 -0.8125 0.3125q-0.296875 0.296875 -0.3125 0.84375l-0.71875 -0.078125q0.078125 -0.8125 0.5625 -1.234375q0.484375 -0.421875 1.296875 -0.421875q0.828125 0 1.296875 0.453125q0.484375 0.453125 0.484375 1.140625q0 0.34375 -0.140625 0.671875q-0.140625 0.328125 -0.46875 0.703125q-0.3125 0.359375 -1.078125 1.0q-0.625 0.53125 -0.8125 0.71875q-0.171875 0.1875 -0.296875 0.390625l2.8125 0z" fill-rule="nonzero"/><path fill="#000000" fill-opacity="0.0" d="m79.64698 24.343832l19.811028 0l0 29.070868l-19.811028 0z" fill-rule="evenodd"/><path fill="#000000" d="m88.975105 38.19571q0 -1.015625 0.203125 -1.625q0.21875 -0.625 0.625 -0.953125q0.421875 -0.34375 1.046875 -0.34375q0.453125 0 0.796875 0.1875q0.359375 0.1875 0.578125 0.53125q0.234375 0.34375 0.359375 0.859375q0.125 0.5 0.125 1.34375q0 1.015625 -0.203125 1.640625q-0.203125 0.609375 -0.625 0.953125q-0.40625 0.328125 -1.03125 0.328125q-0.828125 0 -1.296875 -0.59375q-0.578125 -0.71875 -0.578125 -2.328125zm0.734375 0q0 1.40625 0.328125 1.875q0.328125 0.46875 0.8125 0.46875q0.484375 0 0.8125 -0.46875q0.328125 -0.46875 0.328125 -1.875q0 -1.40625 -0.328125 -1.875q-0.328125 -0.46875 -0.828125 -0.46875q-0.484375 0 -0.765625 0.40625q-0.359375 0.53125 -0.359375 1.9375z" fill-rule="nonzero"/><path fill="#000000" fill-opacity="0.0" d="m95.1273 24.35433l19.811028 0l0 29.070868l-19.811028 0z" fill-rule="evenodd"/><path fill="#000000" d="m107.11167 41.034332l-0.703125 0l0 -4.484375q-0.25 0.25 -0.671875 0.5q-0.40625 0.234375 -0.734375 0.34375l0 -0.671875q0.59375 -0.28125 1.03125 -0.671875q0.4375 -0.390625 0.625 -0.765625l0.453125 0l0 5.75z" fill-rule="nonzero"/><path fill="#000000" fill-opacity="0.0" d="m110.60761 24.35433l19.811028 0l0 29.070868l-19.811028 0z" fill-rule="evenodd"/><path fill="#000000" d="m119.93574 38.206207q0 -1.015625 0.203125 -1.625q0.21875 -0.625 0.625 -0.953125q0.421875 -0.34375 1.046875 -0.34375q0.453125 0 0.796875 0.1875q0.359375 0.1875 0.578125 0.53125q0.234375 0.34375 0.359375 0.859375q0.125 0.5 0.125 1.34375q0 1.015625 -0.203125 1.640625q-0.203125 0.609375 -0.625 0.953125q-0.40625 0.328125 -1.03125 0.328125q-0.828125 0 -1.296875 -0.59375q-0.578125 -0.71875 -0.578125 -2.328125zm0.734375 0q0 1.40625 0.328125 1.875q0.328125 0.46875 0.8125 0.46875q0.484375 0 0.8125 -0.46875q0.328125 -0.46875 0.328125 -1.875q0 -1.40625 -0.328125 -1.875q-0.328125 -0.46875 -0.828125 -0.46875q-0.484375 0 -0.765625 0.40625q-0.359375 0.53125 -0.359375 1.9375z" fill-rule="nonzero"/><path fill="#000000" fill-opacity="0.0" d="m126.08793 24.35433l19.811028 0l0 29.070868l-19.811028 0z" fill-rule="evenodd"/><path fill="#000000" d="m135.41605 38.206207q0 -1.015625 0.203125 -1.625q0.21875 -0.625 0.625 -0.953125q0.421875 -0.34375 1.046875 -0.34375q0.453125 0 0.796875 0.1875q0.359375 0.1875 0.578125 0.53125q0.234375 0.34375 0.359375 0.859375q0.125 0.5 0.125 1.34375q0 1.015625 -0.203125 1.640625q-0.203125 0.609375 -0.625 0.953125q-0.40625 0.328125 -1.03125 0.328125q-0.828125 0 -1.296875 -0.59375q-0.578125 -0.71875 -0.578125 -2.328125zm0.734375 0q0 1.40625 0.328125 1.875q0.328125 0.46875 0.8125 0.46875q0.484375 0 0.8125 -0.46875q0.328125 -0.46875 0.328125 -1.875q0 -1.40625 -0.328125 -1.875q-0.328125 -0.46875 -0.828125 -0.46875q-0.484375 0 -0.765625 0.40625q-0.359375 0.53125 -0.359375 1.9375z" fill-rule="nonzero"/><path fill="#000000" fill-opacity="0.0" d="m64.166664 37.82152l19.811028 0l0 29.070866l-19.811028 0z" fill-rule="evenodd"/><path fill="#000000" d="m73.49479 51.673397q0 -1.015625 0.203125 -1.625q0.21875 -0.625 0.625 -0.953125q0.421875 -0.34375 1.046875 -0.34375q0.453125 0 0.796875 0.1875q0.359375 0.1875 0.578125 0.53125q0.234375 0.34375 0.359375 0.859375q0.125 0.5 0.125 1.34375q0 1.015625 -0.203125 1.640625q-0.203125 0.609375 -0.625 0.953125q-0.40625 0.328125 -1.03125 0.328125q-0.828125 0 -1.296875 -0.59375q-0.578125 -0.71875 -0.578125 -2.328125zm0.734375 0q0 1.40625 0.328125 1.875q0.328125 0.46875 0.8125 0.46875q0.484375 0 0.8125 -0.46875q0.328125 -0.46875 0.328125 -1.875q0 -1.40625 -0.328125 -1.875q-0.328125 -0.46875 -0.828125 -0.46875q-0.484375 0 -0.765625 0.40625q-0.359375 0.53125 -0.359375 1.9375z" fill-rule="nonzero"/><path fill="#000000" fill-opacity="0.0" d="m79.64698 37.82152l19.811028 0l0 29.070866l-19.811028 0z" fill-rule="evenodd"/><path fill="#000000" d="m91.631355 54.501522l-0.703125 0l0 -4.484375q-0.25 0.25 -0.671875 0.5q-0.40625 0.234375 -0.734375 0.34375l0 -0.671875q0.59375 -0.28125 1.03125 -0.671875q0.4375 -0.390625 0.625 -0.765625l0.453125 0l0 5.75z" fill-rule="nonzero"/><path fill="#000000" fill-opacity="0.0" d="m95.1273 37.83202l19.811028 0l0 29.070866l-19.811028 0z" fill-rule="evenodd"/><path fill="#000000" d="m104.45542 51.683895q0 -1.015625 0.203125 -1.625q0.21875 -0.625 0.625 -0.953125q0.421875 -0.34375 1.046875 -0.34375q0.453125 0 0.796875 0.1875q0.359375 0.1875 0.578125 0.53125q0.234375 0.34375 0.359375 0.859375q0.125 0.5 0.125 1.34375q0 1.015625 -0.203125 1.640625q-0.203125 0.609375 -0.625 0.953125q-0.40625 0.328125 -1.03125 0.328125q-0.828125 0 -1.296875 -0.59375q-0.578125 -0.71875 -0.578125 -2.328125zm0.734375 0q0 1.40625 0.328125 1.875q0.328125 0.46875 0.8125 0.46875q0.484375 0 0.8125 -0.46875q0.328125 -0.46875 0.328125 -1.875q0 -1.40625 -0.328125 -1.875q-0.328125 -0.46875 -0.828125 -0.46875q-0.484375 0 -0.765625 0.40625q-0.359375 0.53125 -0.359375 1.9375z" fill-rule="nonzero"/><path fill="#000000" fill-opacity="0.0" d="m110.60761 37.83202l19.811028 0l0 29.070866l-19.811028 0z" fill-rule="evenodd"/><path fill="#000000" d="m119.93574 51.683895q0 -1.015625 0.203125 -1.625q0.21875 -0.625 0.625 -0.953125q0.421875 -0.34375 1.046875 -0.34375q0.453125 0 0.796875 0.1875q0.359375 0.1875 0.578125 0.53125q0.234375 0.34375 0.359375 0.859375q0.125 0.5 0.125 1.34375q0 1.015625 -0.203125 1.640625q-0.203125 0.609375 -0.625 0.953125q-0.40625 0.328125 -1.03125 0.328125q-0.828125 0 -1.296875 -0.59375q-0.578125 -0.71875 -0.578125 -2.328125zm0.734375 0q0 1.40625 0.328125 1.875q0.328125 0.46875 0.8125 0.46875q0.484375 0 0.8125 -0.46875q0.328125 -0.46875 0.328125 -1.875q0 -1.40625 -0.328125 -1.875q-0.328125 -0.46875 -0.828125 -0.46875q-0.484375 0 -0.765625 0.40625q-0.359375 0.53125 -0.359375 1.9375z" fill-rule="nonzero"/><path fill="#000000" fill-opacity="0.0" d="m126.08793 37.83202l19.811028 0l0 29.070866l-19.811028 0z" fill-rule="evenodd"/><path fill="#000000" d="m135.41605 51.683895q0 -1.015625 0.203125 -1.625q0.21875 -0.625 0.625 -0.953125q0.421875 -0.34375 1.046875 -0.34375q0.453125 0 0.796875 0.1875q0.359375 0.1875 0.578125 0.53125q0.234375 0.34375 0.359375 0.859375q0.125 0.5 0.125 1.34375q0 1.015625 -0.203125 1.640625q-0.203125 0.609375 -0.625 0.953125q-0.40625 0.328125 -1.03125 0.328125q-0.828125 0 -1.296875 -0.59375q-0.578125 -0.71875 -0.578125 -2.328125zm0.734375 0q0 1.40625 0.328125 1.875q0.328125 0.46875 0.8125 0.46875q0.484375 0 0.8125 -0.46875q0.328125 -0.46875 0.328125 -1.875q0 -1.40625 -0.328125 -1.875q-0.328125 -0.46875 -0.828125 -0.46875q-0.484375 0 -0.765625 0.40625q-0.359375 0.53125 -0.359375 1.9375z" fill-rule="nonzero"/><path fill="#000000" fill-opacity="0.0" d="m64.166664 52.272964l19.811028 0l0 29.07087l-19.811028 0z" fill-rule="evenodd"/><path fill="#000000" d="m73.49479 66.12484q0 -1.015625 0.203125 -1.625q0.21875 -0.625 0.625 -0.953125q0.421875 -0.34375 1.046875 -0.34375q0.453125 0 0.796875 0.1875q0.359375 0.1875 0.578125 0.53125q0.234375 0.34375 0.359375 0.859375q0.125 0.5 0.125 1.34375q0 1.015625 -0.203125 1.640625q-0.203125 0.609375 -0.625 0.953125q-0.40625 0.328125 -1.03125 0.328125q-0.828125 0 -1.296875 -0.59375q-0.578125 -0.71875 -0.578125 -2.328125zm0.734375 0q0 1.40625 0.328125 1.875q0.328125 0.46875 0.8125 0.46875q0.484375 0 0.8125 -0.46875q0.328125 -0.46875 0.328125 -1.875q0 -1.40625 -0.328125 -1.875q-0.328125 -0.46875 -0.828125 -0.46875q-0.484375 0 -0.765625 0.40625q-0.359375 0.53125 -0.359375 1.9375z" fill-rule="nonzero"/><path fill="#000000" fill-opacity="0.0" d="m79.64698 52.272964l19.811028 0l0 29.07087l-19.811028 0z" fill-rule="evenodd"/><path fill="#000000" d="m88.975105 66.12484q0 -1.015625 0.203125 -1.625q0.21875 -0.625 0.625 -0.953125q0.421875 -0.34375 1.046875 -0.34375q0.453125 0 0.796875 0.1875q0.359375 0.1875 0.578125 0.53125q0.234375 0.34375 0.359375 0.859375q0.125 0.5 0.125 1.34375q0 1.015625 -0.203125 1.640625q-0.203125 0.609375 -0.625 0.953125q-0.40625 0.328125 -1.03125 0.328125q-0.828125 0 -1.296875 -0.59375q-0.578125 -0.71875 -0.578125 -2.328125zm0.734375 0q0 1.40625 0.328125 1.875q0.328125 0.46875 0.8125 0.46875q0.484375 0 0.8125 -0.46875q0.328125 -0.46875 0.328125 -1.875q0 -1.40625 -0.328125 -1.875q-0.328125 -0.46875 -0.828125 -0.46875q-0.484375 0 -0.765625 0.40625q-0.359375 0.53125 -0.359375 1.9375z" fill-rule="nonzero"/><path fill="#000000" fill-opacity="0.0" d="m95.1273 52.283466l19.811028 0l0 29.070866l-19.811028 0z" fill-rule="evenodd"/><path fill="#000000" d="m108.15855 68.29159l0 0.671875l-3.78125 0q-0.015625 -0.25 0.078125 -0.484375q0.140625 -0.390625 0.453125 -0.765625q0.328125 -0.375 0.921875 -0.875q0.9375 -0.765625 1.265625 -1.203125q0.328125 -0.453125 0.328125 -0.84375q0 -0.421875 -0.296875 -0.703125q-0.296875 -0.2968712 -0.78125 -0.2968712q-0.5 0 -0.8125 0.3124962q-0.296875 0.296875 -0.3125 0.84375l-0.71875 -0.078125q0.078125 -0.8125 0.5625 -1.2343712q0.484375 -0.421875 1.296875 -0.421875q0.828125 0 1.296875 0.453125q0.484375 0.4531212 0.484375 1.1406212q0 0.34375 -0.140625 0.671875q-0.140625 0.328125 -0.46875 0.703125q-0.3125 0.359375 -1.078125 1.0q-0.625 0.53125 -0.8125 0.71875q-0.171875 0.1875 -0.296875 0.390625l2.8125 0z" fill-rule="nonzero"/><path fill="#000000" fill-opacity="0.0" d="m110.60761 52.283466l19.811028 0l0 29.070866l-19.811028 0z" fill-rule="evenodd"/><path fill="#000000" d="m119.93574 66.13534q0 -1.015625 0.203125 -1.625q0.21875 -0.6249962 0.625 -0.9531212q0.421875 -0.34375 1.046875 -0.34375q0.453125 0 0.796875 0.1875q0.359375 0.1875 0.578125 0.53125q0.234375 0.3437462 0.359375 0.8593712q0.125 0.5 0.125 1.34375q0 1.015625 -0.203125 1.640625q-0.203125 0.609375 -0.625 0.953125q-0.40625 0.328125 -1.03125 0.328125q-0.828125 0 -1.296875 -0.59375q-0.578125 -0.71875 -0.578125 -2.328125zm0.734375 0q0 1.40625 0.328125 1.875q0.328125 0.46875 0.8125 0.46875q0.484375 0 0.8125 -0.46875q0.328125 -0.46875 0.328125 -1.875q0 -1.40625 -0.328125 -1.875q-0.328125 -0.4687462 -0.828125 -0.4687462q-0.484375 0 -0.765625 0.4062462q-0.359375 0.53125 -0.359375 1.9375z" fill-rule="nonzero"/><path fill="#000000" fill-opacity="0.0" d="m126.08793 52.283466l19.811028 0l0 29.070866l-19.811028 0z" fill-rule="evenodd"/><path fill="#000000" d="m135.41605 66.13534q0 -1.015625 0.203125 -1.625q0.21875 -0.6249962 0.625 -0.9531212q0.421875 -0.34375 1.046875 -0.34375q0.453125 0 0.796875 0.1875q0.359375 0.1875 0.578125 0.53125q0.234375 0.3437462 0.359375 0.8593712q0.125 0.5 0.125 1.34375q0 1.015625 -0.203125 1.640625q-0.203125 0.609375 -0.625 0.953125q-0.40625 0.328125 -1.03125 0.328125q-0.828125 0 -1.296875 -0.59375q-0.578125 -0.71875 -0.578125 -2.328125zm0.734375 0q0 1.40625 0.328125 1.875q0.328125 0.46875 0.8125 0.46875q0.484375 0 0.8125 -0.46875q0.328125 -0.46875 0.328125 -1.875q0 -1.40625 -0.328125 -1.875q-0.328125 -0.4687462 -0.828125 -0.4687462q-0.484375 0 -0.765625 0.4062462q-0.359375 0.53125 -0.359375 1.9375z" fill-rule="nonzero"/><path fill="#000000" fill-opacity="0.0" d="m64.166664 66.72441l19.811028 0l0 29.070862l-19.811028 0z" fill-rule="evenodd"/><path fill="#000000" d="m73.49479 80.57629q0 -1.015625 0.203125 -1.625q0.21875 -0.625 0.625 -0.953125q0.421875 -0.34375 1.046875 -0.34375q0.453125 0 0.796875 0.1875q0.359375 0.1875 0.578125 0.53125q0.234375 0.34375 0.359375 0.859375q0.125 0.5 0.125 1.34375q0 1.015625 -0.203125 1.640625q-0.203125 0.609375 -0.625 0.953125q-0.40625 0.328125 -1.03125 0.328125q-0.828125 0 -1.296875 -0.59375q-0.578125 -0.71875 -0.578125 -2.328125zm0.734375 0q0 1.40625 0.328125 1.875q0.328125 0.46875 0.8125 0.46875q0.484375 0 0.8125 -0.46875q0.328125 -0.46875 0.328125 -1.875q0 -1.40625 -0.328125 -1.875q-0.328125 -0.46875 -0.828125 -0.46875q-0.484375 0 -0.765625 0.40625q-0.359375 0.53125 -0.359375 1.9375z" fill-rule="nonzero"/><path fill="#000000" fill-opacity="0.0" d="m79.64698 66.72441l19.811028 0l0 29.070862l-19.811028 0z" fill-rule="evenodd"/><path fill="#000000" d="m88.975105 80.57629q0 -1.015625 0.203125 -1.625q0.21875 -0.625 0.625 -0.953125q0.421875 -0.34375 1.046875 -0.34375q0.453125 0 0.796875 0.1875q0.359375 0.1875 0.578125 0.53125q0.234375 0.34375 0.359375 0.859375q0.125 0.5 0.125 1.34375q0 1.015625 -0.203125 1.640625q-0.203125 0.609375 -0.625 0.953125q-0.40625 0.328125 -1.03125 0.328125q-0.828125 0 -1.296875 -0.59375q-0.578125 -0.71875 -0.578125 -2.328125zm0.734375 0q0 1.40625 0.328125 1.875q0.328125 0.46875 0.8125 0.46875q0.484375 0 0.8125 -0.46875q0.328125 -0.46875 0.328125 -1.875q0 -1.40625 -0.328125 -1.875q-0.328125 -0.46875 -0.828125 -0.46875q-0.484375 0 -0.765625 0.40625q-0.359375 0.53125 -0.359375 1.9375z" fill-rule="nonzero"/><path fill="#000000" fill-opacity="0.0" d="m95.1273 66.73491l19.811028 0l0 29.070862l-19.811028 0z" fill-rule="evenodd"/><path fill="#000000" d="m104.45542 80.586784q0 -1.015625 0.203125 -1.625q0.21875 -0.625 0.625 -0.953125q0.421875 -0.34375 1.046875 -0.34375q0.453125 0 0.796875 0.1875q0.359375 0.1875 0.578125 0.53125q0.234375 0.34375 0.359375 0.859375q0.125 0.5 0.125 1.34375q0 1.015625 -0.203125 1.640625q-0.203125 0.609375 -0.625 0.953125q-0.40625 0.328125 -1.03125 0.328125q-0.828125 0 -1.296875 -0.59375q-0.578125 -0.71875 -0.578125 -2.328125zm0.734375 0q0 1.40625 0.328125 1.875q0.328125 0.46875 0.8125 0.46875q0.484375 0 0.8125 -0.46875q0.328125 -0.46875 0.328125 -1.875q0 -1.40625 -0.328125 -1.875q-0.328125 -0.46875 -0.828125 -0.46875q-0.484375 0 -0.765625 0.40625q-0.359375 0.53125 -0.359375 1.9375z" fill-rule="nonzero"/><path fill="#000000" fill-opacity="0.0" d="m110.60761 66.73491l19.811028 0l0 29.070862l-19.811028 0z" fill-rule="evenodd"/><path fill="#000000" d="m123.63886 82.743034l0 0.671875l-3.78125 0q-0.015625 -0.25 0.078125 -0.484375q0.140625 -0.390625 0.453125 -0.765625q0.328125 -0.375 0.921875 -0.875q0.9375 -0.765625 1.265625 -1.203125q0.328125 -0.453125 0.328125 -0.84375q0 -0.421875 -0.296875 -0.703125q-0.296875 -0.296875 -0.78125 -0.296875q-0.5 0 -0.8125 0.3125q-0.296875 0.296875 -0.3125 0.84375l-0.71875 -0.078125q0.078125 -0.8125 0.5625 -1.234375q0.484375 -0.421875 1.296875 -0.421875q0.828125 0 1.296875 0.453125q0.484375 0.453125 0.484375 1.140625q0 0.34375 -0.140625 0.671875q-0.140625 0.328125 -0.46875 0.703125q-0.3125 0.359375 -1.078125 1.0q-0.625 0.53125 -0.8125 0.71875q-0.171875 0.1875 -0.296875 0.390625l2.8125 0z" fill-rule="nonzero"/><path fill="#000000" fill-opacity="0.0" d="m126.08793 66.73491l19.811028 0l0 29.070862l-19.811028 0z" fill-rule="evenodd"/><path fill="#000000" d="m135.41605 80.586784q0 -1.015625 0.203125 -1.625q0.21875 -0.625 0.625 -0.953125q0.421875 -0.34375 1.046875 -0.34375q0.453125 0 0.796875 0.1875q0.359375 0.1875 0.578125 0.53125q0.234375 0.34375 0.359375 0.859375q0.125 0.5 0.125 1.34375q0 1.015625 -0.203125 1.640625q-0.203125 0.609375 -0.625 0.953125q-0.40625 0.328125 -1.03125 0.328125q-0.828125 0 -1.296875 -0.59375q-0.578125 -0.71875 -0.578125 -2.328125zm0.734375 0q0 1.40625 0.328125 1.875q0.328125 0.46875 0.8125 0.46875q0.484375 0 0.8125 -0.46875q0.328125 -0.46875 0.328125 -1.875q0 -1.40625 -0.328125 -1.875q-0.328125 -0.46875 -0.828125 -0.46875q-0.484375 0 -0.765625 0.40625q-0.359375 0.53125 -0.359375 1.9375z" fill-rule="nonzero"/><path fill="#000000" fill-opacity="0.0" d="m64.166664 81.632545l19.811028 0l0 29.07087l-19.811028 0z" fill-rule="evenodd"/><path fill="#000000" d="m73.49479 95.48442q0 -1.015625 0.203125 -1.625q0.21875 -0.625 0.625 -0.953125q0.421875 -0.34375 1.046875 -0.34375q0.453125 0 0.796875 0.1875q0.359375 0.1875 0.578125 0.53125q0.234375 0.34375 0.359375 0.859375q0.125 0.5 0.125 1.34375q0 1.015625 -0.203125 1.640625q-0.203125 0.609375 -0.625 0.953125q-0.40625 0.328125 -1.03125 0.328125q-0.828125 0 -1.296875 -0.59375q-0.578125 -0.71875 -0.578125 -2.328125zm0.734375 0q0 1.40625 0.328125 1.875q0.328125 0.46875 0.8125 0.46875q0.484375 0 0.8125 -0.46875q0.328125 -0.46875 0.328125 -1.875q0 -1.40625 -0.328125 -1.875q-0.328125 -0.46875 -0.828125 -0.46875q-0.484375 0 -0.765625 0.40625q-0.359375 0.53125 -0.359375 1.9375z" fill-rule="nonzero"/><path fill="#000000" fill-opacity="0.0" d="m79.64698 81.632545l19.811028 0l0 29.07087l-19.811028 0z" fill-rule="evenodd"/><path fill="#000000" d="m88.975105 95.48442q0 -1.015625 0.203125 -1.625q0.21875 -0.625 0.625 -0.953125q0.421875 -0.34375 1.046875 -0.34375q0.453125 0 0.796875 0.1875q0.359375 0.1875 0.578125 0.53125q0.234375 0.34375 0.359375 0.859375q0.125 0.5 0.125 1.34375q0 1.015625 -0.203125 1.640625q-0.203125 0.609375 -0.625 0.953125q-0.40625 0.328125 -1.03125 0.328125q-0.828125 0 -1.296875 -0.59375q-0.578125 -0.71875 -0.578125 -2.328125zm0.734375 0q0 1.40625 0.328125 1.875q0.328125 0.46875 0.8125 0.46875q0.484375 0 0.8125 -0.46875q0.328125 -0.46875 0.328125 -1.875q0 -1.40625 -0.328125 -1.875q-0.328125 -0.46875 -0.828125 -0.46875q-0.484375 0 -0.765625 0.40625q-0.359375 0.53125 -0.359375 1.9375z" fill-rule="nonzero"/><path fill="#000000" fill-opacity="0.0" d="m95.1273 81.64304l19.811028 0l0 29.07087l-19.811028 0z" fill-rule="evenodd"/><path fill="#000000" d="m104.45542 95.49492q0 -1.015625 0.203125 -1.625q0.21875 -0.625 0.625 -0.953125q0.421875 -0.34375 1.046875 -0.34375q0.453125 0 0.796875 0.1875q0.359375 0.1875 0.578125 0.53125q0.234375 0.34375 0.359375 0.859375q0.125 0.5 0.125 1.34375q0 1.015625 -0.203125 1.640625q-0.203125 0.609375 -0.625 0.953125q-0.40625 0.328125 -1.03125 0.328125q-0.828125 0 -1.296875 -0.59375q-0.578125 -0.71875 -0.578125 -2.328125zm0.734375 0q0 1.40625 0.328125 1.875q0.328125 0.46875 0.8125 0.46875q0.484375 0 0.8125 -0.46875q0.328125 -0.46875 0.328125 -1.875q0 -1.40625 -0.328125 -1.875q-0.328125 -0.46875 -0.828125 -0.46875q-0.484375 0 -0.765625 0.40625q-0.359375 0.53125 -0.359375 1.9375z" fill-rule="nonzero"/><path fill="#000000" fill-opacity="0.0" d="m110.60761 81.64304l19.811028 0l0 29.07087l-19.811028 0z" fill-rule="evenodd"/><path fill="#000000" d="m123.63886 97.65117l0 0.671875l-3.78125 0q-0.015625 -0.25 0.078125 -0.484375q0.140625 -0.390625 0.453125 -0.765625q0.328125 -0.375 0.921875 -0.875q0.9375 -0.765625 1.265625 -1.203125q0.328125 -0.453125 0.328125 -0.84375q0 -0.421875 -0.296875 -0.703125q-0.296875 -0.296875 -0.78125 -0.296875q-0.5 0 -0.8125 0.3125q-0.296875 0.296875 -0.3125 0.84375l-0.71875 -0.078125q0.078125 -0.8125 0.5625 -1.234375q0.484375 -0.421875 1.296875 -0.421875q0.828125 0 1.296875 0.453125q0.484375 0.453125 0.484375 1.140625q0 0.34375 -0.140625 0.671875q-0.140625 0.328125 -0.46875 0.703125q-0.3125 0.359375 -1.078125 1.0q-0.625 0.53125 -0.8125 0.71875q-0.171875 0.1875 -0.296875 0.390625l2.8125 0z" fill-rule="nonzero"/><path fill="#000000" fill-opacity="0.0" d="m126.08793 81.64304l19.811028 0l0 29.07087l-19.811028 0z" fill-rule="evenodd"/><path fill="#000000" d="m135.43167 96.80742l0.703125 -0.09375q0.109375 0.59375 0.40625 0.859375q0.296875 0.265625 0.703125 0.265625q0.5 0 0.84375 -0.34375q0.34375 -0.34375 0.34375 -0.84375q0 -0.484375 -0.328125 -0.796875q-0.3125 -0.328125 -0.796875 -0.328125q-0.203125 0 -0.5 0.078125l0.078125 -0.609375q0.078125 0 0.125 0q0.4375 0 0.796875 -0.234375q0.359375 -0.234375 0.359375 -0.71875q0 -0.390625 -0.265625 -0.640625q-0.25 -0.25 -0.671875 -0.25q-0.40625 0 -0.6875 0.265625q-0.265625 0.25 -0.34375 0.765625l-0.703125 -0.125q0.125 -0.703125 0.578125 -1.09375q0.46875 -0.390625 1.140625 -0.390625q0.46875 0 0.859375 0.203125q0.40625 0.203125 0.609375 0.546875q0.21875 0.34375 0.21875 0.734375q0 0.375 -0.203125 0.6875q-0.203125 0.296875 -0.59375 0.46875q0.515625 0.125 0.796875 0.5q0.28125 0.359375 0.28125 0.921875q0 0.75 -0.546875 1.28125q-0.546875 0.515625 -1.390625 0.515625q-0.75 0 -1.25 -0.453125q-0.5 -0.453125 -0.5625 -1.171875z" fill-rule="nonzero"/><path fill="#000000" fill-opacity="0.0" d="m86.073494 -12.055119l38.614174 0l0 51.716537l-38.614174 0z" fill-rule="evenodd"/><path fill="#38761d" d="m100.17758 9.744881l0 -9.546875l3.09375 0q1.75 0 2.296875 0.15625q0.8125 0.20312503 1.359375 0.921875q0.5625 0.71875 0.5625 1.859375q0 0.875 -0.328125 1.484375q-0.3125 0.59375 -0.8125 0.9375q-0.484375 0.34375 -0.984375 0.453125q-0.703125 0.140625 -2.0 0.140625l-1.265625 0l0 3.5937495l-1.921875 0zm1.921875 -7.9218745l0 2.703125l1.0625 0q1.140625 0 1.515625 -0.140625q0.390625 -0.15625 0.609375 -0.46875q0.21875 -0.328125 0.21875 -0.75q0 -0.515625 -0.3125 -0.859375q-0.296875 -0.34375 -0.765625 -0.421875q-0.34375 -0.0625 -1.390625 -0.0625l-0.9375 0z" fill-rule="nonzero"/><path fill="#38761d" d="m109.89546 14.744881l-1.21875 0l0 -4.609375l1.140625 0l0 0.65625q0.28125 -0.453125 0.515625 -0.59375q0.234375 -0.15625 0.53125 -0.15625q0.421875 0 0.796875 0.234375l-0.375 1.046875q-0.3125 -0.1875 -0.5625 -0.1875q-0.265625 0 -0.453125 0.140625q-0.171875 0.140625 -0.28125 0.515625q-0.09375 0.359375 -0.09375 1.53125l0 1.421875z" fill-rule="nonzero"/><path fill="#000000" fill-opacity="0.0" d="m28.37008 47.131233l34.645668 0l0 35.55906l-34.645668 0z" fill-rule="evenodd"/><path fill="#0b5394" d="m38.338833 68.93124l0 -9.546879l3.09375 0q1.75 0 2.296875 0.15625q0.8125 0.203125 1.359375 0.921875q0.5625 0.71875 0.5625 1.859375q0 0.875 -0.328125 1.484375q-0.3125 0.5937538 -0.8125 0.9375038q-0.484375 0.34375 -0.984375 0.453125q-0.703125 0.140625 -2.0 0.140625l-1.265625 0l0 3.59375l-1.921875 0zm1.921875 -7.921879l0 2.703125l1.0625 0q1.140625 0 1.515625 -0.140625q0.390625 -0.15625 0.609375 -0.46875q0.21875 -0.328125 0.21875 -0.75q0 -0.515625 -0.3125 -0.859375q-0.296875 -0.34375 -0.765625 -0.421875q-0.34375 -0.0625 -1.390625 -0.0625l-0.9375 0z" fill-rule="nonzero"/><path fill="#0b5394" d="m52.72859 69.82186q0 0.75 -0.328125 1.53125q-0.3125 0.765625 -0.84375 1.375q-0.515625 0.59375 -1.25 0.984375q-0.734375 0.375 -1.515625 0.375q-0.953125 0 -1.625 -0.59375q-0.671875 -0.609375 -0.671875 -1.578125q0 -0.765625 0.296875 -1.546875q0.3125 -0.796875 0.8125 -1.421875q0.515625 -0.640625 1.25 -1.03125q0.75 -0.40625 1.5625 -0.40625q1.03125 0 1.671875 0.640625q0.640625 0.625 0.640625 1.671875zm-1.609375 -0.734375q0 -0.421875 -0.1875 -0.671875q-0.1875 -0.265625 -0.578125 -0.265625q-0.3125 0 -0.640625 0.234375q-0.3125 0.234375 -0.546875 0.625q-0.21875 0.390625 -0.375 0.75q-0.15625 0.359375 -0.203125 0.515625l2.359375 0q0.171875 -0.671875 0.171875 -1.1875zm-0.375 1.921875l-2.390625 0q-0.234375 0.875 -0.234375 1.421875q0 1.015625 0.75 1.015625q0.34375 0 0.671875 -0.265625q0.328125 -0.265625 0.578125 -0.71875q0.25 -0.46875 0.40625 -0.859375q0.171875 -0.40625 0.21875 -0.59375z" fill-rule="nonzero"/><path fill="#000000" fill-opacity="0.0" d="m61.346455 99.36483l32.440945 0l0 25.858269l-32.440945 0z" fill-rule="evenodd"/><path fill="#38761d" d="m70.65896 113.48483q0.078125 -0.34375 0.203125 -0.5625q0.125 -0.234375 0.328125 -0.4375q0.21875 -0.21875 0.828125 -0.703125q0.375 -0.296875 0.515625 -0.4375q0.1875 -0.203125 0.28125 -0.390625q0.0625 -0.140625 0.0625 -0.296875q0 -0.25 -0.1875 -0.4375q-0.1875 -0.1875 -0.453125 -0.1875q-0.28125 0 -0.484375 0.1875q-0.1875 0.1875 -0.28125 0.59375l-0.453125 -0.0625q0.0625 -0.515625 0.390625 -0.796875q0.328125 -0.296875 0.8125 -0.296875q0.328125 0 0.59375 0.140625q0.265625 0.125 0.390625 0.375q0.140625 0.25 0.140625 0.5q0 0.375 -0.28125 0.734375q-0.15625 0.21875 -0.96875 0.859375q-0.359375 0.28125 -0.53125 0.453125q-0.15625 0.171875 -0.25 0.328125l1.703125 0l-0.078125 0.4375l-2.28125 0zm2.3851318 0.0625l2.046875 -3.9375l0.40625 0l-2.046875 3.9375l-0.40625 0zm3.0272064 -0.0625l0.609375 -2.875q-0.390625 0.296875 -1.109375 0.484375l0.09375 -0.421875q0.359375 -0.140625 0.6875 -0.359375q0.34375 -0.234375 0.515625 -0.40625q0.109375 -0.109375 0.203125 -0.25l0.28125 0l-0.8125 3.828125l-0.46875 0zm1.9788818 -1.0l0.453125 -0.0625q0.046875 0.40625 0.21875 0.578125q0.1875 0.171875 0.484375 0.171875q0.34375 0 0.59375 -0.25q0.25 -0.25 0.25 -0.5625q0 -0.28125 -0.1875 -0.46875q-0.1875 -0.1875 -0.5 -0.1875q-0.046875 0 -0.15625 0.015625l0.078125 -0.390625q0.0625 0 0.125 0q0.40625 0 0.625 -0.1875q0.21875 -0.203125 0.21875 -0.484375q0 -0.265625 -0.1875 -0.4375q-0.171875 -0.1875 -0.421875 -0.1875q-0.25 0 -0.453125 0.1875q-0.203125 0.1875 -0.265625 0.515625l-0.46875 -0.09375q0.125 -0.46875 0.4375 -0.71875q0.328125 -0.265625 0.78125 -0.265625q0.46875 0 0.75 0.28125q0.296875 0.28125 0.296875 0.703125q0 0.296875 -0.15625 0.53125q-0.15625 0.21875 -0.46875 0.359375q0.21875 0.140625 0.328125 0.328125q0.109375 0.1875 0.109375 0.421875q0 0.515625 -0.390625 0.890625q-0.375 0.375 -0.90625 0.375q-0.515625 0 -0.84375 -0.28125q-0.3125 -0.296875 -0.34375 -0.78125z" fill-rule="nonzero"/><path fill="#000000" fill-opacity="0.0" d="m36.532806 95.973755l38.614174 0l0 29.070862l-38.614174 0z" fill-rule="evenodd"/><path fill="#38761d" d="m45.45468 114.247505l1.203125 -5.75l0.640625 0l-0.109375 0.578125q0.359375 -0.375 0.640625 -0.515625q0.296875 -0.15625 0.609375 -0.15625q0.59375 0 0.984375 0.4375q0.390625 0.4375 0.390625 1.234375q0 0.65625 -0.21875 1.1875q-0.203125 0.53125 -0.515625 0.859375q-0.3125 0.3125 -0.640625 0.46875q-0.3125 0.15625 -0.65625 0.15625q-0.75 0 -1.15625 -0.765625l-0.46875 2.265625l-0.703125 0zm1.390625 -3.296875q0 0.46875 0.078125 0.65625q0.09375 0.25 0.3125 0.40625q0.21875 0.15625 0.515625 0.15625q0.609375 0 0.984375 -0.6875q0.375 -0.6875 0.375 -1.40625q0 -0.515625 -0.25 -0.796875q-0.25 -0.296875 -0.625 -0.296875q-0.265625 0 -0.5 0.140625q-0.234375 0.140625 -0.4375 0.421875q-0.1875 0.28125 -0.328125 0.703125q-0.125 0.40625 -0.125 0.703125z" fill-rule="nonzero"/><path fill="#38761d" d="m50.1539 115.653755l0.578125 -2.765625l0.421875 0l-0.125 0.5625q0.21875 -0.3125 0.421875 -0.46875q0.203125 -0.15625 0.421875 -0.15625q0.140625 0 0.34375 0.109375l-0.1875 0.4375q-0.125 -0.09375 -0.265625 -0.09375q-0.25 0 -0.515625 0.28125q-0.265625 0.265625 -0.40625 0.984375l-0.234375 1.109375l-0.453125 0z" fill-rule="nonzero"/><path fill="#38761d" d="m53.053207 114.341255q-0.625 -1.34375 -0.625 -2.765625q0 -0.953125 0.25 -1.765625q0.25 -0.8125 0.765625 -1.609375q0.328125 -0.53125 1.0625 -1.375l0.5625 0q-0.46875 0.484375 -0.984375 1.375q-0.5 0.890625 -0.734375 1.75q-0.21875 0.84375 -0.21875 1.71875q0 1.28125 0.4375 2.671875l-0.515625 0zm1.3671875 -0.078125l0.046875 -0.671875q0.21875 0.0625 0.421875 0.0625q0.21875 0 0.34375 -0.09375q0.171875 -0.125 0.375 -0.484375l0.234375 -0.40625l-0.6875 -4.171875l0.6875 0l0.3125 2.109375q0.09375 0.609375 0.15625 1.234375l1.859375 -3.34375l0.734375 0l-2.640625 4.703125q-0.375 0.6875 -0.671875 0.90625q-0.296875 0.234375 -0.6875 0.234375q-0.25 0 -0.484375 -0.078125zm5.59375 -7.4375q0.609375 1.34375 0.609375 2.765625q0 0.9375 -0.25 1.75q-0.25 0.8125 -0.75 1.625q-0.34375 0.53125 -1.078125 1.375l-0.546875 0q0.453125 -0.5 0.953125 -1.390625q0.515625 -0.875 0.75 -1.734375q0.234375 -0.859375 0.234375 -1.71875q0 -1.296875 -0.453125 -2.671875l0.53125 0z" fill-rule="nonzero"/><path fill="#000000" fill-opacity="0.0" d="m140.09975 6.9553804l38.61418 0l0 29.070866l-38.61418 0z" fill-rule="evenodd"/><path fill="#0b5394" d="m149.02162 25.229132l1.203125 -5.75l0.640625 0l-0.109375 0.578125q0.359375 -0.375 0.640625 -0.515625q0.296875 -0.15625 0.609375 -0.15625q0.59375 0 0.984375 0.4375q0.390625 0.4375 0.390625 1.234375q0 0.65625 -0.21875 1.1875q-0.203125 0.53125 -0.515625 0.859375q-0.3125 0.3125 -0.640625 0.46875q-0.3125 0.15625 -0.65625 0.15625q-0.75 0 -1.15625 -0.765625l-0.46875 2.265625l-0.703125 0zm1.390625 -3.296875q0 0.46875 0.078125 0.65625q0.09375 0.25 0.3125 0.40625q0.21875 0.15625 0.515625 0.15625q0.609375 0 0.984375 -0.6875q0.375 -0.6875 0.375 -1.40625q0 -0.515625 -0.25 -0.796875q-0.25 -0.296875 -0.625 -0.296875q-0.265625 0 -0.5 0.140625q-0.234375 0.140625 -0.4375 0.421875q-0.1875 0.28125 -0.328125 0.703125q-0.125 0.40625 -0.125 0.703125z" fill-rule="nonzero"/><path fill="#0b5394" d="m156.42397 22.947882q0.8125 0 1.21875 0.546875q0.40625 0.53125 0.234375 1.34375q-0.171875 0.828125 -0.8125 1.359375q-0.625 0.53125 -1.453125 0.53125q-0.828125 0 -1.25 -0.515625q-0.421875 -0.53125 -0.25 -1.359375q0.171875 -0.828125 0.8125 -1.359375q0.65625 -0.546875 1.5 -0.546875zm0.5625 1.71875q0.09375 -0.4375 0.0625 -0.765625q-0.03125 -0.34375 -0.21875 -0.546875q-0.171875 -0.21875 -0.5 -0.21875q-0.28125 0 -0.53125 0.21875q-0.25 0.203125 -0.421875 0.546875q-0.171875 0.34375 -0.265625 0.765625l1.875 0zm-0.0625 0.25l-1.890625 0q-0.15625 0.796875 -0.015625 1.21875q0.15625 0.421875 0.625 0.421875q0.453125 0 0.78125 -0.421875q0.34375 -0.4375 0.5 -1.21875z" fill-rule="nonzero"/><path fill="#0b5394" d="m158.7141 25.322882q-0.625 -1.34375 -0.625 -2.765625q0 -0.953125 0.25 -1.765625q0.25 -0.8125 0.765625 -1.609375q0.328125 -0.53125 1.0625 -1.375l0.5625 0q-0.46875 0.484375 -0.984375 1.375q-0.5 0.890625 -0.734375 1.75q-0.21875 0.84375 -0.21875 1.71875q0 1.28125 0.4375 2.671875l-0.515625 0zm1.3671875 -0.078125l0.046875 -0.671875q0.21875 0.0625 0.421875 0.0625q0.21875 0 0.34375 -0.09375q0.171875 -0.125 0.375 -0.484375l0.234375 -0.40625l-0.6875 -4.171875l0.6875 0l0.3125 2.109375q0.09375 0.609375 0.15625 1.234375l1.859375 -3.34375l0.734375 0l-2.640625 4.703125q-0.375 0.6875 -0.671875 0.90625q-0.296875 0.234375 -0.6875 0.234375q-0.25 0 -0.484375 -0.078125zm5.59375 -7.4375q0.609375 1.34375 0.609375 2.765625q0 0.9375 -0.25 1.75q-0.25 0.8125 -0.75 1.625q-0.34375 0.53125 -1.078125 1.375l-0.546875 0q0.453125 -0.5 0.953125 -1.390625q0.515625 -0.875 0.75 -1.734375q0.234375 -0.859375 0.234375 -1.71875q0 -1.296875 -0.453125 -2.671875l0.53125 0z" fill-rule="nonzero"/><path fill="#000000" fill-opacity="0.0" d="m140.09984 24.530184l31.653534 0l0 25.858267l-31.653534 0z" fill-rule="evenodd"/><path fill="#4a86e8" d="m149.39671 37.650185l0.453125 -0.0625q0.046875 0.40625 0.21875 0.578125q0.1875 0.171875 0.484375 0.171875q0.34375 0 0.59375 -0.25q0.25 -0.25 0.25 -0.5625q0 -0.28125 -0.1875 -0.46875q-0.1875 -0.1875 -0.5 -0.1875q-0.046875 0 -0.15625 0.015625l0.078125 -0.390625q0.0625 0 0.125 0q0.40625 0 0.625 -0.1875q0.21875 -0.203125 0.21875 -0.484375q0 -0.265625 -0.1875 -0.4375q-0.171875 -0.1875 -0.421875 -0.1875q-0.25 0 -0.453125 0.1875q-0.203125 0.1875 -0.265625 0.515625l-0.46875 -0.09375q0.125 -0.46875 0.4375 -0.71875q0.328125 -0.265625 0.78125 -0.265625q0.46875 0 0.75 0.28125q0.296875 0.28125 0.296875 0.703125q0 0.296875 -0.15625 0.53125q-0.15625 0.21875 -0.46875 0.359375q0.21875 0.140625 0.328125 0.328125q0.109375 0.1875 0.109375 0.421875q0 0.515625 -0.390625 0.890625q-0.375 0.375 -0.90625 0.375q-0.515625 0 -0.84375 -0.28125q-0.3125 -0.296875 -0.34375 -0.78125zm2.4007568 1.0625l2.046875 -3.9375l0.40625 0l-2.046875 3.9375l-0.40625 0zm3.0272064 -0.0625l0.609375 -2.875q-0.390625 0.296875 -1.109375 0.484375l0.09375 -0.421875q0.359375 -0.140625 0.6875 -0.359375q0.34375 -0.234375 0.515625 -0.40625q0.109375 -0.109375 0.203125 -0.25l0.28125 0l-0.8125 3.828125l-0.46875 0zm1.9788818 -1.0l0.453125 -0.0625q0.046875 0.40625 0.21875 0.578125q0.1875 0.171875 0.484375 0.171875q0.34375 0 0.59375 -0.25q0.25 -0.25 0.25 -0.5625q0 -0.28125 -0.1875 -0.46875q-0.1875 -0.1875 -0.5 -0.1875q-0.046875 0 -0.15625 0.015625l0.078125 -0.390625q0.0625 0 0.125 0q0.40625 0 0.625 -0.1875q0.21875 -0.203125 0.21875 -0.484375q0 -0.265625 -0.1875 -0.4375q-0.171875 -0.1875 -0.421875 -0.1875q-0.25 0 -0.453125 0.1875q-0.203125 0.1875 -0.265625 0.515625l-0.46875 -0.09375q0.125 -0.46875 0.4375 -0.71875q0.328125 -0.265625 0.78125 -0.265625q0.46875 0 0.75 0.28125q0.296875 0.28125 0.296875 0.703125q0 0.296875 -0.15625 0.53125q-0.15625 0.21875 -0.46875 0.359375q0.21875 0.140625 0.328125 0.328125q0.109375 0.1875 0.109375 0.421875q0 0.515625 -0.390625 0.890625q-0.375 0.375 -0.90625 0.375q-0.515625 0 -0.84375 -0.28125q-0.3125 -0.296875 -0.34375 -0.78125z" fill-rule="nonzero"/><path fill="#000000" fill-opacity="0.0" d="m77.29396 99.36483l32.44095 0l0 25.858269l-32.44095 0z" fill-rule="evenodd"/><path fill="#38761d" d="m87.57521 113.48483l0.609375 -2.875q-0.390625 0.296875 -1.109375 0.484375l0.09375 -0.421875q0.359375 -0.140625 0.6875 -0.359375q0.34375 -0.234375 0.515625 -0.40625q0.109375 -0.109375 0.203125 -0.25l0.28125 0l-0.8125 3.828125l-0.46875 0zm1.4163818 0.0625l2.046875 -3.9375l0.40625 0l-2.046875 3.9375l-0.40625 0zm3.0272064 -0.0625l0.609375 -2.875q-0.390625 0.296875 -1.109375 0.484375l0.09375 -0.421875q0.359375 -0.140625 0.6875 -0.359375q0.34375 -0.234375 0.515625 -0.40625q0.109375 -0.109375 0.203125 -0.25l0.28125 0l-0.8125 3.828125l-0.46875 0zm1.9788818 -1.0l0.453125 -0.0625q0.046875 0.40625 0.21875 0.578125q0.1875 0.171875 0.484375 0.171875q0.34375 0 0.59375 -0.25q0.25 -0.25 0.25 -0.5625q0 -0.28125 -0.1875 -0.46875q-0.1875 -0.1875 -0.5 -0.1875q-0.046875 0 -0.15625 0.015625l0.078125 -0.390625q0.0625 0 0.125 0q0.40625 0 0.625 -0.1875q0.21875 -0.203125 0.21875 -0.484375q0 -0.265625 -0.1875 -0.4375q-0.171875 -0.1875 -0.421875 -0.1875q-0.25 0 -0.453125 0.1875q-0.203125 0.1875 -0.265625 0.515625l-0.46875 -0.09375q0.125 -0.46875 0.4375 -0.71875q0.328125 -0.265625 0.78125 -0.265625q0.46875 0 0.75 0.28125q0.296875 0.28125 0.296875 0.703125q0 0.296875 -0.15625 0.53125q-0.15625 0.21875 -0.46875 0.359375q0.21875 0.140625 0.328125 0.328125q0.109375 0.1875 0.109375 0.421875q0 0.515625 -0.390625 0.890625q-0.375 0.375 -0.90625 0.375q-0.515625 0 -0.84375 -0.28125q-0.3125 -0.296875 -0.34375 -0.78125z" fill-rule="nonzero"/><path fill="#000000" fill-opacity="0.0" d="m92.79265 99.36483l32.44095 0l0 25.858269l-32.44095 0z" fill-rule="evenodd"/><path fill="#38761d" d="m102.08952 112.48483l0.453125 -0.0625q0.046875 0.40625 0.21875 0.578125q0.1875 0.171875 0.484375 0.171875q0.34375 0 0.59375 -0.25q0.25 -0.25 0.25 -0.5625q0 -0.28125 -0.1875 -0.46875q-0.1875 -0.1875 -0.5 -0.1875q-0.046875 0 -0.15625 0.015625l0.078125 -0.390625q0.0625 0 0.125 0q0.40625 0 0.625 -0.1875q0.21875 -0.203125 0.21875 -0.484375q0 -0.265625 -0.1875 -0.4375q-0.171875 -0.1875 -0.421875 -0.1875q-0.25 0 -0.453125 0.1875q-0.203125 0.1875 -0.265625 0.515625l-0.46875 -0.09375q0.125 -0.46875 0.4375 -0.71875q0.328125 -0.265625 0.78125 -0.265625q0.46875 0 0.75 0.28125q0.296875 0.28125 0.296875 0.703125q0 0.296875 -0.15625 0.53125q-0.15625 0.21875 -0.46875 0.359375q0.21875 0.140625 0.328125 0.328125q0.109375 0.1875 0.109375 0.421875q0 0.515625 -0.390625 0.890625q-0.375 0.375 -0.90625 0.375q-0.515625 0 -0.84375 -0.28125q-0.3125 -0.296875 -0.34375 -0.78125zm2.4007568 1.0625l2.046875 -3.9375l0.40625 0l-2.046875 3.9375l-0.40625 0zm3.0272064 -0.0625l0.609375 -2.875q-0.390625 0.296875 -1.109375 0.484375l0.09375 -0.421875q0.359375 -0.140625 0.6875 -0.359375q0.34375 -0.234375 0.515625 -0.40625q0.109375 -0.109375 0.203125 -0.25l0.28125 0l-0.8125 3.828125l-0.46875 0zm1.9788818 -1.0l0.453125 -0.0625q0.046875 0.40625 0.21875 0.578125q0.1875 0.171875 0.484375 0.171875q0.34375 0 0.59375 -0.25q0.25 -0.25 0.25 -0.5625q0 -0.28125 -0.1875 -0.46875q-0.1875 -0.1875 -0.5 -0.1875q-0.046875 0 -0.15625 0.015625l0.078125 -0.390625q0.0625 0 0.125 0q0.40625 0 0.625 -0.1875q0.21875 -0.203125 0.21875 -0.484375q0 -0.265625 -0.1875 -0.4375q-0.171875 -0.1875 -0.421875 -0.1875q-0.25 0 -0.453125 0.1875q-0.203125 0.1875 -0.265625 0.515625l-0.46875 -0.09375q0.125 -0.46875 0.4375 -0.71875q0.328125 -0.265625 0.78125 -0.265625q0.46875 0 0.75 0.28125q0.296875 0.28125 0.296875 0.703125q0 0.296875 -0.15625 0.53125q-0.15625 0.21875 -0.46875 0.359375q0.21875 0.140625 0.328125 0.328125q0.109375 0.1875 0.109375 0.421875q0 0.515625 -0.390625 0.890625q-0.375 0.375 -0.90625 0.375q-0.515625 0 -0.84375 -0.28125q-0.3125 -0.296875 -0.34375 -0.78125z" fill-rule="nonzero"/><path fill="#000000" fill-opacity="0.0" d="m108.74016 99.36483l32.44095 0l0 25.858269l-32.44095 0z" fill-rule="evenodd"/><path fill="#38761d" d="m119.33391 113.48483l0.203125 -0.96875l-1.5625 0l0.109375 -0.46875l2.140625 -2.375l0.375 0l-0.5 2.421875l0.53125 0l-0.09375 0.421875l-0.53125 0l-0.203125 0.96875l-0.46875 0zm0.296875 -1.390625l0.328125 -1.59375l-1.421875 1.59375l1.09375 0zm0.80700684 1.453125l2.046875 -3.9375l0.40625 0l-2.046875 3.9375l-0.40625 0zm3.0272064 -0.0625l0.609375 -2.875q-0.390625 0.296875 -1.109375 0.484375l0.09375 -0.421875q0.359375 -0.140625 0.6875 -0.359375q0.34375 -0.234375 0.515625 -0.40625q0.109375 -0.109375 0.203125 -0.25l0.28125 0l-0.8125 3.828125l-0.46875 0zm1.9788818 -1.0l0.453125 -0.0625q0.046875 0.40625 0.21875 0.578125q0.1875 0.171875 0.484375 0.171875q0.34375 0 0.59375 -0.25q0.25 -0.25 0.25 -0.5625q0 -0.28125 -0.1875 -0.46875q-0.1875 -0.1875 -0.5 -0.1875q-0.046875 0 -0.15625 0.015625l0.078125 -0.390625q0.0625 0 0.125 0q0.40625 0 0.625 -0.1875q0.21875 -0.203125 0.21875 -0.484375q0 -0.265625 -0.1875 -0.4375q-0.171875 -0.1875 -0.421875 -0.1875q-0.25 0 -0.453125 0.1875q-0.203125 0.1875 -0.265625 0.515625l-0.46875 -0.09375q0.125 -0.46875 0.4375 -0.71875q0.328125 -0.265625 0.78125 -0.265625q0.46875 0 0.75 0.28125q0.296875 0.28125 0.296875 0.703125q0 0.296875 -0.15625 0.53125q-0.15625 0.21875 -0.46875 0.359375q0.21875 0.140625 0.328125 0.328125q0.109375 0.1875 0.109375 0.421875q0 0.515625 -0.390625 0.890625q-0.375 0.375 -0.90625 0.375q-0.515625 0 -0.84375 -0.28125q-0.3125 -0.296875 -0.34375 -0.78125z" fill-rule="nonzero"/><path fill="#000000" fill-opacity="0.0" d="m124.03674 99.36483l32.44095 0l0 25.858269l-32.44095 0z" fill-rule="evenodd"/><path fill="#38761d" d="m133.33362 112.48483l0.453125 -0.0625q0.046875 0.40625 0.21875 0.578125q0.1875 0.171875 0.484375 0.171875q0.34375 0 0.59375 -0.25q0.25 -0.25 0.25 -0.5625q0 -0.28125 -0.1875 -0.46875q-0.1875 -0.1875 -0.5 -0.1875q-0.046875 0 -0.15625 0.015625l0.078125 -0.390625q0.0625 0 0.125 0q0.40625 0 0.625 -0.1875q0.21875 -0.203125 0.21875 -0.484375q0 -0.265625 -0.1875 -0.4375q-0.171875 -0.1875 -0.421875 -0.1875q-0.25 0 -0.453125 0.1875q-0.203125 0.1875 -0.265625 0.515625l-0.46875 -0.09375q0.125 -0.46875 0.4375 -0.71875q0.328125 -0.265625 0.78125 -0.265625q0.46875 0 0.75 0.28125q0.296875 0.28125 0.296875 0.703125q0 0.296875 -0.15625 0.53125q-0.15625 0.21875 -0.46875 0.359375q0.21875 0.140625 0.328125 0.328125q0.109375 0.1875 0.109375 0.421875q0 0.515625 -0.390625 0.890625q-0.375 0.375 -0.90625 0.375q-0.515625 0 -0.84375 -0.28125q-0.3125 -0.296875 -0.34375 -0.78125zm2.4007568 1.0625l2.046875 -3.9375l0.40625 0l-2.046875 3.9375l-0.40625 0zm3.0272064 -0.0625l0.609375 -2.875q-0.390625 0.296875 -1.109375 0.484375l0.09375 -0.421875q0.359375 -0.140625 0.6875 -0.359375q0.34375 -0.234375 0.515625 -0.40625q0.109375 -0.109375 0.203125 -0.25l0.28125 0l-0.8125 3.828125l-0.46875 0zm1.9788818 -1.0l0.453125 -0.0625q0.046875 0.40625 0.21875 0.578125q0.1875 0.171875 0.484375 0.171875q0.34375 0 0.59375 -0.25q0.25 -0.25 0.25 -0.5625q0 -0.28125 -0.1875 -0.46875q-0.1875 -0.1875 -0.5 -0.1875q-0.046875 0 -0.15625 0.015625l0.078125 -0.390625q0.0625 0 0.125 0q0.40625 0 0.625 -0.1875q0.21875 -0.203125 0.21875 -0.484375q0 -0.265625 -0.1875 -0.4375q-0.171875 -0.1875 -0.421875 -0.1875q-0.25 0 -0.453125 0.1875q-0.203125 0.1875 -0.265625 0.515625l-0.46875 -0.09375q0.125 -0.46875 0.4375 -0.71875q0.328125 -0.265625 0.78125 -0.265625q0.46875 0 0.75 0.28125q0.296875 0.28125 0.296875 0.703125q0 0.296875 -0.15625 0.53125q-0.15625 0.21875 -0.46875 0.359375q0.21875 0.140625 0.328125 0.328125q0.109375 0.1875 0.109375 0.421875q0 0.515625 -0.390625 0.890625q-0.375 0.375 -0.90625 0.375q-0.515625 0 -0.84375 -0.28125q-0.3125 -0.296875 -0.34375 -0.78125z" fill-rule="nonzero"/><path fill="#000000" fill-opacity="0.0" d="m140.09984 39.66142l31.653534 0l0 25.858265l-31.653534 0z" fill-rule="evenodd"/><path fill="#4a86e8" d="m150.38109 53.781418l0.609375 -2.875q-0.390625 0.296875 -1.109375 0.484375l0.09375 -0.421875q0.359375 -0.140625 0.6875 -0.359375q0.34375 -0.234375 0.515625 -0.40625q0.109375 -0.109375 0.203125 -0.25l0.28125 0l-0.8125 3.828125l-0.46875 0zm1.4163818 0.0625l2.046875 -3.9375l0.40625 0l-2.046875 3.9375l-0.40625 0zm3.0272064 -0.0625l0.609375 -2.875q-0.390625 0.296875 -1.109375 0.484375l0.09375 -0.421875q0.359375 -0.140625 0.6875 -0.359375q0.34375 -0.234375 0.515625 -0.40625q0.109375 -0.109375 0.203125 -0.25l0.28125 0l-0.8125 3.828125l-0.46875 0zm1.9788818 -1.0l0.453125 -0.0625q0.046875 0.40625 0.21875 0.578125q0.1875 0.171875 0.484375 0.171875q0.34375 0 0.59375 -0.25q0.25 -0.25 0.25 -0.5625q0 -0.28125 -0.1875 -0.46875q-0.1875 -0.1875 -0.5 -0.1875q-0.046875 0 -0.15625 0.015625l0.078125 -0.390625q0.0625 0 0.125 0q0.40625 0 0.625 -0.1875q0.21875 -0.203125 0.21875 -0.484375q0 -0.265625 -0.1875 -0.4375q-0.171875 -0.1875 -0.421875 -0.1875q-0.25 0 -0.453125 0.1875q-0.203125 0.1875 -0.265625 0.515625l-0.46875 -0.09375q0.125 -0.46875 0.4375 -0.71875q0.328125 -0.265625 0.78125 -0.265625q0.46875 0 0.75 0.28125q0.296875 0.28125 0.296875 0.703125q0 0.296875 -0.15625 0.53125q-0.15625 0.21875 -0.46875 0.359375q0.21875 0.140625 0.328125 0.328125q0.109375 0.1875 0.109375 0.421875q0 0.515625 -0.390625 0.890625q-0.375 0.375 -0.90625 0.375q-0.515625 0 -0.84375 -0.28125q-0.3125 -0.296875 -0.34375 -0.78125z" fill-rule="nonzero"/><path fill="#000000" fill-opacity="0.0" d="m140.10246 53.577427l31.653534 0l0 25.858265l-31.653534 0z" fill-rule="evenodd"/><path fill="#4a86e8" d="m149.41496 67.697426q0.078125 -0.34375 0.203125 -0.5625q0.125 -0.234375 0.328125 -0.4375q0.21875 -0.21875 0.828125 -0.703125q0.375 -0.296875 0.515625 -0.4375q0.1875 -0.203125 0.28125 -0.390625q0.0625 -0.140625 0.0625 -0.296875q0 -0.25 -0.1875 -0.4375q-0.1875 -0.1875 -0.453125 -0.1875q-0.28125 0 -0.484375 0.1875q-0.1875 0.1875 -0.28125 0.59375l-0.453125 -0.0625q0.0625 -0.515625 0.390625 -0.796875q0.328125 -0.296875 0.8125 -0.296875q0.328125 0 0.59375 0.140625q0.265625 0.125 0.390625 0.375q0.140625 0.25 0.140625 0.5q0 0.375 -0.28125 0.734375q-0.15625 0.21875 -0.96875 0.859375q-0.359375 0.28125 -0.53125 0.453125q-0.15625 0.171875 -0.25 0.328125l1.703125 0l-0.078125 0.4375l-2.28125 0zm2.3851318 0.0625l2.046875 -3.9375l0.40625 0l-2.046875 3.9375l-0.40625 0zm3.0272064 -0.0625l0.609375 -2.875q-0.390625 0.296875 -1.109375 0.484375l0.09375 -0.421875q0.359375 -0.140625 0.6875 -0.359375q0.34375 -0.234375 0.515625 -0.40625q0.109375 -0.109375 0.203125 -0.25l0.28125 0l-0.8125 3.828125l-0.46875 0zm1.9788818 -1.0l0.453125 -0.0625q0.046875 0.40625 0.21875 0.578125q0.1875 0.171875 0.484375 0.171875q0.34375 0 0.59375 -0.25q0.25 -0.25 0.25 -0.5625q0 -0.28125 -0.1875 -0.46875q-0.1875 -0.1875 -0.5 -0.1875q-0.046875 0 -0.15625 0.015625l0.078125 -0.390625q0.0625 0 0.125 0q0.40625 0 0.625 -0.1875q0.21875 -0.203125 0.21875 -0.484375q0 -0.265625 -0.1875 -0.4375q-0.171875 -0.1875 -0.421875 -0.1875q-0.25 0 -0.453125 0.1875q-0.203125 0.1875 -0.265625 0.515625l-0.46875 -0.09375q0.125 -0.46875 0.4375 -0.71875q0.328125 -0.265625 0.78125 -0.265625q0.46875 0 0.75 0.28125q0.296875 0.28125 0.296875 0.703125q0 0.296875 -0.15625 0.53125q-0.15625 0.21875 -0.46875 0.359375q0.21875 0.140625 0.328125 0.328125q0.109375 0.1875 0.109375 0.421875q0 0.515625 -0.390625 0.890625q-0.375 0.375 -0.90625 0.375q-0.515625 0 -0.84375 -0.28125q-0.3125 -0.296875 -0.34375 -0.78125z" fill-rule="nonzero"/><path fill="#000000" fill-opacity="0.0" d="m140.10246 68.708664l31.653534 0l0 25.858269l-31.653534 0z" fill-rule="evenodd"/><path fill="#4a86e8" d="m149.41496 82.82866q0.078125 -0.34375 0.203125 -0.5625q0.125 -0.234375 0.328125 -0.4375q0.21875 -0.21875 0.828125 -0.703125q0.375 -0.296875 0.515625 -0.4375q0.1875 -0.203125 0.28125 -0.390625q0.0625 -0.140625 0.0625 -0.296875q0 -0.25 -0.1875 -0.4375q-0.1875 -0.1875 -0.453125 -0.1875q-0.28125 0 -0.484375 0.1875q-0.1875 0.1875 -0.28125 0.59375l-0.453125 -0.0625q0.0625 -0.515625 0.390625 -0.796875q0.328125 -0.296875 0.8125 -0.296875q0.328125 0 0.59375 0.140625q0.265625 0.125 0.390625 0.375q0.140625 0.25 0.140625 0.5q0 0.375 -0.28125 0.734375q-0.15625 0.21875 -0.96875 0.859375q-0.359375 0.28125 -0.53125 0.453125q-0.15625 0.171875 -0.25 0.328125l1.703125 0l-0.078125 0.4375l-2.28125 0zm2.3851318 0.0625l2.046875 -3.9375l0.40625 0l-2.046875 3.9375l-0.40625 0zm3.0272064 -0.0625l0.609375 -2.875q-0.390625 0.296875 -1.109375 0.484375l0.09375 -0.421875q0.359375 -0.140625 0.6875 -0.359375q0.34375 -0.234375 0.515625 -0.40625q0.109375 -0.109375 0.203125 -0.25l0.28125 0l-0.8125 3.828125l-0.46875 0zm1.9788818 -1.0l0.453125 -0.0625q0.046875 0.40625 0.21875 0.578125q0.1875 0.171875 0.484375 0.171875q0.34375 0 0.59375 -0.25q0.25 -0.25 0.25 -0.5625q0 -0.28125 -0.1875 -0.46875q-0.1875 -0.1875 -0.5 -0.1875q-0.046875 0 -0.15625 0.015625l0.078125 -0.390625q0.0625 0 0.125 0q0.40625 0 0.625 -0.1875q0.21875 -0.203125 0.21875 -0.484375q0 -0.265625 -0.1875 -0.4375q-0.171875 -0.1875 -0.421875 -0.1875q-0.25 0 -0.453125 0.1875q-0.203125 0.1875 -0.265625 0.515625l-0.46875 -0.09375q0.125 -0.46875 0.4375 -0.71875q0.328125 -0.265625 0.78125 -0.265625q0.46875 0 0.75 0.28125q0.296875 0.28125 0.296875 0.703125q0 0.296875 -0.15625 0.53125q-0.15625 0.21875 -0.46875 0.359375q0.21875 0.140625 0.328125 0.328125q0.109375 0.1875 0.109375 0.421875q0 0.515625 -0.390625 0.890625q-0.375 0.375 -0.90625 0.375q-0.515625 0 -0.84375 -0.28125q-0.3125 -0.296875 -0.34375 -0.78125z" fill-rule="nonzero"/><path fill="#000000" fill-opacity="0.0" d="m140.10246 83.249344l31.653534 0l0 25.858269l-31.653534 0z" fill-rule="evenodd"/><path fill="#4a86e8" d="m149.47746 96.2756l0.46875 -0.046875q0 0.109375 0 0.125q0 0.171875 0.078125 0.34375q0.09375 0.171875 0.234375 0.265625q0.15625 0.09375 0.328125 0.09375q0.21875 0 0.4375 -0.140625q0.234375 -0.15625 0.375 -0.4375q0.140625 -0.296875 0.140625 -0.578125q0 -0.328125 -0.1875 -0.515625q-0.1875 -0.1875 -0.5 -0.1875q-0.203125 0 -0.390625 0.09375q-0.171875 0.09375 -0.34375 0.296875l-0.40625 -0.03125l0.578125 -1.953125l1.859375 0l-0.09375 0.4375l-1.4375 0l-0.296875 0.96875q0.171875 -0.125 0.328125 -0.171875q0.171875 -0.0625 0.359375 -0.0625q0.4375 0 0.71875 0.296875q0.28125 0.28125 0.28125 0.78125q0 0.4375 -0.203125 0.8125q-0.1875 0.375 -0.53125 0.578125q-0.328125 0.1875 -0.71875 0.1875q-0.328125 0 -0.578125 -0.140625q-0.25 -0.15625 -0.375 -0.40625q-0.125 -0.265625 -0.125 -0.53125q0 -0.015625 0 -0.078125zm2.3226318 1.15625l2.046875 -3.9375l0.40625 0l-2.046875 3.9375l-0.40625 0zm3.0272064 -0.0625l0.609375 -2.875q-0.390625 0.296875 -1.109375 0.484375l0.09375 -0.421875q0.359375 -0.140625 0.6875 -0.359375q0.34375 -0.234375 0.515625 -0.40625q0.109375 -0.109375 0.203125 -0.25l0.28125 0l-0.8125 3.828125l-0.46875 0zm1.9788818 -1.0l0.453125 -0.0625q0.046875 0.40625 0.21875 0.578125q0.1875 0.171875 0.484375 0.171875q0.34375 0 0.59375 -0.25q0.25 -0.25 0.25 -0.5625q0 -0.28125 -0.1875 -0.46875q-0.1875 -0.1875 -0.5 -0.1875q-0.046875 0 -0.15625 0.015625l0.078125 -0.390625q0.0625 0 0.125 0q0.40625 0 0.625 -0.1875q0.21875 -0.203125 0.21875 -0.484375q0 -0.265625 -0.1875 -0.4375q-0.171875 -0.1875 -0.421875 -0.1875q-0.25 0 -0.453125 0.1875q-0.203125 0.1875 -0.265625 0.515625l-0.46875 -0.09375q0.125 -0.46875 0.4375 -0.71875q0.328125 -0.265625 0.78125 -0.265625q0.46875 0 0.75 0.28125q0.296875 0.28125 0.296875 0.703125q0 0.296875 -0.15625 0.53125q-0.15625 0.21875 -0.46875 0.359375q0.21875 0.140625 0.328125 0.328125q0.109375 0.1875 0.109375 0.421875q0 0.515625 -0.390625 0.890625q-0.375 0.375 -0.90625 0.375q-0.515625 0 -0.84375 -0.28125q-0.3125 -0.296875 -0.34375 -0.78125z" fill-rule="nonzero"/></g></svg>