<svg version="1.1" viewBox="0.0 0.0 529.496062992126 151.70078740157481" fill="none" stroke="none" stroke-linecap="square" stroke-miterlimit="10" xmlns:xlink="http://www.w3.org/1999/xlink" xmlns="http://www.w3.org/2000/svg"><clipPath id="p.0"><path d="m0 0l529.49603 0l0 151.70079l-529.49603 0l0 -151.70079z" clip-rule="nonzero"/></clipPath><g clip-path="url(#p.0)"><path fill="#000000" fill-opacity="0.0" d="m0 0l529.49603 0l0 151.70079l-529.49603 0z" fill-rule="evenodd"/><path fill="#ffffff" d="m93.527435 3.5300229l155.59055 0l0 144.50394l-155.59055 0z" fill-rule="evenodd"/><path stroke="#d9d9d9" stroke-width="1.0" stroke-linejoin="round" stroke-linecap="butt" d="m93.527435 3.5300229l155.59055 0l0 144.50394l-155.59055 0z" fill-rule="evenodd"/><path fill="#000000" d="m161.9704 30.450022l0 -13.359375l4.328125 0q2.453125 0 3.203125 0.203125q1.140625 0.296875 1.921875 1.3125q0.78125 1.0 0.78125 2.59375q0 1.234375 -0.453125 2.078125q-0.453125 0.828125 -1.140625 1.3125q-0.6875 0.46875 -1.390625 0.625q-0.96875 0.203125 -2.796875 0.203125l-1.765625 0l0 5.03125l-2.6875 0zm2.6875 -11.09375l0 3.78125l1.484375 0q1.59375 0 2.125 -0.203125q0.546875 -0.203125 0.84375 -0.65625q0.3125 -0.453125 0.3125 -1.03125q0 -0.734375 -0.4375 -1.203125q-0.421875 -0.484375 -1.078125 -0.59375q-0.484375 -0.09375 -1.9375 -0.09375l-1.3125 0z" fill-rule="nonzero"/><path fill="#000000" d="m182.14835 31.684397q0 1.0468731 -0.453125 2.140623q-0.453125 1.078125 -1.1875 1.921875q-0.734375 0.84375 -1.78125 1.390625q-1.03125 0.53125 -2.125 0.53125q-1.34375 0 -2.28125 -0.84375q-0.9375 -0.859375 -0.9375 -2.203125q0 -1.078125 0.421875 -2.171875q0.4375 -1.1093731 1.15625 -1.9999981q0.71875 -0.890625 1.75 -1.453125q1.046875 -0.5625 2.171875 -0.5625q1.453125 0 2.359375 0.90625q0.90625 0.890625 0.90625 2.34375zm-2.296875 -1.03125q0 -0.59375 -0.25 -0.9375q-0.25 -0.359375 -0.796875 -0.359375q-0.453125 0 -0.890625 0.3125q-0.421875 0.3125 -0.765625 0.875q-0.328125 0.546875 -0.546875 1.0625q-0.203125 0.4999981 -0.265625 0.7031231l3.28125 0q0.234375 -0.9531231 0.234375 -1.6562481zm-0.515625 2.703123l-3.328125 0q-0.328125 1.21875 -0.328125 1.984375q0 1.40625 1.046875 1.40625q0.484375 0 0.9375 -0.359375q0.453125 -0.359375 0.796875 -1.0q0.359375 -0.65625 0.578125 -1.203125q0.21875 -0.5625 0.296875 -0.828125z" fill-rule="nonzero"/><path fill="#c9daf8" d="m118.35941 125.99765l21.511803 0l0 22.015747l-21.511803 0z" fill-rule="evenodd"/><path stroke="#000000" stroke-width="1.0" stroke-linejoin="round" stroke-linecap="butt" d="m118.35941 125.99765l21.511803 0l0 22.015747l-21.511803 0z" fill-rule="evenodd"/><path fill="#000000" d="m130.82816 140.46552l-0.8125 0l0 -5.21875q-0.296875 0.28125 -0.78125 0.5625q-0.484375 0.28125 -0.859375 0.421875l0 -0.796875q0.6875 -0.328125 1.203125 -0.78125q0.515625 -0.453125 0.734375 -0.890625l0.515625 0l0 6.703125z" fill-rule="nonzero"/><path fill="#c9daf8" d="m118.35941 103.97092l21.511803 0l0 22.015755l-21.511803 0z" fill-rule="evenodd"/><path stroke="#000000" stroke-width="1.0" stroke-linejoin="round" stroke-linecap="butt" d="m118.35941 103.97092l21.511803 0l0 22.015755l-21.511803 0z" fill-rule="evenodd"/><path fill="#c9daf8" d="m118.35941 81.94419l21.511803 0l0 22.015747l-21.511803 0z" fill-rule="evenodd"/><path stroke="#000000" stroke-width="1.0" stroke-linejoin="round" stroke-linecap="butt" d="m118.35941 81.94419l21.511803 0l0 22.015747l-21.511803 0z" fill-rule="evenodd"/><path fill="#c9daf8" d="m139.88596 125.99765l21.51181 0l0 22.015747l-21.51181 0z" fill-rule="evenodd"/><path stroke="#000000" stroke-width="1.0" stroke-linejoin="round" stroke-linecap="butt" d="m139.88596 125.99765l21.51181 0l0 22.015747l-21.51181 0z" fill-rule="evenodd"/><path fill="#000000" d="m153.58908 139.68427l0 0.78125l-4.421875 0q-0.015625 -0.296875 0.09375 -0.5625q0.171875 -0.453125 0.53125 -0.890625q0.375 -0.4375 1.078125 -1.015625q1.09375 -0.890625 1.46875 -1.40625q0.390625 -0.53125 0.390625 -1.0q0 -0.484375 -0.359375 -0.8125q-0.34375 -0.34375 -0.890625 -0.34375q-0.59375 0 -0.953125 0.359375q-0.359375 0.359375 -0.359375 0.984375l-0.84375 -0.078125q0.09375 -0.953125 0.65625 -1.4375q0.5625 -0.5 1.515625 -0.5q0.953125 0 1.515625 0.53125q0.5625 0.53125 0.5625 1.328125q0 0.390625 -0.171875 0.78125q-0.15625 0.390625 -0.546875 0.828125q-0.375 0.421875 -1.25 1.15625q-0.734375 0.625 -0.953125 0.84375q-0.203125 0.21875 -0.34375 0.453125l3.28125 0z" fill-rule="nonzero"/><path fill="#c9daf8" d="m161.41249 125.99765l21.51181 0l0 22.015747l-21.51181 0z" fill-rule="evenodd"/><path stroke="#000000" stroke-width="1.0" stroke-linejoin="round" stroke-linecap="butt" d="m161.41249 125.99765l21.51181 0l0 22.015747l-21.51181 0z" fill-rule="evenodd"/><path fill="#000000" d="m170.80312 138.69989l0.828125 -0.109375q0.140625 0.703125 0.46875 1.015625q0.34375 0.296875 0.828125 0.296875q0.578125 0 0.96875 -0.390625q0.40625 -0.40625 0.40625 -1.0q0 -0.5625 -0.375 -0.921875q-0.359375 -0.375 -0.921875 -0.375q-0.234375 0 -0.578125 0.09375l0.078125 -0.71875q0.09375 0 0.140625 0q0.515625 0 0.9375 -0.265625q0.421875 -0.28125 0.421875 -0.84375q0 -0.453125 -0.3125 -0.75q-0.296875 -0.296875 -0.78125 -0.296875q-0.484375 0 -0.796875 0.3125q-0.3125 0.296875 -0.40625 0.890625l-0.828125 -0.140625q0.15625 -0.828125 0.6875 -1.28125q0.53125 -0.453125 1.328125 -0.453125q0.546875 0 1.0 0.234375q0.46875 0.234375 0.703125 0.640625q0.25 0.40625 0.25 0.859375q0 0.4375 -0.234375 0.796875q-0.234375 0.34375 -0.6875 0.5625q0.59375 0.125 0.921875 0.5625q0.328125 0.421875 0.328125 1.078125q0 0.875 -0.640625 1.484375q-0.640625 0.609375 -1.609375 0.609375q-0.875 0 -1.46875 -0.515625q-0.578125 -0.53125 -0.65625 -1.375z" fill-rule="nonzero"/><path fill="#c9daf8" d="m161.41249 103.97092l21.51181 0l0 22.015755l-21.51181 0z" fill-rule="evenodd"/><path stroke="#000000" stroke-width="1.0" stroke-linejoin="round" stroke-linecap="butt" d="m161.41249 103.97092l21.51181 0l0 22.015755l-21.51181 0z" fill-rule="evenodd"/><path fill="#c9daf8" d="m182.93904 125.99765l21.51181 0l0 22.015747l-21.51181 0z" fill-rule="evenodd"/><path stroke="#000000" stroke-width="1.0" stroke-linejoin="round" stroke-linecap="butt" d="m182.93904 125.99765l21.51181 0l0 22.015747l-21.51181 0z" fill-rule="evenodd"/><path fill="#000000" d="m194.95467 140.46552l0 -1.59375l-2.890625 0l0 -0.75l3.046875 -4.328125l0.65625 0l0 4.328125l0.90625 0l0 0.75l-0.90625 0l0 1.59375l-0.8125 0zm0 -2.34375l0 -3.015625l-2.09375 3.015625l2.09375 0z" fill-rule="nonzero"/><path fill="#c9daf8" d="m182.93904 103.97092l21.51181 0l0 22.015755l-21.51181 0z" fill-rule="evenodd"/><path stroke="#000000" stroke-width="1.0" stroke-linejoin="round" stroke-linecap="butt" d="m182.93904 103.97092l21.51181 0l0 22.015755l-21.51181 0z" fill-rule="evenodd"/><path fill="#c9daf8" d="m204.46558 37.890736l21.511826 0l0 22.015747l-21.511826 0z" fill-rule="evenodd"/><path stroke="#000000" stroke-width="1.0" stroke-linejoin="round" stroke-linecap="butt" d="m204.46558 37.890736l21.511826 0l0 22.015747l-21.511826 0z" fill-rule="evenodd"/><path fill="#c9daf8" d="m204.46558 59.912537l21.511826 0l0 22.015747l-21.511826 0z" fill-rule="evenodd"/><path stroke="#000000" stroke-width="1.0" stroke-linejoin="round" stroke-linecap="butt" d="m204.46558 59.912537l21.511826 0l0 22.015747l-21.511826 0z" fill-rule="evenodd"/><path fill="#c9daf8" d="m204.46558 125.99765l21.511826 0l0 22.015747l-21.511826 0z" fill-rule="evenodd"/><path stroke="#000000" stroke-width="1.0" stroke-linejoin="round" stroke-linecap="butt" d="m204.46558 125.99765l21.511826 0l0 22.015747l-21.511826 0z" fill-rule="evenodd"/><path fill="#000000" d="m213.8562 138.71552l0.859375 -0.078125q0.09375 0.640625 0.4375 0.953125q0.359375 0.3125 0.84375 0.3125q0.59375 0 1.0 -0.4375q0.40625 -0.453125 0.40625 -1.1875q0 -0.703125 -0.390625 -1.109375q-0.390625 -0.40625 -1.03125 -0.40625q-0.390625 0 -0.71875 0.1875q-0.3125 0.171875 -0.5 0.453125l-0.765625 -0.09375l0.640625 -3.4375l3.328125 0l0 0.796875l-2.671875 0l-0.359375 1.78125q0.609375 -0.40625 1.265625 -0.40625q0.875 0 1.46875 0.609375q0.609375 0.59375 0.609375 1.546875q0 0.90625 -0.53125 1.5625q-0.640625 0.8125 -1.75 0.8125q-0.90625 0 -1.484375 -0.5q-0.578125 -0.515625 -0.65625 -1.359375z" fill-rule="nonzero"/><path fill="#c9daf8" d="m204.46558 103.97092l21.511826 0l0 22.015755l-21.511826 0z" fill-rule="evenodd"/><path stroke="#000000" stroke-width="1.0" stroke-linejoin="round" stroke-linecap="butt" d="m204.46558 103.97092l21.511826 0l0 22.015755l-21.511826 0z" fill-rule="evenodd"/><path fill="#c9daf8" d="m204.46558 81.94419l21.511826 0l0 22.015747l-21.511826 0z" fill-rule="evenodd"/><path stroke="#000000" stroke-width="1.0" stroke-linejoin="round" stroke-linecap="butt" d="m204.46558 81.94419l21.511826 0l0 22.015747l-21.511826 0z" fill-rule="evenodd"/><path fill="#ffffff" d="m251.27034 3.530339l155.59056 0l0 144.50394l-155.59056 0z" fill-rule="evenodd"/><path stroke="#d9d9d9" stroke-width="1.0" stroke-linejoin="round" stroke-linecap="butt" d="m251.27034 3.530339l155.59056 0l0 144.50394l-155.59056 0z" fill-rule="evenodd"/><path fill="#000000" d="m321.78314 30.450336l0 -13.359375l4.328125 0q2.453125 0 3.203125 0.203125q1.140625 0.296875 1.921875 1.3125q0.78125 1.0 0.78125 2.59375q0 1.234375 -0.453125 2.078125q-0.453125 0.828125 -1.140625 1.3125q-0.6875 0.46875 -1.390625 0.625q-0.96875 0.203125 -2.796875 0.203125l-1.765625 0l0 5.03125l-2.6875 0zm2.6875 -11.09375l0 3.78125l1.484375 0q1.59375 0 2.125 -0.203125q0.546875 -0.203125 0.84375 -0.65625q0.3125 -0.453125 0.3125 -1.03125q0 -0.734375 -0.4375 -1.203125q-0.421875 -0.484375 -1.078125 -0.59375q-0.484375 -0.09375 -1.9375 -0.09375l-1.3125 0z" fill-rule="nonzero"/><path fill="#000000" d="m335.3986 37.450336l-1.71875 0l0 -6.453125l1.59375 0l0 0.921875q0.40625 -0.65625 0.734375 -0.859375q0.328125 -0.203125 0.734375 -0.203125q0.578125 0 1.125 0.328125l-0.53125 1.484375q-0.4375 -0.28125 -0.796875 -0.28125q-0.359375 0 -0.609375 0.203125q-0.25 0.1875 -0.390625 0.703125q-0.140625 0.515625 -0.140625 2.171875l0 1.984375z" fill-rule="nonzero"/><path fill="#b6d7a8" d="m276.10233 125.993034l21.51181 0l0 22.015755l-21.51181 0z" fill-rule="evenodd"/><path stroke="#000000" stroke-width="1.0" stroke-linejoin="round" stroke-linecap="butt" d="m276.10233 125.993034l21.51181 0l0 22.015755l-21.51181 0z" fill-rule="evenodd"/><path fill="#000000" d="m288.57108 140.4609l-0.8125 0l0 -5.21875q-0.296875 0.28125 -0.78125 0.5625q-0.484375 0.28125 -0.859375 0.421875l0 -0.796875q0.6875 -0.328125 1.203125 -0.78125q0.515625 -0.453125 0.734375 -0.890625l0.515625 0l0 6.703125z" fill-rule="nonzero"/><path fill="#b6d7a8" d="m276.10233 103.96631l21.51181 0l0 22.015747l-21.51181 0z" fill-rule="evenodd"/><path stroke="#000000" stroke-width="1.0" stroke-linejoin="round" stroke-linecap="butt" d="m276.10233 103.96631l21.51181 0l0 22.015747l-21.51181 0z" fill-rule="evenodd"/><path fill="#b6d7a8" d="m319.1554 81.93958l21.51181 0l0 22.015747l-21.51181 0z" fill-rule="evenodd"/><path stroke="#000000" stroke-width="1.0" stroke-linejoin="round" stroke-linecap="butt" d="m319.1554 81.93958l21.51181 0l0 22.015747l-21.51181 0z" fill-rule="evenodd"/><path fill="#b6d7a8" d="m297.62888 125.993034l21.51181 0l0 22.015755l-21.51181 0z" fill-rule="evenodd"/><path stroke="#000000" stroke-width="1.0" stroke-linejoin="round" stroke-linecap="butt" d="m297.62888 125.993034l21.51181 0l0 22.015755l-21.51181 0z" fill-rule="evenodd"/><path fill="#000000" d="m311.332 139.67966l0 0.78125l-4.421875 0q-0.015625 -0.296875 0.09375 -0.5625q0.171875 -0.453125 0.53125 -0.890625q0.375 -0.4375 1.078125 -1.015625q1.09375 -0.890625 1.46875 -1.40625q0.390625 -0.53125 0.390625 -1.0q0 -0.484375 -0.359375 -0.8125q-0.34375 -0.34375 -0.890625 -0.34375q-0.59375 0 -0.953125 0.359375q-0.359375 0.359375 -0.359375 0.984375l-0.84375 -0.078125q0.09375 -0.953125 0.65625 -1.4375q0.5625 -0.5 1.515625 -0.5q0.953125 0 1.515625 0.53125q0.5625 0.53125 0.5625 1.328125q0 0.390625 -0.171875 0.78125q-0.15625 0.390625 -0.546875 0.828125q-0.375 0.421875 -1.25 1.15625q-0.734375 0.625 -0.953125 0.84375q-0.203125 0.21875 -0.34375 0.453125l3.28125 0z" fill-rule="nonzero"/><path fill="#b6d7a8" d="m319.1554 125.993034l21.51181 0l0 22.015755l-21.51181 0z" fill-rule="evenodd"/><path stroke="#000000" stroke-width="1.0" stroke-linejoin="round" stroke-linecap="butt" d="m319.1554 125.993034l21.51181 0l0 22.015755l-21.51181 0z" fill-rule="evenodd"/><path fill="#000000" d="m328.54602 138.69528l0.828125 -0.109375q0.140625 0.703125 0.46875 1.015625q0.34375 0.296875 0.828125 0.296875q0.578125 0 0.96875 -0.390625q0.40625 -0.40625 0.40625 -1.0q0 -0.5625 -0.375 -0.921875q-0.359375 -0.375 -0.921875 -0.375q-0.234375 0 -0.578125 0.09375l0.078125 -0.71875q0.09375 0 0.140625 0q0.515625 0 0.9375 -0.265625q0.421875 -0.28125 0.421875 -0.84375q0 -0.453125 -0.3125 -0.75q-0.296875 -0.296875 -0.78125 -0.296875q-0.484375 0 -0.796875 0.3125q-0.3125 0.296875 -0.40625 0.890625l-0.828125 -0.140625q0.15625 -0.828125 0.6875 -1.28125q0.53125 -0.453125 1.328125 -0.453125q0.546875 0 1.0 0.234375q0.46875 0.234375 0.703125 0.640625q0.25 0.40625 0.25 0.859375q0 0.4375 -0.234375 0.796875q-0.234375 0.34375 -0.6875 0.5625q0.59375 0.125 0.921875 0.5625q0.328125 0.421875 0.328125 1.078125q0 0.875 -0.640625 1.484375q-0.640625 0.609375 -1.609375 0.609375q-0.875 0 -1.46875 -0.515625q-0.578125 -0.53125 -0.65625 -1.375z" fill-rule="nonzero"/><path fill="#b6d7a8" d="m319.1554 103.96631l21.51181 0l0 22.015747l-21.51181 0z" fill-rule="evenodd"/><path stroke="#000000" stroke-width="1.0" stroke-linejoin="round" stroke-linecap="butt" d="m319.1554 103.96631l21.51181 0l0 22.015747l-21.51181 0z" fill-rule="evenodd"/><path fill="#b6d7a8" d="m340.68195 125.993034l21.51181 0l0 22.015755l-21.51181 0z" fill-rule="evenodd"/><path stroke="#000000" stroke-width="1.0" stroke-linejoin="round" stroke-linecap="butt" d="m340.68195 125.993034l21.51181 0l0 22.015755l-21.51181 0z" fill-rule="evenodd"/><path fill="#000000" d="m352.69757 140.4609l0 -1.59375l-2.890625 0l0 -0.75l3.046875 -4.328125l0.65625 0l0 4.328125l0.90625 0l0 0.75l-0.90625 0l0 1.59375l-0.8125 0zm0 -2.34375l0 -3.015625l-2.09375 3.015625l2.09375 0z" fill-rule="nonzero"/><path fill="#b6d7a8" d="m340.68195 103.96631l21.51181 0l0 22.015747l-21.51181 0z" fill-rule="evenodd"/><path stroke="#000000" stroke-width="1.0" stroke-linejoin="round" stroke-linecap="butt" d="m340.68195 103.96631l21.51181 0l0 22.015747l-21.51181 0z" fill-rule="evenodd"/><path fill="#b6d7a8" d="m340.68195 59.91285l21.51181 0l0 22.015747l-21.51181 0z" fill-rule="evenodd"/><path stroke="#000000" stroke-width="1.0" stroke-linejoin="round" stroke-linecap="butt" d="m340.68195 59.91285l21.51181 0l0 22.015747l-21.51181 0z" fill-rule="evenodd"/><path fill="#b6d7a8" d="m362.2085 125.993034l21.51181 0l0 22.015755l-21.51181 0z" fill-rule="evenodd"/><path stroke="#000000" stroke-width="1.0" stroke-linejoin="round" stroke-linecap="butt" d="m362.2085 125.993034l21.51181 0l0 22.015755l-21.51181 0z" fill-rule="evenodd"/><path fill="#000000" d="m371.59912 138.7109l0.859375 -0.078125q0.09375 0.640625 0.4375 0.953125q0.359375 0.3125 0.84375 0.3125q0.59375 0 1.0 -0.4375q0.40625 -0.453125 0.40625 -1.1875q0 -0.703125 -0.390625 -1.109375q-0.390625 -0.40625 -1.03125 -0.40625q-0.390625 0 -0.71875 0.1875q-0.3125 0.171875 -0.5 0.453125l-0.765625 -0.09375l0.640625 -3.4375l3.328125 0l0 0.796875l-2.671875 0l-0.359375 1.78125q0.609375 -0.40625 1.265625 -0.40625q0.875 0 1.46875 0.609375q0.609375 0.59375 0.609375 1.546875q0 0.90625 -0.53125 1.5625q-0.640625 0.8125 -1.75 0.8125q-0.90625 0 -1.484375 -0.5q-0.578125 -0.515625 -0.65625 -1.359375z" fill-rule="nonzero"/><path fill="#b6d7a8" d="m362.2085 103.96631l21.51181 0l0 22.015747l-21.51181 0z" fill-rule="evenodd"/><path stroke="#000000" stroke-width="1.0" stroke-linejoin="round" stroke-linecap="butt" d="m362.2085 103.96631l21.51181 0l0 22.015747l-21.51181 0z" fill-rule="evenodd"/><path fill="#b6d7a8" d="m362.2085 81.93958l21.51181 0l0 22.015747l-21.51181 0z" fill-rule="evenodd"/><path stroke="#000000" stroke-width="1.0" stroke-linejoin="round" stroke-linecap="butt" d="m362.2085 81.93958l21.51181 0l0 22.015747l-21.51181 0z" fill-rule="evenodd"/><path fill="#b6d7a8" d="m340.68195 81.93958l21.51181 0l0 22.015747l-21.51181 0z" fill-rule="evenodd"/><path stroke="#000000" stroke-width="1.0" stroke-linejoin="round" stroke-linecap="butt" d="m340.68195 81.93958l21.51181 0l0 22.015747l-21.51181 0z" fill-rule="evenodd"/></g></svg>